<mxfile host="Electron" agent="Mozilla/5.0 (X11; Linux x86_64) AppleWebKit/537.36 (KHTML, like Gecko) draw.io/26.0.4 Chrome/128.0.6613.186 Electron/32.2.5 Safari/537.36" version="26.0.4">
  <diagram name="Page-1" id="Hx95JxukadygO2temlgH">
    <mxGraphModel dx="1434" dy="838" grid="1" gridSize="10" guides="1" tooltips="1" connect="1" arrows="1" fold="1" page="1" pageScale="1" pageWidth="1100" pageHeight="850" math="0" shadow="0">
      <root>
        <mxCell id="0" />
        <mxCell id="1" parent="0" />
        <mxCell id="33ZxRu888jDNc-60NQ5n-39" value="" style="rounded=0;whiteSpace=wrap;html=1;fillColor=none;dashed=1;" vertex="1" parent="1">
          <mxGeometry x="330" y="480" width="140" height="120" as="geometry" />
        </mxCell>
        <mxCell id="33ZxRu888jDNc-60NQ5n-15" value="" style="rounded=0;whiteSpace=wrap;html=1;fillColor=none;dashed=1;" vertex="1" parent="1">
          <mxGeometry x="520" y="185" width="120" height="110" as="geometry" />
        </mxCell>
        <mxCell id="33ZxRu888jDNc-60NQ5n-9" value="" style="rounded=0;whiteSpace=wrap;html=1;fillColor=none;dashed=1;" vertex="1" parent="1">
          <mxGeometry x="520" y="340" width="290" height="120" as="geometry" />
        </mxCell>
        <mxCell id="33ZxRu888jDNc-60NQ5n-1" value="RAG App&lt;div&gt;(Frontend)&lt;/div&gt;" style="rounded=1;whiteSpace=wrap;html=1;" vertex="1" parent="1">
          <mxGeometry x="530" y="380" width="120" height="60" as="geometry" />
        </mxCell>
        <mxCell id="33ZxRu888jDNc-60NQ5n-3" value="Prompt&amp;nbsp;&lt;span style=&quot;background-color: transparent; color: light-dark(rgb(0, 0, 0), rgb(255, 255, 255));&quot;&gt;Cache&lt;/span&gt;&lt;div&gt;&lt;span style=&quot;background-color: transparent; color: light-dark(rgb(0, 0, 0), rgb(255, 255, 255));&quot;&gt;(Backend)&lt;/span&gt;&lt;/div&gt;" style="rounded=1;whiteSpace=wrap;html=1;" vertex="1" parent="1">
          <mxGeometry x="670" y="380" width="120" height="60" as="geometry" />
        </mxCell>
        <mxCell id="33ZxRu888jDNc-60NQ5n-4" value="LLM" style="rounded=1;whiteSpace=wrap;html=1;" vertex="1" parent="1">
          <mxGeometry x="840" y="380" width="120" height="60" as="geometry" />
        </mxCell>
        <mxCell id="33ZxRu888jDNc-60NQ5n-11" value="" style="rounded=0;whiteSpace=wrap;html=1;fillColor=none;dashed=1;" vertex="1" parent="1">
          <mxGeometry x="690" y="185" width="120" height="110" as="geometry" />
        </mxCell>
        <mxCell id="33ZxRu888jDNc-60NQ5n-10" value="Reflex" style="text;html=1;align=center;verticalAlign=middle;whiteSpace=wrap;rounded=0;" vertex="1" parent="1">
          <mxGeometry x="520" y="340" width="50" height="20" as="geometry" />
        </mxCell>
        <mxCell id="33ZxRu888jDNc-60NQ5n-12" value="&lt;div&gt;Data&lt;/div&gt;&lt;div&gt;Volume&lt;/div&gt;" style="shape=cylinder3;whiteSpace=wrap;html=1;boundedLbl=1;backgroundOutline=1;size=15;" vertex="1" parent="1">
          <mxGeometry x="550" y="200" width="60" height="80" as="geometry" />
        </mxCell>
        <mxCell id="33ZxRu888jDNc-60NQ5n-14" value="Vector&lt;div&gt;Database&lt;/div&gt;" style="shape=cylinder3;whiteSpace=wrap;html=1;boundedLbl=1;backgroundOutline=1;size=15;" vertex="1" parent="1">
          <mxGeometry x="720" y="200" width="60" height="80" as="geometry" />
        </mxCell>
        <mxCell id="33ZxRu888jDNc-60NQ5n-17" value="Milvus" style="text;html=1;align=center;verticalAlign=middle;whiteSpace=wrap;rounded=0;" vertex="1" parent="1">
          <mxGeometry x="690" y="185" width="40" height="15" as="geometry" />
        </mxCell>
        <mxCell id="33ZxRu888jDNc-60NQ5n-18" value="PostgreSQL" style="text;html=1;align=center;verticalAlign=middle;whiteSpace=wrap;rounded=0;" vertex="1" parent="1">
          <mxGeometry x="520" y="185" width="70" height="15" as="geometry" />
        </mxCell>
        <mxCell id="33ZxRu888jDNc-60NQ5n-19" value="" style="endArrow=classic;startArrow=classic;html=1;rounded=0;exitX=0.42;exitY=-0.002;exitDx=0;exitDy=0;entryX=0.5;entryY=1;entryDx=0;entryDy=0;exitPerimeter=0;" edge="1" parent="1" source="33ZxRu888jDNc-60NQ5n-1" target="33ZxRu888jDNc-60NQ5n-15">
          <mxGeometry width="50" height="50" relative="1" as="geometry">
            <mxPoint x="660" y="300" as="sourcePoint" />
            <mxPoint x="710" y="250" as="targetPoint" />
          </mxGeometry>
        </mxCell>
        <mxCell id="33ZxRu888jDNc-60NQ5n-21" value="" style="endArrow=classic;startArrow=classic;html=1;rounded=0;entryX=0.5;entryY=1;entryDx=0;entryDy=0;exitX=0.677;exitY=-0.012;exitDx=0;exitDy=0;exitPerimeter=0;" edge="1" parent="1" source="33ZxRu888jDNc-60NQ5n-3" target="33ZxRu888jDNc-60NQ5n-11">
          <mxGeometry width="50" height="50" relative="1" as="geometry">
            <mxPoint x="660" y="370" as="sourcePoint" />
            <mxPoint x="710" y="320" as="targetPoint" />
          </mxGeometry>
        </mxCell>
        <mxCell id="33ZxRu888jDNc-60NQ5n-22" value="" style="endArrow=classic;startArrow=classic;html=1;rounded=0;entryX=0;entryY=0.5;entryDx=0;entryDy=0;exitX=1;exitY=0.5;exitDx=0;exitDy=0;" edge="1" parent="1" source="33ZxRu888jDNc-60NQ5n-3" target="33ZxRu888jDNc-60NQ5n-4">
          <mxGeometry width="50" height="50" relative="1" as="geometry">
            <mxPoint x="660" y="370" as="sourcePoint" />
            <mxPoint x="710" y="320" as="targetPoint" />
          </mxGeometry>
        </mxCell>
        <mxCell id="33ZxRu888jDNc-60NQ5n-23" value="User" style="shape=umlActor;verticalLabelPosition=bottom;verticalAlign=top;html=1;outlineConnect=0;" vertex="1" parent="1">
          <mxGeometry x="200" y="300" width="30" height="60" as="geometry" />
        </mxCell>
        <mxCell id="33ZxRu888jDNc-60NQ5n-24" value="Admin" style="shape=umlActor;verticalLabelPosition=bottom;verticalAlign=top;html=1;outlineConnect=0;" vertex="1" parent="1">
          <mxGeometry x="200" y="440" width="30" height="60" as="geometry" />
        </mxCell>
        <mxCell id="33ZxRu888jDNc-60NQ5n-33" value="NGiNX" style="rounded=1;whiteSpace=wrap;html=1;" vertex="1" parent="1">
          <mxGeometry x="340" y="370" width="120" height="60" as="geometry" />
        </mxCell>
        <mxCell id="33ZxRu888jDNc-60NQ5n-42" style="edgeStyle=orthogonalEdgeStyle;rounded=0;orthogonalLoop=1;jettySize=auto;html=1;exitX=1;exitY=0.5;exitDx=0;exitDy=0;entryX=0;entryY=0.5;entryDx=0;entryDy=0;" edge="1" parent="1" source="33ZxRu888jDNc-60NQ5n-35" target="33ZxRu888jDNc-60NQ5n-9">
          <mxGeometry relative="1" as="geometry" />
        </mxCell>
        <mxCell id="33ZxRu888jDNc-60NQ5n-35" value="" style="rounded=0;whiteSpace=wrap;html=1;fillColor=none;dashed=1;" vertex="1" parent="1">
          <mxGeometry x="330" y="340" width="140" height="120" as="geometry" />
        </mxCell>
        <mxCell id="33ZxRu888jDNc-60NQ5n-38" value="Granian&lt;div&gt;(Workers)&lt;/div&gt;" style="rounded=1;whiteSpace=wrap;html=1;" vertex="1" parent="1">
          <mxGeometry x="340" y="510" width="120" height="60" as="geometry" />
        </mxCell>
        <mxCell id="33ZxRu888jDNc-60NQ5n-40" style="edgeStyle=orthogonalEdgeStyle;rounded=0;orthogonalLoop=1;jettySize=auto;html=1;exitX=0.5;exitY=0.5;exitDx=0;exitDy=0;exitPerimeter=0;entryX=-0.003;entryY=0.168;entryDx=0;entryDy=0;entryPerimeter=0;" edge="1" parent="1" source="33ZxRu888jDNc-60NQ5n-23" target="33ZxRu888jDNc-60NQ5n-35">
          <mxGeometry relative="1" as="geometry" />
        </mxCell>
        <mxCell id="33ZxRu888jDNc-60NQ5n-41" style="edgeStyle=orthogonalEdgeStyle;rounded=0;orthogonalLoop=1;jettySize=auto;html=1;exitX=0.5;exitY=0.5;exitDx=0;exitDy=0;exitPerimeter=0;entryX=-0.023;entryY=0.835;entryDx=0;entryDy=0;entryPerimeter=0;" edge="1" parent="1" source="33ZxRu888jDNc-60NQ5n-24" target="33ZxRu888jDNc-60NQ5n-35">
          <mxGeometry relative="1" as="geometry" />
        </mxCell>
        <mxCell id="33ZxRu888jDNc-60NQ5n-43" value="&lt;h1 style=&quot;margin-top: 0px;&quot;&gt;&lt;span style=&quot;background-color: transparent; color: light-dark(rgb(0, 0, 0), rgb(255, 255, 255));&quot;&gt;AI-POWERED APPLICATION ARCHITECTURE&lt;/span&gt;&lt;br&gt;&lt;/h1&gt;" style="text;html=1;whiteSpace=wrap;overflow=hidden;rounded=0;" vertex="1" parent="1">
          <mxGeometry x="260" y="120" width="550" height="40" as="geometry" />
        </mxCell>
        <mxCell id="33ZxRu888jDNc-60NQ5n-46" value="" style="shape=image;verticalLabelPosition=bottom;labelBackgroundColor=default;verticalAlign=top;aspect=fixed;imageAspect=0;image=data:image/png,iVBORw0KGgoAAAANSUhEUgAAAgAAAAIACAYAAAD0eNT6AABSoklEQVR42u3dd3hc1Z0//ve5d7p6syw3uWLcARNAsk1MCdUyzUropGzIJsvuZvPNZksaW5LsbvJNvrvZ3WRJdjcJ+yNkZWNwTQwEY2wJA8a9F1wkWb1Ov+X8/hhjDNaMZqQZ3Snv1/PwIN1z5t5zryWdzz0VICIiIiIiIiIiIiIiIiIiIiIiIiIiIiIiIiIiIiIiIiIiIiIiIiIiIiIiIiIiIiIiIiIiIiIiIiIiIiIiIiIiIiIiIiIiIiIiIiIiIiIiIiIiIiIiIiIiIiIiIiIiIiIiIiIiIiIiIiIiIiIiIiIiIiIiIiIiIiIiIiIiIiIiIiIiIiIiIiIiIiIiIiIiIiIiIiIiIiIiIiIiIiIiIiIiIiIiIiIiIiIiIiIiIiIiIiIiIiIiIiIiIiIiIiIiIiIiIiIiIiIiIiIiIiIiIiIiIiIiIiIiIiIiIiIiIiIiIiIiIiIiIiIiIiIiIiIiIiIiIiIiIiIiIiIiIiIiIiIiIiIiIiIiIiIiIiIiIiIiIiIiIiIiIiIiIiIiIiIiIiIiIiIiIiIiIiIiIiIiIiIiIiIiIiIiIiIiIiIiIiIiIiIiIiIiIiIiIiIiIiIiIiIiIiIiIiIiIiIiIiIiIiIiIiIiIiIiIiIiIiIiIiIiIiIiIiIiIiIiIiIiIiIiIiIiIiIiIiIiIiIiIiIiIiIiIiIiIiIiIiIiIiIiIiIiIiIiIiIiIiIiIiIiIiIiIiIiIiIiIiIiIiIiIiIiIiIiIqIxJawuABGNTm3dqmchMMfqciSbaaiPvbnxN4etLgdRtrJZXQAiGiWBOZBYbHUxks0G02N1GYiymWJ1AYiIiGjsMQAgIiLKQQwAiIiIchADACIiohzEAICIiCgHcRYAURaTdgf0siqrixGVve2M1UUgylkMAIiymF5WhZ7Hvm51MaKq/P6TVheBKGexC4CIiCgHMQAgIiLKQewCIMohlza5dz/+deiV1VGPu/e+gcItzwIAtPHVF7sSknWciKzFFgAiIqIcxACAiIgoBzEAICIiykEMAIiIiHIQAwAiIqIcxACAiIgoBzEAICIiykEMAIiIiHIQAwAiIqIcxACAiIgoBzEAICIiykEMAIiIiHIQAwAiIqIcxACAiIgoBzEAICIiykEMAIiIiHIQAwAiIqIcxACAiIgoBzEAICIiykEMAIiIiHIQAwAiIqIcxACAiIgoBzEAICIiykEMAIiIiHIQAwAiIqIcxACAiIgoBzEAICIiykEMAIiIiHIQAwAiIqIcxACAiIgoBzEAICIiykE2qwtARGNn4LbHLn5tFpbFPK5NnnXxuOnOv5ierONEZC0GAEQ5JLBoWdzH9dLx0EvHp+w4EVmLAQClTG1d/dcBc4rV5ch6EtVWF4GIMg8DAEodIe+DFIutLgYRpZfaez81Q+rG58ITSr+965lnNKvLk6sYABBlMXvbGVR+/0mri0F0Uc3t9aUwjI1CYLbzfM+yZfff/8k3XnjhvNXlykWcBUBERGNi8ZNP2oVD/i+A2RcOLTU0Zc+SlfffZHXZchEDACIiGhOO8z0/A3DLRw6Pk1LZUlu36i+sLl+uYQBAREQpV7ti1TcE8ESUZBuAf1iyctUvly//tMvqsuYKBgBERJRSNXUPPASBvx0un5R4PFzgffm6++4ri+e8NDoMAIiIKGVuqLv/GgHxcwAizo8stenqW0tW1s+OMz+NEGcBkCVO1qxA+xXpOUOw8tguzGjacNnxwKJlH1oxL53Y2s+g7Fffuey4t6wK+1ak7yyA2l/+jdVFoBRadv/9VYamrAPgSfCj06WUO5bW1d+7fX3DdqvvI1uxBYCIiFJBmJryXwAmjvDzZSbkK7UrH3jU6hvJVgwAiIgo6WrrVj0lgTtGeRonpPjVkpX1T1l9P9mIXQCUFhZueObi18eX3Y9AUTlKzxzBpP3bAACBonIcX3Y/ACR8fNYbL8Dd3wUAaF5wI3qqr4x5PB62njYUbvzPi9/3PPb1ER3Pa9oE54ndAIDQzKvhq7lrRMdH85xT/fyjHafsVXvX/dUA/iFWHj2vBKbTDUdP63CnE1LKf6mtWyUa16/+sdX3lk0YAFBayO/+YCEwRY+sDGoP+T50/H2JHnf3d108bg/5hj0eFy0Ee9uZUR9XB7svHtcrp4z4+Giec6qff7TjlMVsyg8gY/f7d97zp7AVlcP1yi9QcPyd4c4oAPxzzcp6pWldwz9bfXvZgl0ARESUNEtXrFoOiVWx8nTe8mk4SyqhKipCn/gsej62Ip5TCyHlj2rqVn3Z6nvMFgwAiIgoaUwhYk7t8FUvgDL7+ovfK0IA192Njts/H8/phQB+tGTlqr+y+j6zAQMAIiJKipoVq24B5I2x8gzc9AjEECsC2GZeg7ZP/hXiqZakxHdr6lZ9wer7zXQMAIiIKCmEQMz1/HuvuR3OvKKo6Y6KKTj/8LcgbfbhrwX8uLau/mar7zmTMQAgIqJRu+HuT80BcGu0dFOxIXzt8LMCnSWVaH/wm5DqsEGAHZBra+6pX2D1vWcqBgBERDRqimI8hRjL/fbecA/s9vj2+XEUVaDtkb+B4Rg2fyFM+VLtffeNs/r+MxEDACIiGpV59fUOAA/GyqPNqU3onM6CEnQ8+K1hgwABTIOublxcV5focsM5jwEAERGNSnFIrgBQGi3dO2MxHK7E62dnQQk6H/xmPGMCrnXC+XOrn0OmYQBARESjIoGHYqUPXnf3iM/tKChF2/1fiyfrQ0tWPPCHVj+LTMIAgIiIRmz58uU2SHwiWrrpyoO9ZPyoruGsmIS2uj8ZNp8U4v/dUHf/NVY/k0zBAICIiEZML6i4AUDUuX29i26JLPYzSo4pc9C1tH64bE4F4n+X19fnW/1cMgEDACIiGjEJeVus9PCM5L2Qi4U3Y2B2zXC5ZoSD8rtWP5dMwACAiIhGzASiBgDS5oStqCJp1xICCN38CMKlE4bL+tQN9zxwazznzGUMAIiIaESW3v1wiQCujZbeP+cGqEpyqxlVUdF9z59imOpLKKb4+cLbHsuz+hmlMwYAREQ0IlLVlgFQo6WHpsxPyXWdnkK01/3RcNmq8xyBr1v3dNIfAwAiIhoZiatiJZsVk1N2afuUueifuyRmHiHwf5bdUz/XkmeTARgAEBHRiJiQi6KmKTbYPQUpvX5o2YPQ3TGv4dBN+QOLHk/aYwBAREQjImIEAP5p86GI1FYxNpsNXXd/aZgy4s4lK+s/EecpcwoDACIiSlhkrr2YFi09NOGKMSmHo3IqBobZZ0BC/hOefpr13UfwgRARUcJCYbkQMeoQrXTimJXFv7QeMasziauWvHvg3rF7OpmBAQARESVMkXJWrHRZWDZmZXE4XOj8eMzNCCGBbyLGdsW5iAEAERElzJRKVax0xT22U/Dl3CXQPUUxMuCqmrpVI9+VKAsxACAiooQJyOjL8SkKbDbXmJbHpijouunRYcqMPxvTQqU5BgBERDQCImoAoOcVIwn7/yRMrZ4L3VMYK8vNNffULxj7kqUnBgBERJQ4KaN2AWgFY9f/fylVKOhe/kjMPMI0v2hJ4dIQAwAiIkqciN4FoBWUW1YspXo+DEes7gfx8PLlnx7b/ok0xQCAiIhGQERta9cLSiwrlaoo6Ft8V6wsReGCQQ4GBAMAIiIaAQk4o6a58y0tW3hOTcx0IcQjcZ4qqzEAICKihAnAES3NTPESwMNxuvPhmxJ9DyApcSe3CmYAQEREiYosq2uPmm5xAAAAg4tujZXsKnAFb7G6jFazWV0AIgBov+Kai1/rLg8AIFBUcfF4KK/4Ynqix3umzIGvrOpinuGOx0O6CxBYtGzUx8OTZiXl69E851Q//2jHKXPVHDzojJnBijmAHy1C1fSY6VKadwNYZ3U5rcQAgNLCyZq6y44NVE7BQOWUUR9vXnh5xRvreDyMwlIM3PbYqI8H596A4NwbRn08XkM952jHk/X8ox2nzGV6HXbVFoqeIQ0CALvdCf+EGfC0noyW5U6ry2g1BgAZonblqnesLkPCJOZYXQTKXKZiPlu7cpXf6nIkQpriO00bGtZaXY5U0yfnBdTzMQIA07S6iAAA74KbYgQAYvLSuvop29c3nLW6nFZhAJApJBZbXQSisSXmQFpdhgRLrCCxvqQMteuZZ7TaulUhRJkJoIR8VhcRAGCMmxoz3RSyFgADAKKxNGnfG6g8tsvqYgzJHhz6pdN5bDdK29Pzb4UID/025unvwsINz1hdPMpOg4gSANj8gzCsLh0AW35x7AwStQCet7qcVmEAQJZw+vrh9PVbXYyEKAEvlIDX6mIkVmZdQ373eauLQVlJegEx5JJ/qq8/LQIAVVERrJwGV/t7UXKIRfGea9n991dpOqarpjJVCjEVkOMAVACohEARJBwAhppa2C+BfgH0A+iRkOeEUFqElOeEKY9WeZQzDQ0NljwuBgBERDQCYjBaiurrtbpwF/mmLYoRAMjLFwt4+mllya79cwBRIyGvAcQCAAsMDUUKACkAfLRvapiuKvGhrwUgJSQAqQi0BGWotq7+iBByr2nKt4SQb4WqyvfseuYZLdXPhgEAERElTALd0cb62we6ELC6gBfopVWxkstr77tvnGrayk3TvF1CuRW7DtRKiOJI8pjMZnACcpGUWCSEeBwQcJzv8dXW1b8uYL6iKMrv3nip4VAqLswAgIiIEiYEWqK9+dr8AzBME6pi/YJAZv4w+xLo6iEDsixS2afHqFMB5AHyLglxl2FK1NatOgLINYo0G7ZvWLs3WddhAJAFNKcHofwiq4sxJFXX4O7vuuy4UVgK01NgdfGGpPgHoQ70XHY8E5+ztDugl1WN4Ixjw952Zsjj3jQus6e/C4qe8tbZ9GeiJdYLshEOQHVZv9qu8BQOl8WavYsTcyUgvm4K9es1dasOCeBXus34+Vtr13aP5qQMALJAT/WVURd4sVpe93ksGmIUuu+Gu4dcGS8duPe+gcItz152PBOfs15WhZ7Hvm518aKq/P6TQx7ft+LJBM80dhZueIYDKwFAyJZYTeTS1w+kQwDgcFtdhOTeDzAXwD/YdPVbNSse+C+7UH64bX3DeyM5l/XtM0RElHEExPFY6cpAV7ynSiklDbohUsQjhHhKhzxWW7fquaV3feqKRE+QtU+GiIhSRxpmzIFp9o4z8Z4qteUc642JhIDucEMfu5YHG4CHTNU4WFv3wH8sWfnghEQ+SFnko03BjU98GwAwo2k9Ko+9CyCy8cv7TdmpPh6vS5uCux//OvTK6g81xWvjqy82ZSd6vPTZ71zsax647bGLXQ/Rjo/mOSd6PB2ec6qff7Tj8bq0yf1kzQq0X7E4ac8/0eP0gcZNL5ytrVs1CGDIwTz5x96G93rru8ySsS2BVBQEC8rgLxqHUH4xQnklCOWXIOwqgO5wwXB6oDtcQwYbiq5B1cOwhfxwBAbh8PXDGeiHa6AHnr7z8PS1QzH0ZNyqDRBPSqk/Wrty1feLNN/3Nm/eHBrmA0RERAmTEjgkgOuHSnQMdELTwrDbHZYWUiQ6lU8IBArLMVhejYHKKfCVTECgaBxMdWTVpWmzw7TZobnyhtx1VEgTroFuFHaeQWH7KRSdPwlHYHAEV7rIA4lv99s8n6xZseqPmzasfjVaRgYAREQ0IgLYiSgBAACY/Z1A+URLyyjjmNoXdhegb8Is9E24Av1VM6E5PXGcOUnlEwoCRRWRbbNnXgsAcPd3ouzMAZSf2QdPX/sIzyzmCIFXautWbVAg/mioTY8YABAR0YgIyB0S4k+ipdvPn7A8ADCMoadshj2F6K5egK7q+Rgsn5IWWxi/L1BUgeaFN6F54U1w93di3Kl3UXn8bdhCI9occ4UJuXzJyvpHdqxrWHdpAgMAIiIaGWHfDhm9/zr/cBP8Cz5uaRGl9kEAIBUVPZPnoH3mx9A3YSbGaKW/UQkUVeDM1bfj3MKbUXFqL6qO7BhJq4BHGvqpjx5kAEBERCOyY93zrbV1q04BmD5UuqvzDPqCPjisXA9AC0HLK0HnnBq0TLsKmivfurKMgqna0T7rWrTPXIzyMwcwZc8WuAbjXgfoN40b1x746EFOAyQiotHYGCtRPXfY0sKpeUXofPRvcHbusoyt/D9ECHRNXYDd9/wZ3rtuJUzbsIMsTZjGd4dKYABAREQjZipyXaz0gt0vW1o+oShoDfphyvRY5z9ZpFAwUDF52GWpBeTzQ739AwwAiIhoFLTKstcB9EVLd3WeRTjgs6x8rQE/wqZp2fVTRkpMf2sDhtnAyDBM299HS2QAQEREI3Zh3/oNsfLYTrxtSdk6Qn74snTjpvLT+1DQGXu1RQH5mzc3/iZqHwwDACIiGhUp8YtY6WWNa6EnZ7W7uA1oYfSEQqM/URpS9DCq3/3tcNnCusTTMc9j9Y0QEVFma9qw+veAPBktXehh4PSBRE45KkHTQJuF3Q6pNvXd38Lp74+ZR0D+cOeGNbE3bLL6RoiIKONJSPFsrAyl256HKVPfF6+bEi1+L7Kw1x8AUNx6DOOP7RwuW7uuu743XCYGAERENGqGYv8pgEC0dJu/H3rLiZSWQUKiJeCFlo2D/gDYg17M2rE6sgtD7AfxVzs3/38Dw52PAQAREY3aznW/bpcCv4yVp+J3z6R0LEB7IIDAGI81GDsSMxtXwx70DpNPvNl47fxfxnNGBgBERJQUdin+CUDUGlgN+qDuSc26AL1aCH1adg76A4Bpb29EScuxmHkk4FMM5Qk8/XRcTSAMAIiIKCm2rW94Twg8FytP2ZvrEPb2x3vKuPh0HR2BwOhPlKYmHN6OqiONw+ZTgC9v3/SbY3Gc8v38REREyWGa4q8lEHMIftGr/520lfmChoEWvzeubX8zUdnZg5j6zuZ4sr60Y/3qnydybgYARESUNE0bGloUiH+KlcfdfBTy4BujvpZummgJeGFmaeVf0nwEs7b/Bhj2/uQ5B+x/kOj5GQAQEVFSmS58H8DZWHkqXv81Qt2tI78GJM5l8Yj/ivd248rX/wfK8IMaBxVp1m1d/+uuRK/BAICIiJKqqaEhIIT4Awzz6jq+4R8Q9g+O6Bqtfh9ChmH1rabE+GM7MWv7aojhgxtDCPHo9g1r947kOgwAiIgo6Xasa3hZCPx7rDzC0FC25h8RDgcTOndb0A9vFq7xL6SJaW9vwPSdL2H4Zn8AwJ/tWNewLp6MQ2EAQEREKRGUoa8BOBorj32gG6W/+S60OKfw9YSC6Atn33Q/h38A83/3s7hG+1/w3cb1q388mmsyACAiopRwwj4PwLBt/I6BTpQ+93cIDbPIzaCmoSOUfdP9is+fwKKN/zrs7n7vk5B/27h+9ddHe12b1TdORETZpfau+6uhir8DxKMARDyfsXu7UfTbnyNwz5chhvhEwNDRGhhuFbzMYgsFMPXdTRh38t3hl/e9QEB8u3H96r9NyvWtfgBERJQdrl/xwCxF4C8A8TgAeyKf7Z+/HOEb66EOUfmHTQPNfm9WTfYraT6CGTtfhMM/7JL97zMh8LUd6xr+b7LKwACAiIhG5fqVDyxUJb4KiIeQYL1iKjZ03PkF2KfOgzpEY4Fmmjjn98JI0sJBVivsOIMpu7egsOO9RD42KCEfb1q35sVkloUBABERJWzxk0/aHW0990LiS0Ji+UjOEaycir4VT8Hhyhsy3ZDZM9c/r6cFU/a8POx6/kM4bprqPW9u/M3hZJeJAQAREcXthnsfnCoM7TPifM/nAVSN6CRCQcfNj0GZfT0cYughAiaAZv8gwhk911+itPkIxh/dieLzx+Pu5//g02K9atqfaNz4XG8qSscAgIiIYlpcX1/kCMh7FIjHpKHfAoi4BvYNxTvjKniXPwaHyxM1jwTQ4vcikKGVvz3oxbiTu1F57E24vCOquwcgxJ83rWv4GeJcEGAkGAAQEdFllt79wHRDVeoUEytkUC6DgHM0G+5oRRXo/sRn4aicCscweVv9XvgybKEfW8iPkpajKDtzACUtRyHkyLotBMQOU+DTTesaTqS8zGP+lIiIKO0svfvhEkMN3ypM3AGBO0xggpAScsTv+hG6uwDdNz0Kdep8OMTwS8+0Bf0YzIDKX5gGCjrPoajtJIraT6Kg4+yIK30AEEAbgG/uWN/wn0jhW/+lGABkmXB+EU7WrLjseOf0RfCWTQAABIoqxux4vAZue+zi12ZhGQBAmzzr4nHTnX8xPdHjvuvvgnJh/rA2edawx0fznBM9ng7POdXPP9rxeDUvuBH2UGR32YHK6qQ+/0SPZ42nn1Zqdu2/AlJcB8iPCSGuMxFeLOSQA/FHxLS70fnxT0HMuhZ2RY3rM52hQJqu8ifhGuhGXu955PWcR353Mwo7z0LRw8k4eVBK/Ego4e/tWLduZBsjjFCS/qkp1WrrVkWNCNuvuAYna+qsLuKQ8rrPY9GGZy47PnDbYwgsWmZ18Ybk3vsGCrc8e9nxTHzO2vhq9Dw26gXDUqby+08OebzxiW9bXbSoFm54Bvnd54dOFOILjesanknsjKlVX1+vtmjKVKmbCyOVPa4HsBhAUSqup+WVoHtpPdTpC6HGWfEDQG84hPagP+HrlZ09AFO1Q3d6oLnyobnyYNiG62T4MFUPwxYOQA0F4AgMwOXthdPXB6e3F05vLzx97VCTU9l/6FEJgV8biu3bb774/OlknzwebAG4xLI76yukgilWl2Mo2brfNRGNzuL6+iK7ppbYpFZpmpgkISYDmKIITDUlZrcE5UzAcIx82F58/FUzMVBzH2zjpyHRi/WHwyOq/N39nZj9+nOXJwgB3e6CFAKGwwUpFBh2J1Q9DGF+MLBQ1UKwhQKjarofyaOSUv6XMOUPdmx6Ib61f1OEAcAlDBueBOTfW10OIspQUv517cpVT47+RNHODxcA94XvCgGUIChVQId5oUH3/apXyrFo4lXQv/Am+Bcuh7OofNjBfUMZ1DScD/pGdPXK429HeU4StnBkzwB7KPHAIjXkOQn8t7CZ/9a0dm2H1aUB2AXwIbV1D/wHIFL3y0tElAV8U+ZicOEtUCZeAZtt5O+Rg5qG1oAPI5ldIEwD1675B9hHGDyMkRCAl6XAr5wDXWu3bt2qW12gS7EF4BISYjIjIiKiywUrp2HgqlsgJ8+B3ekZ0dv+pQb1kVf+QKTvP00rfy8gfieEuV4YznXbU7SITzIwAPiwaqsLQESULnxTF8A7dynkhFlwON1JqzAG9TBaA/4RV/5AjOb/sWcCOCgEtkFio30w/7WtW38RtLpQ8WAAcAmB9BwASEQ0FrSiCgxcWYPw1IWwlVRCVW2JbekXB6+mjbrydw90o6g9oc10kqkDwH4B+bYUynbFsDem81t+LAwALqi5vb4UkIlPUiYiylCB8dPhn341tIlXQJRUwm53QgBwpuh6Xl1DS2D02/pWHn8r4XX1EyGANgk0C4Fz0pRnIXBKSnFQ2I39jWkygC8ZGABcoNr1ySbin7NKRJQpDIcHgclXIFQ5DVrFVMiSStg8BVCFAgGMuj8/Hr4kVf7CNFBx6t3hsm0QML9jKCJfmMIFAbeQIg/StEtF9F2aUYHoM030q6bSp9mU/lKtr2/z5s3puBpR0jEAuMAUtrIxWn2RiChpDIcHWmEZjPxi6IUV0IrHwSgsh5lXBLgLoLryYFMjf+rHqrL/KJ+hodk/+sofAMrOHhp+8J8wv79j3QtvWnCrGYUBwAVCyOJYLUrnFt2K3omzR3WN0opJsNlT1bhGRNlOKAqEUC9+rQjlsn35lAv/pQu/oaPFl5zKHwCqjjQO95QONK574Q2r7zsTMAC4QJooirUqgrdsIrxlE0d1jXJ3ARwquxmIKDf4dR3NAS+Stc5efncLCjpjL54nIP8ZbM6NCwOAC4SQxTJGBKC58pJwDavvkohobFwc8JfEqnjCoW3DZekNIvRcPOciBgAXSSGKYsWMmisJEwQYkxJRDhjQwjgf9Ce18nf4B1B25mDsTBI/27Vhfbqs/Zv2GAC8z5TFsV7RdYc7gZNFwRYAIspyfeEQ2kawsc9wqo40Drdpj2ET4qdW338mYQDwPhF9a8z3d5Ia/SWIiLJXrzayLX2Ho+gaKk8Mt/KfWL9tfYNlqwNlIgYAFynF0drozQT3liYiyjXdoSA6Q4GUnLvyxDuwDX/uH1v9DDINA4CLpCdaimFnAEBEFE1nKIDuUKqWv5cYf7QpZg4B7NuxvuE1q59Dpkmn6aKWElJEfRaGLTmrYZscBEhEWaYj6E9h5Q+UnjsM90BXzDwmxD+Cw6wTxhaAC6SQUbvok9UFYPLnk4iyyPmgD/3hcEqvMWn/1pjpEnjPOdj5v1Y/i0zEAOAioUQLIKVIzuI9Zgo3ryAiGisSQGvAi0FNS+l1SlqOIb+7OWYeAfxg69atutXPJBMxALhAQkadBBijdyDBaxARZTZDSrT4vfAbqa9zJx4Ytlu/Q7rEf1v9TDIVA4ALRIwWgGQt4ccWACLKZLpp4pzfi5BppPxaRW0nUNgxzLK/Av+vsaEhNVMPckDaDAJcfu+9xdfdd1+ZZQWIMQYgWS0ApkzWithERGMrZBo44x8ck8ofACbvHfbtf8Cu6D+x+rnE47r77iuztH6LIm0CgAq7fdCmqeuW3v1wiRXXjzULACI5b+4GGwCIKAMFDB1nfV5o5ti8xBS2v4fCjmHX9PnJ1hdf7LP62Qzn+jsfKbTp6qagLz91UyVGKG0CgIaGBkMKqKYIb1h+773FVpfnUsJITsSrj9EvD1nD1nwY7t0vW12MrOPavQW21uNWFyNnDWphnPUNwhjDFszJ+38/XJagajf/2dIHE4eldz9coqqhzQAm7tvyrM/q8nxU2gQAACCAAQjUhg37G9ffef+ksby2hIy6fqWSpCYvnV0AWUsYGjw7XoC7aS2ch4fbr5zi5Ty4HZ6mF+FpXAuMUdMzfaA3HERLwDemA5gLus6i6PzJ2Jmk/I83XnjhvKUPZxjX33n/JFPRtkGgFpCpnS4xQmkVAEDiwp67cr5qV5pqVtRfN3aXxmC0NJG0AIB9ANlISBOeV34JW1czICXyfv8/cO3jomSj5drzKvJefw6QErb295C37XkkdXs5iqkrFER7cOzH103ZE7sVTQI+Q3F8z6rnEo+aFfXXqXalCZDzI0dEpdVlGko6BQACAtMuficxSQj5xpKV9U+NzcXlQLQ0JUnTXVLWBWDq8Lz5IpTBntScn6ISWgj5m34K54ldlxyV8Lzxv/A0rh1u9zIagpAmPDvWwLNj9YcqfOfB7cj7/bNsCUgxCYnzAT+6Lll73zXYg+p3f5u0v4XRFLceG/btX4H88c51v263+jlFs2Rl/VNCyDcgcWkrtntpXf0Uq8v2UWkzDbBmRf3HAFn1kcMOKeWPa+tW3S6l+MOmDQ0tqSuBiNoCoGqhpFzBSEFDmuLtRf5vfw5b+ynYzx5E/31/DnDvgjFhaz+FvFd+BbVv6L9Frt1bYOs8C+9tn4XpLrC6uBlB+AeRv+U/YW85OmS680gT1N42+G59AkZxWr5UZTRDmmjx+z40x1/VQrjytV/B09+BoraTOHbjQwjml6bg6hLVu7cMl6nfDCvft/o5DWXJygcnmNL4qZSybqh0A/KTAH5gdTkvlZwl7pJgyuw53wLE4ijJVwiBz06+cl7vuYc+uRtbtya9Jp08e84SQNw4VJqQJpoX3JSU6xTbXVCSsa6AacB5aAcKfvdzqP2RCkjxD8DWehza9KuAJO1fQJdTgj64m9bCs/V5KEFv7LwDXXAcfQtmcQWMkvFWFz2t2U/tQeHGf4fa0xozn+Lrg/PQDggA+rhqQEmbP2MZLWwYOPuROf72oBdzX/1v5PW2AQAcgUGMO/kupKrCWzYxsoBqklSc2oPxx3bGzCMgvte4qeG3Vj+rD3n6aWVJQfnnJMwXBbAoRs5JMyeMe+b06dNp0yyYFr85N9Tdf42A8hPE7pJwAaibfL7z3olz5pxoPnr4VDLLMHn2vI8BuHWotEgAsDwpP+wFdjvsyujO4zhzEPmb/wPOI00Q+ofX4Va9vXCcPgBt8hxIV14yH1HOE0Ev3LtfQf6Wn8PeegIizhYdoYXgOP4O1L4O6OOnQzpcVt9KWlF8fcjb+j/w7FwPEWdrm5Am7C1H4TzyJmBzwCibwEBgFHy6huaA90PjlPJ6z2PuK/8FT3/Hh/Iqpo7i1uOoOL0XmqsA/qJxo14sTZgGZm97DrZwzDEH3YbufKjlxP7kNMkmQW1d/c2T2zrWAHgSkToq+j0CFYbLM3Du6KGm+M6eeslZ4m4Ult79cImpaNs+GCwRd9Ffk1J+p2nD6leTUY7aulVfAvBv0dLf/uQ3oDk9CZxxaOPdHhTbnYl/0DTgPLUHzn2vwTbcCFkA0u6Av/Z+hObdmLSVDHOV2tMK1/5tcB5pAvTRbXwi7U4Er7kdwatvhVRzvJVGC8O9+2W49myB0Eb3XE13AULzP47QvCUw84qtvrOM0hcOoT0UgLxQ+QvTxMSDWzF532txDYD2lVSh7coadE5bBHOEP9NVh3dg2jsbY+YRUnxtx4aGtGj+X7pi1XJT4JsAbk7kcxLwQchlTevW7Lb6HgCLA4CFtz2Wl+8IbIlMkxixtwDxr47BvIatW38x4oUWalc+8CikeDZa+u6Vf4ZAUcWo77nU6cI4pzvu/Iq/H45DO+A6sA2Krz/h6+mV0+CvvQ/6hFmjLnsuUYI+OE7sguNIE2ztp5N+fukpQOCqTyA0/0bIkQSEGUxoQTj3vw7XnlehBAZHf8JLSKFAnzIXoTm10KbOZ5A1jM5Q4IOtfKVE6bnDqN7zO7j7OxM+l+50o2PGtWi74joEC+Jf9E7Vgli89gewhaLOxIYA2oIIzdi1fr0/7hMn2bz6ekdh0HxAQPwxgJpRnKpDCHHjjnUNR0dxjqSwLAC4sa5+mi7kC5C4Kkmn7JLAs4qQz+1Yt+adRD9cs7L+DiHl5mjpBz/xB+gfP33Uhcy32THJkx8zj+Lrg+PkHjhOvgtb6wkkYxshbcpcBBfdAm3yHLYIRKEM9sB+9iCcJ3bD1npsTEabS1c+QnOXIDj/RpgFqRhYlT7U/i44Dm6D63AjRDD1a6JIuxNa9QKEZ14NbeJsdoldwoREq98Hr65BSBNlZw5gwuHtyO9qHv3JAfhKJ6K7eh66pyxAoDB2MDBl9xZMOrA1Zh4h5Rd3bFjzUyueVe1d9VcJVT4igccBjEvSadslxKea1je8bsU9vc+SmqBm5ap6IfETAKlZG1nIYxJ4SUjxSgih7fFEjcvuqZ9rmPJgtPRjyx5E19SFoy6aQ1EwPb/ow8U1dKjtp2FrPQbHmYOwtb2HVO0daBRXIjRvGcIzr4GZb8mqy2lDCfpgbz4CW/MR2M4dgTrQZVlZLr65zr4e2vRF2fPmqofhOLUXjmM74ThzCNbtiSmgj5sCfdKV0CbNhj5hZvY84wRppolmvxdqTyvKz+zDuOPvwJHklphL+Ysr0TvpSvRXTsNgRTWMS1q8nL4+XL3u/0GJ0bUmgUPOwa5FY7Xl7/Lln3aF8r1LANwCgXsEMDdFl9Ih8HXHQNcPrdrOeEwDgNp7PzUDhvkvgLxrDC8bAkQjgFcFjFcL9cDuzZs3XzaIZHl9fX44KKP+Frx37d04P2dJUgo0RxWwdbfC1n4KtpbjsLWfgtDH+t9fQJ8wA6HpV0OfPBdGaXaPUBfShNLbBlvXOdg6zsLWegxqZwvScZNmaXdBq54PrXouwlPmQXoKrS5SQhR/P+xnD8N+9gDspw9CaGm3BDqkzQZ9/AzoE2bCqJgCvXxy1gfEQprQ204hfHIvSs4cgKevbczLIBUFvtIJGBg3DQMV1Rh/4i0UtxyL/RlT3tG0cc3vUlWmefX1jhI/FpiqvAUStwJYCiD+ftpRE3sh8cXGDQ1jPjhwTAKAG+59cKowtG8IiMcBWB126wBOQmA/TBwAxEEpzAO+kOdcvjPQDKB4qA+1zFuGM9fcGfdFVC0Ep78fDl8fnL5+ePra4OlrR17vedhC6bd7pVlQGnkzqpwOvWo6zJLxSdsFcczpYai9bbB1NcPWeQ5q59nIKn2jHMBnCSFglE+ENmUetMlzoVdOh7SlzfIdkSLqOmztJ2E/exi2swdh627JyBX7THf+hWBgSuT/FZMi3TIZOrtA6DrUrrOwtb0HW9tJ2JqPQEnDvz3D2Ni4fvWKZJyopr7ejRAmQprzBZR5gLkAUOYBcjasr5ckJNYrUvzt9o0Nu0Z/uvikMgAQtXX1NwH4EiDvQRotOhSNFDCFHHoqYqBwHDqnLYJUI8nClFC1EFQtCNUIQ9E02LQA7AEvnL5+qGn41pPQs7C7YJSOh1FUCbOkEmbxOOhFlTBKxgE26xcaUgKDUAa6oPR3QRnohNrfBaW/I/J/f+KDJTOGosIoroQxbgr0skkwKiZBL58MmYQZKvEQIT9sXeegdjZH/t/VDLW3LXtX51NUGPklMIvHwSysgFFUAbOoHEZhOYzCirRYdEsEvVD7OqD2dUDpbYfa3x75vrcdMC1pWU7q3QHytATaBEQfhPRBSh8gegWEX0KGAEAAqgQuNpVJKfOEUKoAWQmgAsAEABmxGpeQ4hUo8if2ga51qe4aSHoAUHvvp2YIw3xECvMRSHFFKgtP1jDzS2AWlMJ05kG68yFd+TDd+ZDuAkinB6Y7H1BskKoK2D7o75M2O+QlCxSJcADClEDYDyEv/N+UEFoQQgtBCXgh/P2R/wcGIfwDkYo/4M3eCmeETE8RzIISyLziSIWVXwIzvxgyvxRStUPaHIBqg3S4IBUF0hFp4Yz8G5gQ4SBg6JF1JfQwFG8vVF8fhLcXqrcXwtcHZbA3u4OrkbA5YHgKIN1FMD0XfhfyCiHdhTBd+YBqg+l0QQgV0u6KtN6ojui/C+/TLnyvh6AEvRABL5SAD0pwECLoi/wXGIQ60DUmAyrJEi1SyOcA/DpV0wZHHwA8/bRSu2vfYgmxQghxNySuScp5iYiICACOAtgAiE39Lmw/2NCQlP7MEVXUNbfXlwqHeROkuAsCdwPgotxERESpNyiBlxVgs4DYsn19w9mRniiuAGDJypUFhrBfr5jiVgjcComrkV47CRIREeWi8wLYLoV4RUhzx471a+KebztkAHD9nY8UCkfwOlb4REREGaVdANtMIXaoBrZv/9i83Xj66SE3ILosAFh422N5Hqdvts1Uc68f36bapGm8ISGHnBJyct4tCDiSN5BU5udxtAQRjZowDCAQBmTabDQ3pDxvN6Yd344YL6gvKab4O6vLmVUUdEbrJmD18xG1dfV7ADnklo7vzV2O9vKZybuYxw3psHr6KRFlMhEKA4EQ0nFRq0sppoEF766B2z8QLUu3A/Yrt67/tXVLcuYYNut/hBByb7S0os7TSb2WHPPV/4goa0gT8PqBQBDpXvkDwMRzu2NV/pASX2HlP7bSfnGesSaBfdHSinqSs1HG+4SuQ0KCDTFElBDdhPD7ATO9m/zf5/H1YMLZfbGyvN60YfWz8Z6PkoMtAB9hxmgBUA0dqkhipG1KwMiMX2AiSg8iHIbw+TKm8hfSxPRj2yCij08Im6b6RWRCM0aWYQDwEfawsjdWuiOU5FW3wuwGIKI4mBLwBgB/MKP2Wph0ZjfyB2O07At8782NvzlsdTlzEQOAj3hjc0MngPPR0gsHkruDltA0q2+ZiNKc0HUIrxdCz6y/F3neLkw4F+udShwo0nzfs7qcuYoBwBAkEHVbxvKWI8m9mGkCBte1J6IoAsHIm7+ZOW/9QGTU/4yjMZv+dSHMzwy1PTuNDQYAQ1CEeC1aWkF/G0Syx+yxG4CIPsowIAa9kWl+Gdg9Pvn0O/D4eqJnkPj7HevWvGN1OXMZA4ChSPO1WMl2PbkBqwhn4D71RJQyIqxBeP0ZO0i4sL8NVc37Y2XZHZpQ+l2ry5nrGAAM4cJayu3R0ov6zydwtjhICaGxFYAo510c6BfIqIF+l7LpIcw4sjVWlpBUxBO7nnkmswY0ZCEGAEOTEng9WuK45gPJvyBbAYhyWqYO9PuoGce2wRnyxrhRfKvppYb98Z+RUoUBQBRCiK3R0gr62qAkeRyA0PS0X8ebiFIkEIys6pdhA/0+qrL1EEq6zsTIId6c6BT/1+pyUgQDgCjkMOMA3MH+5F80lNmRPxElSDcvGeiX2Ty+HlSf2hk1XQI+xVCeaGho4LSnNMEAIIqm9WuOAGiNll7edjzp1xShcMb2+xFRYkQoDOH1ZuxAv0spho5Zh38PxYxetytC/tH2Tb85ZnVZ6QMMAGKSW6KljGs+iKTPB+RgQKLsd2F6X2QTn+ww7UQT3P6+GDnkszvWrfml1eWkD2MAEJN4MVqKamhwaoHkXzJD5/wS0XAkEAxCDPqy4q3/feXtx1HRfjRWlhNCaH9kdTnpcgwAYpAusUUCURf/H9ee/G4AGAaExi4yoqxiGBADPohg5vf1XyrP243px7fHyhKSQn5yx7p1g1aXlS7HACCGpoaGgIB4OVp61XvvJr8bAACCmbG/NxENRwKBC2/9GbJ7X7xsehCzDr0Ss98fwFea1q3ZbXVZaWgMAIYjzDXRkhRTg0vzJ/+ahsmxAESZTjcgBvxZMcL/o4SUmHV4K1zBWC/2Yk3j+tX/bnVZKToGAMNwOJUXAUSt5ce3HEzNhYPcH4MoY/mDEF4fYGZnd96U995GUW9z1HQJvOdQtT+wupwUGwOAYWxtaPBCYl209Mqz+yBECh6jYXKPAKIMIzQdYsCb1b+7ZZ2nUNUScyG/gGqK+q0vvthndVkpNpvVBcgEQhG/llI+OGSaNFHg68SApyz5Fw6EALs9NeMMCBM8dtw0oQDzStwod9nhUgW6gjrOesPY3ubFu91+mFyXgeJhSiAQALK86y5/sAvTj22LtV6JhMBnt29s2GV1WWl4rFniMK++3lEUlOcAjBsq3Vc4DvuvugepGLgnXU7A5bT6EWSVWUUufHn+ONw4viBmvvN+Df9+uAPrzvRl+gqtlEIiGAJCoawft+sI+TF/z4twhKKPe5JCfr9p3ZqvWV1Wio9qdQEyQeehQ8akK+eMExBLhkp3hHxom7IIZgq6AoRuAg62AiRL/bQS/LhmCqYVDB9UFdhV3DyhENdX5GNbuxcBPbtGcdPoCM2A8Puz/q0fAFRdw9z9G+EKRB/0J6R4ZaJLfObQoUNZHgplDwYAcZo6Y+EZqcinEK3VxO5Af2Flai5uXAgCaFT+fNF4/Mm8SiiXBFP9/X14Z+db2PX229j11ts4fuwEdF1D5fjxF/NUeey4ZUIhftc8gEAWLeBCIyQvTO0LBnNi6W4hJWYd+T0K+9tiPZTTDmG/fdPa3/jiPjFZjq+VCaitq38dkDcOmSgE3vr4H8BMVVuxxw3JIGDEPjm9BN+8esLF770Dg1jzv2vQtH37h/r5VVXFV/7iq5g1+4rLzrGn24/PvXEGYQYBOUuEwpEZOjlQ8b9v6olGjG89FDVdAj4oooZb/GYezgJIgJCIPqdVSpT2nk3dxQO58baRCuPcdvz5wqqL33e0d+C7f/cd7HjjjcsG+V17/XVDVv4AcFWZB4/OKLX6dsgKhhFZzCfHfg+rmvfHrPwRGfT3GVb+mYkBQALs3s41AKLW8lMPvQ4oKWpUudDsSIn70twKuNTIv0swGMS//uhf0NXROWTe6qlTYp7rc7PLUWBnz1nOMGVkTv+gDzCyc05/NGUdJ2Nu7wsAEPjLpnWrG6wuK40MA4AEbN26VYfAv0VLt2lBFPp6U3Z9EdYgNM3qx5BRHKqCOyYVXfx+y6bfou38+aj5m881xzxfoUPFLRNjzx6gLCBlZLveweye0x9NYV8LZh59PXYmiZ81rlv9T1aXlUaOAUCCHIr+DABvtPTpB18GUrEw0Pv8QUCyDzpe11d4kGeL/HuYhoHXXv19zPw7G9/EqZMnP3QsHA5j/959F7//+HgGANlLQoS0D7brzaHm/vcVDHZg9sGXIWL+nRGbHN6uL1ldVhodtmUm6PSRI8HJV8yphBA3DJVu00Loq5qBsJq6uftCNzg1ME63TChETWU+AODUqVN47ZXYAYCUEjsbd8I0DUACRw8fwS9+9l/oaO/A9TWRf3JFAX59ssfqW6MkE7oB4QsA4XDWz+mPxuPvxZz9m2HTY7Q0CuxyuMSKrZs2sU8yw3ElwBEwDPkD1Sa+CMAxVPrM/S9jz7WrUvf2YBiRhUdcLqsfRdord3/wI97V0RXXZzQtjPVrP7z6s9vtvvj1OBdnY2QVw4z8PoVzu3vNGfTiyv2/hU2LtQ+JPK3pyorGdQ3euE9MaYtdACOwc/MLzRLy2WjpLl8v8sIDKS2DCIa5Y2AcPhSDjaLFxH7JFEx2wGSJiwP8vBA5Xvk7wj7M2b8JjlDMafz9MM26tzc1tMV7XkpvDABGyJT4RwBRhwXP2vPbSFtxKvkDOTcyOVFdgQ+CpPKKke/XUFb+wWc7A7ldWWS8HB/g91H2cABz9m2GKxD9pUUCPlOYdzduXHvA6vJS8jAAGKGdG9YcB+TqaOmuQD+KvJ2JnDJxUkb6LHNwoFK8Tg5+0E05bdo05OXnjeg88xcs+OCcA9yqOVOJcDgn5/NHY9eCmLNvI9z+vljZwgpQ/+a6F3ZYXV5KLgYAo6BI83uIMVxo1t7NEEqKx1maJoTXn7ODloazs9MP34U1/BVVxU233pzwOcrKy7Domqsufv/a+cGEz0HWEmENYsAbmUVjshMHAOxaAHP2boQnduVvQIpHdqxfvdnq8lLyMQAYhe0b1u4FsClauk0LorTvXOoLYhiA3z/682ShsGFi87n+i9/fftedqJpQFffnFSHw8OOPwm6PjAHoDxt4rZUBQGaQl1T8AVb8l4i8+W+Gxx9z3RJTQjzeuKFhdbznpczCAGCUBMy/j5U+Y98WCDX1j1loOuALgE0Bl/vJoU4EjchzcTqdeOrP/hQV4yqG/ZyiqnjoicewYNHCi8d+fqQLgxrHXaQ7oekQg35W/EOI9PlvgscXcyqrlMCXmtY3PGd1eSl1uA7AKJ07drh50uy5ywUwdah0IU0Y7nx480Y+AC1ewjQj9b+dszsv5dNN9IV0fLwqsoBPXl4erq+9AX6fH+fOnRuyL7h62lQ8+cUv4Jprr7l47N0uP76z5zxStd8TjZ7QdAh/AAiF2cc/BGfIi7nD9/lDQP6fxvVr/tXq8lJqcSWZJFh6zwPXm6ZoRIwWlbeX/wHGahM56XQAbq4R8FFfXTgeT8z6cCA2MDCA/Xv2oqO9A6FwGKUlJbhyzhxMnjoF4pJpg2cGw3h823voCXLqZToSuh7ZpU9n60w07kA/rty3Cc7QcDv2im80rm/4jtXlpdRjAJAkS+pW/VQCX4iW3lM5A8dm3zRm5ZEOB+BhEPBRj84qw1fnV0JNYNOmNzt8+OrOc+gPs3JJN6z44+Px9+LKfZvhCA8zVkjim40bVv99fGelTMcugCQZt2jeGzYdTwAYcqF4t68XfVWzUrpE8KWEYUQWOmF3wIfs6wngldZBVLrtmFYQ+9+i1a/he3va8MMDbRfHEFB6EGHtg6Z+9snElD/YiTn7NsOuBWJlkxL4StMGbu6TS9gCkES1Kx94FFJEXSFQtzmxa9kTkGPVFwBA2uxAnis79w2QJoRuQDVNOLQAQnYPDLst7gWYqjx2LK8qwPwSNyrcdrhUgY6gjrPeMLa3DWJPdwAm+5HTh4yM6o9U+hzYF4/innOYdfhVqEbMrisphPiTHesa2OefY7KwVrDWkhX1L0shb42W3j5lId6bej3GdLS+qkLmeYAEmr3TlmFA6CacWhDlrYdRdWoXbOEP3myO3lCPnvJJ2XGvFGFKIByOrNrHt/24jTt/BNNO7ICIHcQaUuKzTRtW/8rq8tLY41/JJKu96/5qqMp+ROkKAID9NZ+Czz7GW8oqSiQIGIMpiUllGFAME6qpo6C3DWUth1DeejTmR9694ymEHI44L0BpyzSBYPjCOv2s+OMmJaacfgcTzu0dLqcBiM80rm94Np7TUvZhAJACNXWrviCAn0ZL1+1OvLv0cZhj3a8sBOBxQdrTcTc7CRgSwjAgpITd0JHfdx7lLQdR2n4qoSbfs1ffgZbJc62+IRopw4hU/Br3XEiUME3MPPY6yjpODpc1KCEfalq/5kWry0zWYQCQGmJJ3apNErgjWoauiVfixIyllhROupyAa2wGIw7JlBCmARgmFAA2Q4OnvwNFne+h7Pzx4XYkG9bxGx9FV/E46+6PRkRoGmQoDMER/SNi08O44uAWFPYPu1lfL4R5b+O6F7ZZXWayFoeIp4YUEF+QkPsBFA6VobzlCDomzMWAu3TMCycuTJuSHldqdiyUAKQBYcjIwC0AimnCpofh9vagoKcFhd1nUdDflvTBXIYrD72s/DPHhZ35ENYi+1pYXZ4M5fb3YfbBl+EK9A+TU54TwJ071r1w0Ooyk/X4+5ZCS+oe+KSE+E20dFO1YfeSx6Ar9kgPpzTHtqtTEYDbDRlrqqCUFyr0SNmElBdWWJMABBREKnfV1GELBeAI9MPp74fb24P8/vPI60/xjoiXGJi2CMcW3AqN/cXpT9eBkMZm/iSIjPR/Daox7NbGB22K7c5tLz0/BhuUUCZgAJBiS1au+qWUeDze/JrTjbCzAGF3PsKOPOhOD3S7C4bNDlOxQbc7IKFe/N4UCkxVhbxkEUIpBKQY+s1eMU28H2Uo0oQwDUinC6quA8KELRyCMCVs2iCEIWHTgrCHg7CFfXAEfXCEBuH0D8KmBeO5nRRT0D9jEdpnLEa/uwg6p+ylt/en8YW1SD8/jY6UmNC8D1Peezue3E26zah7a+3abquLTemDAUCKLbztsbx8Z2AXgNlWlyUbTL62FtcuvwktcOPHx3s5Tz8TGGZkGl9o2DdUipNiGphxbFs8g/0gBNaaTvFIU0NDII5TUw5hADAGlqx84FopxQ4AnJuWoClXX4dFy2/GlZOrUF3sgePCNEbdNLFs/RF4dQYAaUnKyA6V4TCX6U0yZ8iLWYdeQf5g17B5pZDfb7pmwV/i6ae5chJdhgHAGKldWf9FSPnvVpcjnU2onoYrlnwc02fNwOSKElTmOWGLMUhxw3s9+Kt3z1tdbLqE0HXIsBap/Nk6k3Ql3Wcw4+jrsOnDtqaEAPGHjesbfmF1mSl9MQAYQ7UrVv0nBD5rdTmsZrM7MGPuPFxxQw2mVk/FhJJ8FLvsUBOckaCZJpasP4IAWwGsZRhAWI+s1MdKPyWElJh4djcmnXk3nuytiiLv3/7Smp1Wl5vSG6cBjiGHN/+PwoXeRZBYbHVZUq2wuBCTp89C1Zz5qKyeinElRSjLc6HQYYPLpiRlbwK7ouCvF1Tim7uHnfdMySZNiLDOAX1jwBH2Y9ah36NgIK6f890KxL3bX1p91upyU/pjC8AYu7GufpoO+TaAslGfbIwVFRehYuZsFI8bj8LxE1FcWoriwjwUul3Id9rhsavw2CIVvDJGa/Hrhonlm45xq96xYJqRJn5Ng9A+mE1CqVPU24yZR16DXQvFkVs+6xgseHLr1l+kwxQdygAMACxQU1f/cQG5BVEGBXry8vDIH34RZePGQZdAyDChmRJB3YQhgaCuQzclQtrlO3z5ExhprdpUONUPdoRWFAG33QanqsKhCuTZVdhVAYcQKLArcDjs8LjdsNvSaxfp11v68NSbLVYXIzuZMrJCn6ZD6Proz0dxUaSBKafewvjWQ/F0q+gS+Kum9at/YHW5KbMwALBIbV39pwH539HSXW43Hv3jP8W08eVWF/UyDocDeW4XbGkSCJiQuHfLCbw3yGlmSXGh0kdYBwxW+mPN4+/FjCNbkeeNa8p+h6nIR958ac0rVpebMk96/AXPQeeOHdoz+Yq5HggsGSpd13Xsf/stVF65ABWFeVYX90MMw0AwFEJY06AIAZuanD79kRIQuKrEjYbTfVY/mgwlI3P1QxpEMAQRDEZW6pOcOTampMT41kOYdfhVOOPaD0O8phniE29tWL3P6qJTZmIAYKFzD3/y95PbOuYBGHLrOtMwcHjX26iYswDj0iwIAADTlAiFNYRCYZgSUFUFikWBQIXbjiO9AZz2shUgLqYZmaoXDEMEQhChMIRhcBS/RRxhP2YfegWV5w9HltuOzZACTzctnv/51p/9+6DVZafMxS4Ai82rr3cUBeV6ALdFy2O323HPH38FV0+qsLq4w7LZVLgcTjidjjEbCPi+vpCGmzYdh26yEhuSYQCaHqn4OXI/PUiJ8o6TmHqqCba4BvqhE8CjjetXb7G66JT52AJgsc5Dh4wJM65epyjGHQCqhspjmiYO72yCrJ6D6eWFCV5hbJmmRFjTEAyGoJs6pJRQFBViDFoGXDYVRTaBN9pHt51w1jDMSF9+KAThD0CEtchWu3zLTwvO4CBmH3kVVc37oZhxBWS/1wzxiZ0bV++1uuyUHdgCkCauX/lQpSq17QBmRssjhMA1j3we919zhdXFTZjdboPTbofDYYeqpi7uNKTEit8dR7MvB3eZMwwI3YA0DK7El+bGnT+C6lM7oRpx/ZwGIfCNxmvm/4hL+lIyMQBIIzfe8+BkzdRfF8C0WPmuvP8xPLJkoWX97aOlKArsNhvsdhscdlvSA4JjfQE88Oopq28ztaQJoZsfVPamyQo/A7j9fZh+bBsKBjri/IQ4AAOPNW5q2GN12Sn7sAsgjZw5emBg6ux5ayXkfYAojpav6/A+HEcerpo+GWoGBgFSShiGgbCmIRAMIRgMQ9d1GKaERGQ9gtF0GZS57PCFdeztzZL1UKSE0I3IPPxwODJSPxACNDbpZwpFGph4dg9mHt0KV9Abz0dMAD8u0n31r21+iYtcUEpkXu2RA2rvur8aqvI6gOpY+fI/dhO+cN8dKHVlXxynqArsqgqbzQabqkJVFaiKGvdPrG6YuGPLCbT7M6grQMrI6Hwz8mYP3eTI/CxQ3HMW0040whlfxQ9AnoaQTzSue2Gb1WWn7MYAIE0tvetTV5iq/gogJsfMOH0+Pv3og5hV7LK6yKknBFRFgU1VoKgqbBeCAkURUFUFH/1xPtEXwH3p2BVgSgjTAEwJqRsXKn0j8s7H5XWzhiswgGknGlHU2xzvRyQgf+ZwKf9na0NDvNEC0YgxAEhjS+vqp5iQrwCYFTNjUTlWPPkUaqryrS6ypSJdB8rF9QiEouKbu9vwStsYzQowZaS5XpqRr00T8uJbvbz4hk/ZTTF0TDy7B1UtcY/uByBPmgr+kCv60VhiAJDmrl/5UKVNalsksDBWPmmz4+rPfRmrZlfyH/USvSEDX3j9NLpDBiAAiQurFgokvnrh+03xUkKYAHDJwDuuPUAAyttPYMp7b8ER9sf7EQ3ADx2D+U9zEx8aa6wrMsB1991XZtPVTQCuGy5v0YrH8MWl81HgyL5xASN1sCeAr7xxBjrraEqRwr5WVJ/aGe/6/e9rgmk82bhx7QGry0+5ibVEBmg5ciQwbvaM52zStgACs2PlDR3bh9e7dUydVo1Sp83qoqeFcW47nKqCXZ1cIIiSy+Prxcyjr2PymV1whANxfUYCPgF8a6JLfP53L65pt/oeKHcxAMgQ548d025YNK9hUEc5gI/Fyqu0ncZbew8hMPlKXFnitrroaWFemRtdAR3H+9nKSqPnCnox9WQTpp7YAVdgIN6PSQDPQ4qVTRtWbz506BDbpMhS7ALIQEtW1P+5FPIfACix8klFwfgHPo8nr5sBl6rEefbspZkSX91xFge643tTI/ooR9iPCef2Ytz5IwkM8AMgsMuE+advrnthh9X3QPQ+tgBkoHPHDjVOmT33bQArAESd/yekhO/QLrzeHkDVlGpUuO1WF91SqhCoGV+AN1oH4dU4Gp/iZ9NDmHRmN2YeeQ0FA+3x7Nj3vm4pxF9Pcoont6xdc8bq+yC6FFsAMlhkrQDjJQBXDpc3WFCGWQ98Gp+bPx72Md6lL920+ML48htn0RPUrS4KpTlHOICq5n2obD2U2Bt/ZHT/T0Iu8a1dDQ39Vt8H0VByuybIAjW315cKh/w1YmwnfCl5wx347O3LMLPIaXXRLXWqP4Sv7DiLwTC3xaXLOYODqGo5kHhTPyAB8ZIhza/t3LDmuNX3QRQLA4DsIGrrVn0NwHcQR7eOXlSGxQ9+DvdfMQ62HP4J2NcdwF82nkPIYHcARXh8PZjQvB9lHScSaeYHAAiIHTDlX+3YuPoNq++DKB45/Oc/+yxdsWq5KfAcgKp48ivX3YYHP7EM88pyd6bAOx0+fGtnC4OAXCaBor4WTGjeh6LeEe27s18K/F3TutUNVt8KUSIYAGSZZfffX2VoyrMAboknv+YqQNW9j+Mzi6ag2JmbY0L3dQfw143nEGAQkFMUQ0dF+3GMbz0It79vBGeQhwF8s3H9mhfATRwoA+XmX/wsdvbwYe+5hz/5P5NbOwcg8HEAMVcDUvUw/AfexmvHziJQORVXFLtHtRVvJqr02DG/3I03WgehcUnfrOcM+TDx3F7MPLoVZV3vwa4lujaEPAkpvjrRrfzh79auPmj1/RCNVG79pc8xy+6pn2uY8n8AXB3vZzw1d+Dem5fkZLfAwZ4AvvFmMwY4MDD7XGjmH996CCXdI56Nd1BK/JPT2/Xc1q1bOYWEMh4DgCx35513Ovtted8C8OcA4loIQAoV7ts/hUdumIfphbk1W6DVF8ZfNjajxRe2uiiUBPZwEBXtR1HZehjO0Eh32BVvS5jfbVq/5iWwqZ+yCAOAHFFzT/0CYeI/AfmxeD+jOz2YVPcQHl48C2U5tK9AT1DHXzc1c9ngTCWBwv5WjG89jJLuM5HtmUdAQOwQ0vzH7RvWbAArfspCDAByyPLly23hwvKvQOLbADxxfzC/BHMfeBh3z5mC4hzZZdCvm/juO61oahvpWyONtTxfDyrajqKs4xTs2oiXe9Yh8KIU+FHTS6sbrb4nolRiAJCDalbUTxTC/B4gHkvkc2Z+IaaseAgPzJ+GcZ7sbxGQAH5zvBs/P9QFmeCccBobjrAf5e3HUdF+FG5/3JvyDGUAwC9gmD9s3PQCl+ylnMAAIIfV1tXfLCF/LIC5iXzOcBdg0l2fRN2iGajOd1h9Gyn3essA/undNgQ5TTAt2LUgyjpPoqzjJAoGOkZ7uuNSiH/zBV0/37flWe4XTTmFAUCOm1df7ygK4CkI+Q0AJQl9WFEx4ZaV+Ph1V2N+Wfw9Cpno9EAIf/t2K84MhqwuSk5yaAGUdr6H0s6TKBzoAEbXImMA+C2Af2lcv/plsH+fchQDAAIALL374RJTCf8FgD9FjB0Go1HmLMaiG2/GbdPKUZil4wTChsTPDnbihVM9VhclJ7gD/SjrOIWS7tPI83Yn45QtAP7HVG0/ffPF509bfX9EVmMAQB+y9O4HppsKngbEwxjBQlFmYTmqP7ESN8+dhitKsnMtgd83D+BHe9rg19klkEyKNFHY24rS7tMo6mkexbS9DwlJ4CVFiJ/vuGbeq3j6af6jEV3AAICGVFP3wJVCim9D4JMAlIRPIATy5y7G3NobUTN1HMa5s2vQYLtfww92t+HdTnYbj4Yz5EdJ1ymU9JxDQX9bojvvxXJQQP6nHY5nt67/dZfV90mUjhgAUEy1d983H4ryDUCswgiXjjYVFc6P3YJrFl+NpZNKUOrKjmBAAth0ug8/PdDB1oA42bUQinrPobi3BQV9rXCGkhpAnQHwvCKNX2/fsHav1fdKlO4YAFBcbqyrn6ZDfhnA5wGMuG3fcLpRcd1yLFy0EIsnZEcwcN6v4YdsDRiSTQ+jsK8VxT3NKOxvhSswqql6Q+kB5EZTwa/efGnNq+CAPqK4MQCghFy/8qFKVYb/GBBPAqgYzblMRYVr7rWYds31mD+xDAvLPLApmfsj+WabF/+8tw0dgRxdJl4CrrAXhT3NKBxoh2ewCx5/byqu1CuBdTDlr52+7le5Lj/RyGTuX1uy1J133unss+etFBJ/BqBmtOeTQkCrnIyJV9VgzqzpuKqyEJWeuLYuSCs+zcR/H+nES6f6YGb54kF2LYj8wU7k97ehYKATed4OqEbK6uIzgPydIrGh16387mBDAzdrIBolBgA0ajX3rKoVBj4HgVUACpNxTlNRoUy5EuULFmPa5AmYXZaPWcUu2DLkJ/ZEfwg/PdCB3VnRLSDhDPuRN9CJgoF25A12w+Prhk1P6ZoIEhC7BfCSNLCucVPDHqufAlG2yZA/p5QJFtfVeVzSeZ8UeALALRjJ7IEoDNWOUGkVSudeg8nVUzBrXDGqC12YkGeHItL3x3hnuxf/caAzMxYQkoBDD8Dt60X+QCc8vm64Av1w+/uSOTo/ln4h8HsJ8bJNqBu2vfT8OasfCVE2S9+/nJTRlqx8cIIJo15IfAaQi1JxDd3mQrBiEtyz5qOyagImlRSiusiN6gJHWnUfGFJi85l+/OpwF7pDFndXS8BuhuAIeOH298Lj64Y7MABnYBCuQP9YVfQXHw0E9kDiFVORrww6lG1s2icaOwwAKOWW3vPA9YaBR4UQKwFMSeW1pFAQcBfCLB+P/MmzkFc+DmXFxSjLd2K8x44Klx2VHjuKnWO/WmHIMLHhdD+eP96NnmBqAgEBCbsehD3khzPohdvXA1fAC0fYB0dwEK7g4Ii3x00CKYHDAvJ1KZWXw278fldDQ79VhSHKdQwAaEwtqXtgnoRYISDqJGQtxvBn0LDZEXLkQ3PmwSgqR/74iXAXl8KZl498twsFLhvy7XYUOlUU2lUUOBQUOlQUOmywCcChCjjV0fdqhHQT68/04/ljXegNxXjjloACE6qpQzF0qHoYNi0AZ9gPR9ALR8gLezgAmxaEXQtGvk5tv3yidAjshcQOKbDdKe2vcVEeovTBAIAss2TlgxMkjBWQciWAmzGK9QWSyVRs0O0O6KoTut0B88L/DZsTms0FoShwu53QVTtcTgcUoUB1uWBTI60KipQQpgkh36/cJRQj8rVq6FBMHaoRhhYOo6O9E0KaUA0dwtShGlqkotfDUI2Maw3vAPC2ENgBA9vtvvy3t279RdDqQhHR0BgAUFpYXFfncUvHLaaC5ZBiKYBrAGT+KkHZq0MCu4TALinlLrti38VBe0SZhQEApaXl9fX5Wgg1pjSXCoiPA7gOadJCkGN0ACcBcUBAHjIh32VlT5QdGABQRphXX+8oCBkfU6SyVACLJbAQwEyMcH8CuowO4AQgDgrIQ5DioKni0IADRzkynyg7MQCgjLX4ySftrvPdV5hSLBYCcwHMA/AxAJVWly1NBQG0CilOSWGeAsQpKXBKNcQpw4NDTQ0NAasLSERjhwEAZZ2aFfUTFQVzpWlOhRBTBeRUQKmWkNMAVCE7f+57AbQCaJHAeQG0AGiTUjSrqtlqMx0nOQKfiC6VjX8IiaK68847nYOisNpUjamQsloqYrwwZRkESgGlDEApIC/8H2UWFLEfQAiAFwK9kOgG0C0EeiDRYwrRLSR6INAjpNEtVXuntJutfHsnokQxACCKTiyve6gsrJpFimYWA4BUDLuhiHwAsBlwG4pwAYAwkQ9F2AFASBimkB/a91Y1ZVBXEQAAxVRMxUS/sCEgdTMIOHsDymBo1/r1fqtvmIiIiIiIiIiIiIiIiIiIiIiIiIiIiIiIiIiIiIiIiIiIiIiIiIiIiIiIiIiIiIiIiIiIiIiIiIiIiIiIiIiIiIiIiIiIiIiIiIiIiIiIiIiIiIiIiIiIiIiIiIiIiIiIiIiIiIiIiIiIiIiIiIiIiIiIiIiIiIiIiIiIiIiIiIiIiIiIiIiIiIiIiIiIiIiIiIiIiIiIiIiIiIiIiIiIiIiIiIiIiIiIiIiIiIiIiIiIiIiIiIiIiIiIiIiIiIiIiIiIiIiIiIiIiIiIiIiIiIiIiIiIiIiIiIiIiIiIiIiIiIiIiIiIiIiIiIiIiIiIiIiIiIiIiIiIiIiIiIiIiIiIiIiIiIiIiIiIiIiIiIiIiIiIiIiIiIiIiIiIiIiIiIiIiIiIiIiIiIiIiIiIiIiIiIiIiIiIiIiIiIiIiIiIiIiIiIiIiIiIiIiIiIiIiIiIiIiIiIiIiIiIiIiIiIiIiIiIiIiIiIiIiIiIiIiIiIiIiIiIiIiIiIiIiIiIiIiIiIiIiIiIiIiIiIiIiIiIiIiIiIiIiIiIiIiIiIiIiIiIiIiIiIiIiIiIiIiIiIiIiIiIiIiIiIiIiIiIiIiIiFLk/wfaS7ECW/01FAAAAABJRU5ErkJggg==;" vertex="1" parent="1">
          <mxGeometry x="605" y="185" width="35" height="35" as="geometry" />
        </mxCell>
        <mxCell id="33ZxRu888jDNc-60NQ5n-47" value="" style="shape=image;verticalLabelPosition=bottom;labelBackgroundColor=default;verticalAlign=top;aspect=fixed;imageAspect=0;image=data:image/png,iVBORw0KGgoAAAANSUhEUgAAAgAAAAIACAYAAAD0eNT6AABSoklEQVR42u3dd3hc1Z0//ve5d7p6syw3uWLcARNAsk1MCdUyzUropGzIJsvuZvPNZksaW5LsbvJNvrvZ3WRJdjcJ+yNkZWNwTQwEY2wJA8a9F1wkWb1Ov+X8/hhjDNaMZqQZ3Snv1/PwIN1z5t5zryWdzz0VICIiIiIiIiIiIiIiIiIiIiIiIiIiIiIiIiIiIiIiIiIiIiIiIiIiIiIiIiIiIiIiIiIiIiIiIiIiIiIiIiIiIiIiIiIiIiIiIiIiIiIiIiIiIiIiIiIiIiIiIiIiIiIiIiIiIiIiIiIiIiIiIiIiIiIiIiIiIiIiIiIiIiIiIiIiIiIiIiIiIiIiIiIiIiIiIiIiIiIiIiIiIiIiIiIiIiIiIiIiIiIiIiIiIiIiIiIiIiIiIiIiIiIiIiIiIiIiIiIiIiIiIiIiIiIiIiIiIiIiIiIiIiIiIiIiIiIiIiIiIiIiIiIiIiIiIiIiIiIiIiIiIiIiIiIiIiIiIiIiIiIiIiIiIiIiIiIiIiIiIiIiIiIiIiIiIiIiIiIiIiIiIiIiIiIiIiIiIiIiIiIiIiIiIiIiIiIiIiIiIiIiIiIiIiIiIiIiIiIiIiIiIiIiIiIiIiIiIiIiIiIiIiIiIiIiIiIiIiIiIiIiIiIiIiIiIiIiIiIiIiIiIiIiIiIiIiIiIiIiIiIiIiIiIiIiIiIiIiIiIiIiIiIiIiIiIiIiIiIiIiIiIiIiIiIiIiIiIiIiIiIiIiIiIiIiIiIiIqIxJawuABGNTm3dqmchMMfqciSbaaiPvbnxN4etLgdRtrJZXQAiGiWBOZBYbHUxks0G02N1GYiymWJ1AYiIiGjsMQAgIiLKQQwAiIiIchADACIiohzEAICIiCgHcRYAURaTdgf0siqrixGVve2M1UUgylkMAIiymF5WhZ7Hvm51MaKq/P6TVheBKGexC4CIiCgHMQAgIiLKQewCIMohlza5dz/+deiV1VGPu/e+gcItzwIAtPHVF7sSknWciKzFFgAiIqIcxACAiIgoBzEAICIiykEMAIiIiHIQAwAiIqIcxACAiIgoBzEAICIiykEMAIiIiHIQAwAiIqIcxACAiIgoBzEAICIiykEMAIiIiHIQAwAiIqIcxACAiIgoBzEAICIiykEMAIiIiHIQAwAiIqIcxACAiIgoBzEAICIiykEMAIiIiHIQAwAiIqIcxACAiIgoBzEAICIiykEMAIiIiHIQAwAiIqIcxACAiIgoBzEAICIiykEMAIiIiHIQAwAiIqIcxACAiIgoBzEAICIiykE2qwtARGNn4LbHLn5tFpbFPK5NnnXxuOnOv5ierONEZC0GAEQ5JLBoWdzH9dLx0EvHp+w4EVmLAQClTG1d/dcBc4rV5ch6EtVWF4GIMg8DAEodIe+DFIutLgYRpZfaez81Q+rG58ITSr+965lnNKvLk6sYABBlMXvbGVR+/0mri0F0Uc3t9aUwjI1CYLbzfM+yZfff/8k3XnjhvNXlykWcBUBERGNi8ZNP2oVD/i+A2RcOLTU0Zc+SlfffZHXZchEDACIiGhOO8z0/A3DLRw6Pk1LZUlu36i+sLl+uYQBAREQpV7ti1TcE8ESUZBuAf1iyctUvly//tMvqsuYKBgBERJRSNXUPPASBvx0un5R4PFzgffm6++4ri+e8NDoMAIiIKGVuqLv/GgHxcwAizo8stenqW0tW1s+OMz+NEGcBkCVO1qxA+xXpOUOw8tguzGjacNnxwKJlH1oxL53Y2s+g7Fffuey4t6wK+1ak7yyA2l/+jdVFoBRadv/9VYamrAPgSfCj06WUO5bW1d+7fX3DdqvvI1uxBYCIiFJBmJryXwAmjvDzZSbkK7UrH3jU6hvJVgwAiIgo6WrrVj0lgTtGeRonpPjVkpX1T1l9P9mIXQCUFhZueObi18eX3Y9AUTlKzxzBpP3bAACBonIcX3Y/ACR8fNYbL8Dd3wUAaF5wI3qqr4x5PB62njYUbvzPi9/3PPb1ER3Pa9oE54ndAIDQzKvhq7lrRMdH85xT/fyjHafsVXvX/dUA/iFWHj2vBKbTDUdP63CnE1LKf6mtWyUa16/+sdX3lk0YAFBayO/+YCEwRY+sDGoP+T50/H2JHnf3d108bg/5hj0eFy0Ee9uZUR9XB7svHtcrp4z4+Giec6qff7TjlMVsyg8gY/f7d97zp7AVlcP1yi9QcPyd4c4oAPxzzcp6pWldwz9bfXvZgl0ARESUNEtXrFoOiVWx8nTe8mk4SyqhKipCn/gsej62Ip5TCyHlj2rqVn3Z6nvMFgwAiIgoaUwhYk7t8FUvgDL7+ovfK0IA192Njts/H8/phQB+tGTlqr+y+j6zAQMAIiJKipoVq24B5I2x8gzc9AjEECsC2GZeg7ZP/hXiqZakxHdr6lZ9wer7zXQMAIiIKCmEQMz1/HuvuR3OvKKo6Y6KKTj/8LcgbfbhrwX8uLau/mar7zmTMQAgIqJRu+HuT80BcGu0dFOxIXzt8LMCnSWVaH/wm5DqsEGAHZBra+6pX2D1vWcqBgBERDRqimI8hRjL/fbecA/s9vj2+XEUVaDtkb+B4Rg2fyFM+VLtffeNs/r+MxEDACIiGpV59fUOAA/GyqPNqU3onM6CEnQ8+K1hgwABTIOublxcV5focsM5jwEAERGNSnFIrgBQGi3dO2MxHK7E62dnQQk6H/xmPGMCrnXC+XOrn0OmYQBARESjIoGHYqUPXnf3iM/tKChF2/1fiyfrQ0tWPPCHVj+LTMIAgIiIRmz58uU2SHwiWrrpyoO9ZPyoruGsmIS2uj8ZNp8U4v/dUHf/NVY/k0zBAICIiEZML6i4AUDUuX29i26JLPYzSo4pc9C1tH64bE4F4n+X19fnW/1cMgEDACIiGjEJeVus9PCM5L2Qi4U3Y2B2zXC5ZoSD8rtWP5dMwACAiIhGzASiBgDS5oStqCJp1xICCN38CMKlE4bL+tQN9zxwazznzGUMAIiIaESW3v1wiQCujZbeP+cGqEpyqxlVUdF9z59imOpLKKb4+cLbHsuz+hmlMwYAREQ0IlLVlgFQo6WHpsxPyXWdnkK01/3RcNmq8xyBr1v3dNIfAwAiIhoZiatiJZsVk1N2afuUueifuyRmHiHwf5bdUz/XkmeTARgAEBHRiJiQi6KmKTbYPQUpvX5o2YPQ3TGv4dBN+QOLHk/aYwBAREQjImIEAP5p86GI1FYxNpsNXXd/aZgy4s4lK+s/EecpcwoDACIiSlhkrr2YFi09NOGKMSmHo3IqBobZZ0BC/hOefpr13UfwgRARUcJCYbkQMeoQrXTimJXFv7QeMasziauWvHvg3rF7OpmBAQARESVMkXJWrHRZWDZmZXE4XOj8eMzNCCGBbyLGdsW5iAEAERElzJRKVax0xT22U/Dl3CXQPUUxMuCqmrpVI9+VKAsxACAiooQJyOjL8SkKbDbXmJbHpijouunRYcqMPxvTQqU5BgBERDQCImoAoOcVIwn7/yRMrZ4L3VMYK8vNNffULxj7kqUnBgBERJQ4KaN2AWgFY9f/fylVKOhe/kjMPMI0v2hJ4dIQAwAiIkqciN4FoBWUW1YspXo+DEes7gfx8PLlnx7b/ok0xQCAiIhGQERta9cLSiwrlaoo6Ft8V6wsReGCQQ4GBAMAIiIaAQk4o6a58y0tW3hOTcx0IcQjcZ4qqzEAICKihAnAES3NTPESwMNxuvPhmxJ9DyApcSe3CmYAQEREiYosq2uPmm5xAAAAg4tujZXsKnAFb7G6jFazWV0AIgBov+Kai1/rLg8AIFBUcfF4KK/4Ynqix3umzIGvrOpinuGOx0O6CxBYtGzUx8OTZiXl69E851Q//2jHKXPVHDzojJnBijmAHy1C1fSY6VKadwNYZ3U5rcQAgNLCyZq6y44NVE7BQOWUUR9vXnh5xRvreDyMwlIM3PbYqI8H596A4NwbRn08XkM952jHk/X8ox2nzGV6HXbVFoqeIQ0CALvdCf+EGfC0noyW5U6ry2g1BgAZonblqnesLkPCJOZYXQTKXKZiPlu7cpXf6nIkQpriO00bGtZaXY5U0yfnBdTzMQIA07S6iAAA74KbYgQAYvLSuvop29c3nLW6nFZhAJApJBZbXQSisSXmQFpdhgRLrCCxvqQMteuZZ7TaulUhRJkJoIR8VhcRAGCMmxoz3RSyFgADAKKxNGnfG6g8tsvqYgzJHhz6pdN5bDdK29Pzb4UID/025unvwsINz1hdPMpOg4gSANj8gzCsLh0AW35x7AwStQCet7qcVmEAQJZw+vrh9PVbXYyEKAEvlIDX6mIkVmZdQ373eauLQVlJegEx5JJ/qq8/LQIAVVERrJwGV/t7UXKIRfGea9n991dpOqarpjJVCjEVkOMAVACohEARJBwAhppa2C+BfgH0A+iRkOeEUFqElOeEKY9WeZQzDQ0NljwuBgBERDQCYjBaiurrtbpwF/mmLYoRAMjLFwt4+mllya79cwBRIyGvAcQCAAsMDUUKACkAfLRvapiuKvGhrwUgJSQAqQi0BGWotq7+iBByr2nKt4SQb4WqyvfseuYZLdXPhgEAERElTALd0cb62we6ELC6gBfopVWxkstr77tvnGrayk3TvF1CuRW7DtRKiOJI8pjMZnACcpGUWCSEeBwQcJzv8dXW1b8uYL6iKMrv3nip4VAqLswAgIiIEiYEWqK9+dr8AzBME6pi/YJAZv4w+xLo6iEDsixS2afHqFMB5AHyLglxl2FK1NatOgLINYo0G7ZvWLs3WddhAJAFNKcHofwiq4sxJFXX4O7vuuy4UVgK01NgdfGGpPgHoQ70XHY8E5+ztDugl1WN4Ixjw952Zsjj3jQus6e/C4qe8tbZ9GeiJdYLshEOQHVZv9qu8BQOl8WavYsTcyUgvm4K9es1dasOCeBXus34+Vtr13aP5qQMALJAT/WVURd4sVpe93ksGmIUuu+Gu4dcGS8duPe+gcItz152PBOfs15WhZ7Hvm518aKq/P6TQx7ft+LJBM80dhZueIYDKwFAyJZYTeTS1w+kQwDgcFtdhOTeDzAXwD/YdPVbNSse+C+7UH64bX3DeyM5l/XtM0RElHEExPFY6cpAV7ynSiklDbohUsQjhHhKhzxWW7fquaV3feqKRE+QtU+GiIhSRxpmzIFp9o4z8Z4qteUc642JhIDucEMfu5YHG4CHTNU4WFv3wH8sWfnghEQ+SFnko03BjU98GwAwo2k9Ko+9CyCy8cv7TdmpPh6vS5uCux//OvTK6g81xWvjqy82ZSd6vPTZ71zsax647bGLXQ/Rjo/mOSd6PB2ec6qff7Tj8bq0yf1kzQq0X7E4ac8/0eP0gcZNL5ytrVs1CGDIwTz5x96G93rru8ySsS2BVBQEC8rgLxqHUH4xQnklCOWXIOwqgO5wwXB6oDtcQwYbiq5B1cOwhfxwBAbh8PXDGeiHa6AHnr7z8PS1QzH0ZNyqDRBPSqk/Wrty1feLNN/3Nm/eHBrmA0RERAmTEjgkgOuHSnQMdELTwrDbHZYWUiQ6lU8IBArLMVhejYHKKfCVTECgaBxMdWTVpWmzw7TZobnyhtx1VEgTroFuFHaeQWH7KRSdPwlHYHAEV7rIA4lv99s8n6xZseqPmzasfjVaRgYAREQ0IgLYiSgBAACY/Z1A+URLyyjjmNoXdhegb8Is9E24Av1VM6E5PXGcOUnlEwoCRRWRbbNnXgsAcPd3ouzMAZSf2QdPX/sIzyzmCIFXautWbVAg/mioTY8YABAR0YgIyB0S4k+ipdvPn7A8ADCMoadshj2F6K5egK7q+Rgsn5IWWxi/L1BUgeaFN6F54U1w93di3Kl3UXn8bdhCI9occ4UJuXzJyvpHdqxrWHdpAgMAIiIaGWHfDhm9/zr/cBP8Cz5uaRGl9kEAIBUVPZPnoH3mx9A3YSbGaKW/UQkUVeDM1bfj3MKbUXFqL6qO7BhJq4BHGvqpjx5kAEBERCOyY93zrbV1q04BmD5UuqvzDPqCPjisXA9AC0HLK0HnnBq0TLsKmivfurKMgqna0T7rWrTPXIzyMwcwZc8WuAbjXgfoN40b1x746EFOAyQiotHYGCtRPXfY0sKpeUXofPRvcHbusoyt/D9ECHRNXYDd9/wZ3rtuJUzbsIMsTZjGd4dKYABAREQjZipyXaz0gt0vW1o+oShoDfphyvRY5z9ZpFAwUDF52GWpBeTzQ739AwwAiIhoFLTKstcB9EVLd3WeRTjgs6x8rQE/wqZp2fVTRkpMf2sDhtnAyDBM299HS2QAQEREI3Zh3/oNsfLYTrxtSdk6Qn74snTjpvLT+1DQGXu1RQH5mzc3/iZqHwwDACIiGhUp8YtY6WWNa6EnZ7W7uA1oYfSEQqM/URpS9DCq3/3tcNnCusTTMc9j9Y0QEVFma9qw+veAPBktXehh4PSBRE45KkHTQJuF3Q6pNvXd38Lp74+ZR0D+cOeGNbE3bLL6RoiIKONJSPFsrAyl256HKVPfF6+bEi1+L7Kw1x8AUNx6DOOP7RwuW7uuu743XCYGAERENGqGYv8pgEC0dJu/H3rLiZSWQUKiJeCFlo2D/gDYg17M2rE6sgtD7AfxVzs3/38Dw52PAQAREY3aznW/bpcCv4yVp+J3z6R0LEB7IIDAGI81GDsSMxtXwx70DpNPvNl47fxfxnNGBgBERJQUdin+CUDUGlgN+qDuSc26AL1aCH1adg76A4Bpb29EScuxmHkk4FMM5Qk8/XRcTSAMAIiIKCm2rW94Twg8FytP2ZvrEPb2x3vKuPh0HR2BwOhPlKYmHN6OqiONw+ZTgC9v3/SbY3Gc8v38REREyWGa4q8lEHMIftGr/520lfmChoEWvzeubX8zUdnZg5j6zuZ4sr60Y/3qnydybgYARESUNE0bGloUiH+KlcfdfBTy4BujvpZummgJeGFmaeVf0nwEs7b/Bhj2/uQ5B+x/kOj5GQAQEVFSmS58H8DZWHkqXv81Qt2tI78GJM5l8Yj/ivd248rX/wfK8IMaBxVp1m1d/+uuRK/BAICIiJKqqaEhIIT4Awzz6jq+4R8Q9g+O6Bqtfh9ChmH1rabE+GM7MWv7aojhgxtDCPHo9g1r947kOgwAiIgo6Xasa3hZCPx7rDzC0FC25h8RDgcTOndb0A9vFq7xL6SJaW9vwPSdL2H4Zn8AwJ/tWNewLp6MQ2EAQEREKRGUoa8BOBorj32gG6W/+S60OKfw9YSC6Atn33Q/h38A83/3s7hG+1/w3cb1q388mmsyACAiopRwwj4PwLBt/I6BTpQ+93cIDbPIzaCmoSOUfdP9is+fwKKN/zrs7n7vk5B/27h+9ddHe12b1TdORETZpfau+6uhir8DxKMARDyfsXu7UfTbnyNwz5chhvhEwNDRGhhuFbzMYgsFMPXdTRh38t3hl/e9QEB8u3H96r9NyvWtfgBERJQdrl/xwCxF4C8A8TgAeyKf7Z+/HOEb66EOUfmHTQPNfm9WTfYraT6CGTtfhMM/7JL97zMh8LUd6xr+b7LKwACAiIhG5fqVDyxUJb4KiIeQYL1iKjZ03PkF2KfOgzpEY4Fmmjjn98JI0sJBVivsOIMpu7egsOO9RD42KCEfb1q35sVkloUBABERJWzxk0/aHW0990LiS0Ji+UjOEaycir4VT8Hhyhsy3ZDZM9c/r6cFU/a8POx6/kM4bprqPW9u/M3hZJeJAQAREcXthnsfnCoM7TPifM/nAVSN6CRCQcfNj0GZfT0cYughAiaAZv8gwhk911+itPkIxh/dieLzx+Pu5//g02K9atqfaNz4XG8qSscAgIiIYlpcX1/kCMh7FIjHpKHfAoi4BvYNxTvjKniXPwaHyxM1jwTQ4vcikKGVvz3oxbiTu1F57E24vCOquwcgxJ83rWv4GeJcEGAkGAAQEdFllt79wHRDVeoUEytkUC6DgHM0G+5oRRXo/sRn4aicCscweVv9XvgybKEfW8iPkpajKDtzACUtRyHkyLotBMQOU+DTTesaTqS8zGP+lIiIKO0svfvhEkMN3ypM3AGBO0xggpAScsTv+hG6uwDdNz0Kdep8OMTwS8+0Bf0YzIDKX5gGCjrPoajtJIraT6Kg4+yIK30AEEAbgG/uWN/wn0jhW/+lGABkmXB+EU7WrLjseOf0RfCWTQAABIoqxux4vAZue+zi12ZhGQBAmzzr4nHTnX8xPdHjvuvvgnJh/rA2edawx0fznBM9ng7POdXPP9rxeDUvuBH2UGR32YHK6qQ+/0SPZ42nn1Zqdu2/AlJcB8iPCSGuMxFeLOSQA/FHxLS70fnxT0HMuhZ2RY3rM52hQJqu8ifhGuhGXu955PWcR353Mwo7z0LRw8k4eVBK/Ego4e/tWLduZBsjjFCS/qkp1WrrVkWNCNuvuAYna+qsLuKQ8rrPY9GGZy47PnDbYwgsWmZ18Ybk3vsGCrc8e9nxTHzO2vhq9Dw26gXDUqby+08OebzxiW9bXbSoFm54Bvnd54dOFOILjesanknsjKlVX1+vtmjKVKmbCyOVPa4HsBhAUSqup+WVoHtpPdTpC6HGWfEDQG84hPagP+HrlZ09AFO1Q3d6oLnyobnyYNiG62T4MFUPwxYOQA0F4AgMwOXthdPXB6e3F05vLzx97VCTU9l/6FEJgV8biu3bb774/OlknzwebAG4xLI76yukgilWl2Mo2brfNRGNzuL6+iK7ppbYpFZpmpgkISYDmKIITDUlZrcE5UzAcIx82F58/FUzMVBzH2zjpyHRi/WHwyOq/N39nZj9+nOXJwgB3e6CFAKGwwUpFBh2J1Q9DGF+MLBQ1UKwhQKjarofyaOSUv6XMOUPdmx6Ib61f1OEAcAlDBueBOTfW10OIspQUv517cpVT47+RNHODxcA94XvCgGUIChVQId5oUH3/apXyrFo4lXQv/Am+Bcuh7OofNjBfUMZ1DScD/pGdPXK429HeU4StnBkzwB7KPHAIjXkOQn8t7CZ/9a0dm2H1aUB2AXwIbV1D/wHIFL3y0tElAV8U+ZicOEtUCZeAZtt5O+Rg5qG1oAPI5ldIEwD1675B9hHGDyMkRCAl6XAr5wDXWu3bt2qW12gS7EF4BISYjIjIiKiywUrp2HgqlsgJ8+B3ekZ0dv+pQb1kVf+QKTvP00rfy8gfieEuV4YznXbU7SITzIwAPiwaqsLQESULnxTF8A7dynkhFlwON1JqzAG9TBaA/4RV/5AjOb/sWcCOCgEtkFio30w/7WtW38RtLpQ8WAAcAmB9BwASEQ0FrSiCgxcWYPw1IWwlVRCVW2JbekXB6+mjbrydw90o6g9oc10kqkDwH4B+bYUynbFsDem81t+LAwALqi5vb4UkIlPUiYiylCB8dPhn341tIlXQJRUwm53QgBwpuh6Xl1DS2D02/pWHn8r4XX1EyGANgk0C4Fz0pRnIXBKSnFQ2I39jWkygC8ZGABcoNr1ySbin7NKRJQpDIcHgclXIFQ5DVrFVMiSStg8BVCFAgGMuj8/Hr4kVf7CNFBx6t3hsm0QML9jKCJfmMIFAbeQIg/StEtF9F2aUYHoM030q6bSp9mU/lKtr2/z5s3puBpR0jEAuMAUtrIxWn2RiChpDIcHWmEZjPxi6IUV0IrHwSgsh5lXBLgLoLryYFMjf+rHqrL/KJ+hodk/+sofAMrOHhp+8J8wv79j3QtvWnCrGYUBwAVCyOJYLUrnFt2K3omzR3WN0opJsNlT1bhGRNlOKAqEUC9+rQjlsn35lAv/pQu/oaPFl5zKHwCqjjQO95QONK574Q2r7zsTMAC4QJooirUqgrdsIrxlE0d1jXJ3ARwquxmIKDf4dR3NAS+Stc5efncLCjpjL54nIP8ZbM6NCwOAC4SQxTJGBKC58pJwDavvkohobFwc8JfEqnjCoW3DZekNIvRcPOciBgAXSSGKYsWMmisJEwQYkxJRDhjQwjgf9Ce18nf4B1B25mDsTBI/27Vhfbqs/Zv2GAC8z5TFsV7RdYc7gZNFwRYAIspyfeEQ2kawsc9wqo40Drdpj2ET4qdW338mYQDwPhF9a8z3d5Ia/SWIiLJXrzayLX2Ho+gaKk8Mt/KfWL9tfYNlqwNlIgYAFynF0drozQT3liYiyjXdoSA6Q4GUnLvyxDuwDX/uH1v9DDINA4CLpCdaimFnAEBEFE1nKIDuUKqWv5cYf7QpZg4B7NuxvuE1q59Dpkmn6aKWElJEfRaGLTmrYZscBEhEWaYj6E9h5Q+UnjsM90BXzDwmxD+Cw6wTxhaAC6SQUbvok9UFYPLnk4iyyPmgD/3hcEqvMWn/1pjpEnjPOdj5v1Y/i0zEAOAioUQLIKVIzuI9Zgo3ryAiGisSQGvAi0FNS+l1SlqOIb+7OWYeAfxg69atutXPJBMxALhAQkadBBijdyDBaxARZTZDSrT4vfAbqa9zJx4Ytlu/Q7rEf1v9TDIVA4ALRIwWgGQt4ccWACLKZLpp4pzfi5BppPxaRW0nUNgxzLK/Av+vsaEhNVMPckDaDAJcfu+9xdfdd1+ZZQWIMQYgWS0ApkzWithERGMrZBo44x8ck8ofACbvHfbtf8Cu6D+x+rnE47r77iuztH6LIm0CgAq7fdCmqeuW3v1wiRXXjzULACI5b+4GGwCIKAMFDB1nfV5o5ti8xBS2v4fCjmHX9PnJ1hdf7LP62Qzn+jsfKbTp6qagLz91UyVGKG0CgIaGBkMKqKYIb1h+773FVpfnUsJITsSrj9EvD1nD1nwY7t0vW12MrOPavQW21uNWFyNnDWphnPUNwhjDFszJ+38/XJagajf/2dIHE4eldz9coqqhzQAm7tvyrM/q8nxU2gQAACCAAQjUhg37G9ffef+ksby2hIy6fqWSpCYvnV0AWUsYGjw7XoC7aS2ch4fbr5zi5Ty4HZ6mF+FpXAuMUdMzfaA3HERLwDemA5gLus6i6PzJ2Jmk/I83XnjhvKUPZxjX33n/JFPRtkGgFpCpnS4xQmkVAEDiwp67cr5qV5pqVtRfN3aXxmC0NJG0AIB9ANlISBOeV34JW1czICXyfv8/cO3jomSj5drzKvJefw6QErb295C37XkkdXs5iqkrFER7cOzH103ZE7sVTQI+Q3F8z6rnEo+aFfXXqXalCZDzI0dEpdVlGko6BQACAtMuficxSQj5xpKV9U+NzcXlQLQ0JUnTXVLWBWDq8Lz5IpTBntScn6ISWgj5m34K54ldlxyV8Lzxv/A0rh1u9zIagpAmPDvWwLNj9YcqfOfB7cj7/bNsCUgxCYnzAT+6Lll73zXYg+p3f5u0v4XRFLceG/btX4H88c51v263+jlFs2Rl/VNCyDcgcWkrtntpXf0Uq8v2UWkzDbBmRf3HAFn1kcMOKeWPa+tW3S6l+MOmDQ0tqSuBiNoCoGqhpFzBSEFDmuLtRf5vfw5b+ynYzx5E/31/DnDvgjFhaz+FvFd+BbVv6L9Frt1bYOs8C+9tn4XpLrC6uBlB+AeRv+U/YW85OmS680gT1N42+G59AkZxWr5UZTRDmmjx+z40x1/VQrjytV/B09+BoraTOHbjQwjml6bg6hLVu7cMl6nfDCvft/o5DWXJygcnmNL4qZSybqh0A/KTAH5gdTkvlZwl7pJgyuw53wLE4ijJVwiBz06+cl7vuYc+uRtbtya9Jp08e84SQNw4VJqQJpoX3JSU6xTbXVCSsa6AacB5aAcKfvdzqP2RCkjxD8DWehza9KuAJO1fQJdTgj64m9bCs/V5KEFv7LwDXXAcfQtmcQWMkvFWFz2t2U/tQeHGf4fa0xozn+Lrg/PQDggA+rhqQEmbP2MZLWwYOPuROf72oBdzX/1v5PW2AQAcgUGMO/kupKrCWzYxsoBqklSc2oPxx3bGzCMgvte4qeG3Vj+rD3n6aWVJQfnnJMwXBbAoRs5JMyeMe+b06dNp0yyYFr85N9Tdf42A8hPE7pJwAaibfL7z3olz5pxoPnr4VDLLMHn2vI8BuHWotEgAsDwpP+wFdjvsyujO4zhzEPmb/wPOI00Q+ofX4Va9vXCcPgBt8hxIV14yH1HOE0Ev3LtfQf6Wn8PeegIizhYdoYXgOP4O1L4O6OOnQzpcVt9KWlF8fcjb+j/w7FwPEWdrm5Am7C1H4TzyJmBzwCibwEBgFHy6huaA90PjlPJ6z2PuK/8FT3/Hh/Iqpo7i1uOoOL0XmqsA/qJxo14sTZgGZm97DrZwzDEH3YbufKjlxP7kNMkmQW1d/c2T2zrWAHgSkToq+j0CFYbLM3Du6KGm+M6eeslZ4m4Ult79cImpaNs+GCwRd9Ffk1J+p2nD6leTUY7aulVfAvBv0dLf/uQ3oDk9CZxxaOPdHhTbnYl/0DTgPLUHzn2vwTbcCFkA0u6Av/Z+hObdmLSVDHOV2tMK1/5tcB5pAvTRbXwi7U4Er7kdwatvhVRzvJVGC8O9+2W49myB0Eb3XE13AULzP47QvCUw84qtvrOM0hcOoT0UgLxQ+QvTxMSDWzF532txDYD2lVSh7coadE5bBHOEP9NVh3dg2jsbY+YRUnxtx4aGtGj+X7pi1XJT4JsAbk7kcxLwQchlTevW7Lb6HgCLA4CFtz2Wl+8IbIlMkxixtwDxr47BvIatW38x4oUWalc+8CikeDZa+u6Vf4ZAUcWo77nU6cI4pzvu/Iq/H45DO+A6sA2Krz/h6+mV0+CvvQ/6hFmjLnsuUYI+OE7sguNIE2ztp5N+fukpQOCqTyA0/0bIkQSEGUxoQTj3vw7XnlehBAZHf8JLSKFAnzIXoTm10KbOZ5A1jM5Q4IOtfKVE6bnDqN7zO7j7OxM+l+50o2PGtWi74joEC+Jf9E7Vgli89gewhaLOxIYA2oIIzdi1fr0/7hMn2bz6ekdh0HxAQPwxgJpRnKpDCHHjjnUNR0dxjqSwLAC4sa5+mi7kC5C4Kkmn7JLAs4qQz+1Yt+adRD9cs7L+DiHl5mjpBz/xB+gfP33Uhcy32THJkx8zj+Lrg+PkHjhOvgtb6wkkYxshbcpcBBfdAm3yHLYIRKEM9sB+9iCcJ3bD1npsTEabS1c+QnOXIDj/RpgFqRhYlT7U/i44Dm6D63AjRDD1a6JIuxNa9QKEZ14NbeJsdoldwoREq98Hr65BSBNlZw5gwuHtyO9qHv3JAfhKJ6K7eh66pyxAoDB2MDBl9xZMOrA1Zh4h5Rd3bFjzUyueVe1d9VcJVT4igccBjEvSadslxKea1je8bsU9vc+SmqBm5ap6IfETAKlZG1nIYxJ4SUjxSgih7fFEjcvuqZ9rmPJgtPRjyx5E19SFoy6aQ1EwPb/ow8U1dKjtp2FrPQbHmYOwtb2HVO0daBRXIjRvGcIzr4GZb8mqy2lDCfpgbz4CW/MR2M4dgTrQZVlZLr65zr4e2vRF2fPmqofhOLUXjmM74ThzCNbtiSmgj5sCfdKV0CbNhj5hZvY84wRppolmvxdqTyvKz+zDuOPvwJHklphL+Ysr0TvpSvRXTsNgRTWMS1q8nL4+XL3u/0GJ0bUmgUPOwa5FY7Xl7/Lln3aF8r1LANwCgXsEMDdFl9Ih8HXHQNcPrdrOeEwDgNp7PzUDhvkvgLxrDC8bAkQjgFcFjFcL9cDuzZs3XzaIZHl9fX44KKP+Frx37d04P2dJUgo0RxWwdbfC1n4KtpbjsLWfgtDH+t9fQJ8wA6HpV0OfPBdGaXaPUBfShNLbBlvXOdg6zsLWegxqZwvScZNmaXdBq54PrXouwlPmQXoKrS5SQhR/P+xnD8N+9gDspw9CaGm3BDqkzQZ9/AzoE2bCqJgCvXxy1gfEQprQ204hfHIvSs4cgKevbczLIBUFvtIJGBg3DQMV1Rh/4i0UtxyL/RlT3tG0cc3vUlWmefX1jhI/FpiqvAUStwJYCiD+ftpRE3sh8cXGDQ1jPjhwTAKAG+59cKowtG8IiMcBWB126wBOQmA/TBwAxEEpzAO+kOdcvjPQDKB4qA+1zFuGM9fcGfdFVC0Ep78fDl8fnL5+ePra4OlrR17vedhC6bd7pVlQGnkzqpwOvWo6zJLxSdsFcczpYai9bbB1NcPWeQ5q59nIKn2jHMBnCSFglE+ENmUetMlzoVdOh7SlzfIdkSLqOmztJ2E/exi2swdh627JyBX7THf+hWBgSuT/FZMi3TIZOrtA6DrUrrOwtb0HW9tJ2JqPQEnDvz3D2Ni4fvWKZJyopr7ejRAmQprzBZR5gLkAUOYBcjasr5ckJNYrUvzt9o0Nu0Z/uvikMgAQtXX1NwH4EiDvQRotOhSNFDCFHHoqYqBwHDqnLYJUI8nClFC1EFQtCNUIQ9E02LQA7AEvnL5+qGn41pPQs7C7YJSOh1FUCbOkEmbxOOhFlTBKxgE26xcaUgKDUAa6oPR3QRnohNrfBaW/I/J/f+KDJTOGosIoroQxbgr0skkwKiZBL58MmYQZKvEQIT9sXeegdjZH/t/VDLW3LXtX51NUGPklMIvHwSysgFFUAbOoHEZhOYzCirRYdEsEvVD7OqD2dUDpbYfa3x75vrcdMC1pWU7q3QHytATaBEQfhPRBSh8gegWEX0KGAEAAqgQuNpVJKfOEUKoAWQmgAsAEABmxGpeQ4hUo8if2ga51qe4aSHoAUHvvp2YIw3xECvMRSHFFKgtP1jDzS2AWlMJ05kG68yFd+TDd+ZDuAkinB6Y7H1BskKoK2D7o75M2O+QlCxSJcADClEDYDyEv/N+UEFoQQgtBCXgh/P2R/wcGIfwDkYo/4M3eCmeETE8RzIISyLziSIWVXwIzvxgyvxRStUPaHIBqg3S4IBUF0hFp4Yz8G5gQ4SBg6JF1JfQwFG8vVF8fhLcXqrcXwtcHZbA3u4OrkbA5YHgKIN1FMD0XfhfyCiHdhTBd+YBqg+l0QQgV0u6KtN6ojui/C+/TLnyvh6AEvRABL5SAD0pwECLoi/wXGIQ60DUmAyrJEi1SyOcA/DpV0wZHHwA8/bRSu2vfYgmxQghxNySuScp5iYiICACOAtgAiE39Lmw/2NCQlP7MEVXUNbfXlwqHeROkuAsCdwPgotxERESpNyiBlxVgs4DYsn19w9mRniiuAGDJypUFhrBfr5jiVgjcComrkV47CRIREeWi8wLYLoV4RUhzx471a+KebztkAHD9nY8UCkfwOlb4REREGaVdANtMIXaoBrZv/9i83Xj66SE3ILosAFh422N5Hqdvts1Uc68f36bapGm8ISGHnBJyct4tCDiSN5BU5udxtAQRjZowDCAQBmTabDQ3pDxvN6Yd344YL6gvKab4O6vLmVUUdEbrJmD18xG1dfV7ADnklo7vzV2O9vKZybuYxw3psHr6KRFlMhEKA4EQ0nFRq0sppoEF766B2z8QLUu3A/Yrt67/tXVLcuYYNut/hBByb7S0os7TSb2WHPPV/4goa0gT8PqBQBDpXvkDwMRzu2NV/pASX2HlP7bSfnGesSaBfdHSinqSs1HG+4SuQ0KCDTFElBDdhPD7ATO9m/zf5/H1YMLZfbGyvN60YfWz8Z6PkoMtAB9hxmgBUA0dqkhipG1KwMiMX2AiSg8iHIbw+TKm8hfSxPRj2yCij08Im6b6RWRCM0aWYQDwEfawsjdWuiOU5FW3wuwGIKI4mBLwBgB/MKP2Wph0ZjfyB2O07At8782NvzlsdTlzEQOAj3hjc0MngPPR0gsHkruDltA0q2+ZiNKc0HUIrxdCz6y/F3neLkw4F+udShwo0nzfs7qcuYoBwBAkEHVbxvKWI8m9mGkCBte1J6IoAsHIm7+ZOW/9QGTU/4yjMZv+dSHMzwy1PTuNDQYAQ1CEeC1aWkF/G0Syx+yxG4CIPsowIAa9kWl+Gdg9Pvn0O/D4eqJnkPj7HevWvGN1OXMZA4ChSPO1WMl2PbkBqwhn4D71RJQyIqxBeP0ZO0i4sL8NVc37Y2XZHZpQ+l2ry5nrGAAM4cJayu3R0ov6zydwtjhICaGxFYAo510c6BfIqIF+l7LpIcw4sjVWlpBUxBO7nnkmswY0ZCEGAEOTEng9WuK45gPJvyBbAYhyWqYO9PuoGce2wRnyxrhRfKvppYb98Z+RUoUBQBRCiK3R0gr62qAkeRyA0PS0X8ebiFIkEIys6pdhA/0+qrL1EEq6zsTIId6c6BT/1+pyUgQDgCjkMOMA3MH+5F80lNmRPxElSDcvGeiX2Ty+HlSf2hk1XQI+xVCeaGho4LSnNMEAIIqm9WuOAGiNll7edjzp1xShcMb2+xFRYkQoDOH1ZuxAv0spho5Zh38PxYxetytC/tH2Tb85ZnVZ6QMMAGKSW6KljGs+iKTPB+RgQKLsd2F6X2QTn+ww7UQT3P6+GDnkszvWrfml1eWkD2MAEJN4MVqKamhwaoHkXzJD5/wS0XAkEAxCDPqy4q3/feXtx1HRfjRWlhNCaH9kdTnpcgwAYpAusUUCURf/H9ee/G4AGAaExi4yoqxiGBADPohg5vf1XyrP243px7fHyhKSQn5yx7p1g1aXlS7HACCGpoaGgIB4OVp61XvvJr8bAACCmbG/NxENRwKBC2/9GbJ7X7xsehCzDr0Ss98fwFea1q3ZbXVZaWgMAIYjzDXRkhRTg0vzJ/+ahsmxAESZTjcgBvxZMcL/o4SUmHV4K1zBWC/2Yk3j+tX/bnVZKToGAMNwOJUXAUSt5ce3HEzNhYPcH4MoY/mDEF4fYGZnd96U995GUW9z1HQJvOdQtT+wupwUGwOAYWxtaPBCYl209Mqz+yBECh6jYXKPAKIMIzQdYsCb1b+7ZZ2nUNUScyG/gGqK+q0vvthndVkpNpvVBcgEQhG/llI+OGSaNFHg68SApyz5Fw6EALs9NeMMCBM8dtw0oQDzStwod9nhUgW6gjrOesPY3ubFu91+mFyXgeJhSiAQALK86y5/sAvTj22LtV6JhMBnt29s2GV1WWl4rFniMK++3lEUlOcAjBsq3Vc4DvuvugepGLgnXU7A5bT6EWSVWUUufHn+ONw4viBmvvN+Df9+uAPrzvRl+gqtlEIiGAJCoawft+sI+TF/z4twhKKPe5JCfr9p3ZqvWV1Wio9qdQEyQeehQ8akK+eMExBLhkp3hHxom7IIZgq6AoRuAg62AiRL/bQS/LhmCqYVDB9UFdhV3DyhENdX5GNbuxcBPbtGcdPoCM2A8Puz/q0fAFRdw9z9G+EKRB/0J6R4ZaJLfObQoUNZHgplDwYAcZo6Y+EZqcinEK3VxO5Af2Flai5uXAgCaFT+fNF4/Mm8SiiXBFP9/X14Z+db2PX229j11ts4fuwEdF1D5fjxF/NUeey4ZUIhftc8gEAWLeBCIyQvTO0LBnNi6W4hJWYd+T0K+9tiPZTTDmG/fdPa3/jiPjFZjq+VCaitq38dkDcOmSgE3vr4H8BMVVuxxw3JIGDEPjm9BN+8esLF770Dg1jzv2vQtH37h/r5VVXFV/7iq5g1+4rLzrGn24/PvXEGYQYBOUuEwpEZOjlQ8b9v6olGjG89FDVdAj4oooZb/GYezgJIgJCIPqdVSpT2nk3dxQO58baRCuPcdvz5wqqL33e0d+C7f/cd7HjjjcsG+V17/XVDVv4AcFWZB4/OKLX6dsgKhhFZzCfHfg+rmvfHrPwRGfT3GVb+mYkBQALs3s41AKLW8lMPvQ4oKWpUudDsSIn70twKuNTIv0swGMS//uhf0NXROWTe6qlTYp7rc7PLUWBnz1nOMGVkTv+gDzCyc05/NGUdJ2Nu7wsAEPjLpnWrG6wuK40MA4AEbN26VYfAv0VLt2lBFPp6U3Z9EdYgNM3qx5BRHKqCOyYVXfx+y6bfou38+aj5m881xzxfoUPFLRNjzx6gLCBlZLveweye0x9NYV8LZh59PXYmiZ81rlv9T1aXlUaOAUCCHIr+DABvtPTpB18GUrEw0Pv8QUCyDzpe11d4kGeL/HuYhoHXXv19zPw7G9/EqZMnP3QsHA5j/959F7//+HgGANlLQoS0D7brzaHm/vcVDHZg9sGXIWL+nRGbHN6uL1ldVhodtmUm6PSRI8HJV8yphBA3DJVu00Loq5qBsJq6uftCNzg1ME63TChETWU+AODUqVN47ZXYAYCUEjsbd8I0DUACRw8fwS9+9l/oaO/A9TWRf3JFAX59ssfqW6MkE7oB4QsA4XDWz+mPxuPvxZz9m2HTY7Q0CuxyuMSKrZs2sU8yw3ElwBEwDPkD1Sa+CMAxVPrM/S9jz7WrUvf2YBiRhUdcLqsfRdord3/wI97V0RXXZzQtjPVrP7z6s9vtvvj1OBdnY2QVw4z8PoVzu3vNGfTiyv2/hU2LtQ+JPK3pyorGdQ3euE9MaYtdACOwc/MLzRLy2WjpLl8v8sIDKS2DCIa5Y2AcPhSDjaLFxH7JFEx2wGSJiwP8vBA5Xvk7wj7M2b8JjlDMafz9MM26tzc1tMV7XkpvDABGyJT4RwBRhwXP2vPbSFtxKvkDOTcyOVFdgQ+CpPKKke/XUFb+wWc7A7ldWWS8HB/g91H2cABz9m2GKxD9pUUCPlOYdzduXHvA6vJS8jAAGKGdG9YcB+TqaOmuQD+KvJ2JnDJxUkb6LHNwoFK8Tg5+0E05bdo05OXnjeg88xcs+OCcA9yqOVOJcDgn5/NHY9eCmLNvI9z+vljZwgpQ/+a6F3ZYXV5KLgYAo6BI83uIMVxo1t7NEEqKx1maJoTXn7ODloazs9MP34U1/BVVxU233pzwOcrKy7Domqsufv/a+cGEz0HWEmENYsAbmUVjshMHAOxaAHP2boQnduVvQIpHdqxfvdnq8lLyMQAYhe0b1u4FsClauk0LorTvXOoLYhiA3z/682ShsGFi87n+i9/fftedqJpQFffnFSHw8OOPwm6PjAHoDxt4rZUBQGaQl1T8AVb8l4i8+W+Gxx9z3RJTQjzeuKFhdbznpczCAGCUBMy/j5U+Y98WCDX1j1loOuALgE0Bl/vJoU4EjchzcTqdeOrP/hQV4yqG/ZyiqnjoicewYNHCi8d+fqQLgxrHXaQ7oekQg35W/EOI9PlvgscXcyqrlMCXmtY3PGd1eSl1uA7AKJ07drh50uy5ywUwdah0IU0Y7nx480Y+AC1ewjQj9b+dszsv5dNN9IV0fLwqsoBPXl4erq+9AX6fH+fOnRuyL7h62lQ8+cUv4Jprr7l47N0uP76z5zxStd8TjZ7QdAh/AAiF2cc/BGfIi7nD9/lDQP6fxvVr/tXq8lJqcSWZJFh6zwPXm6ZoRIwWlbeX/wHGahM56XQAbq4R8FFfXTgeT8z6cCA2MDCA/Xv2oqO9A6FwGKUlJbhyzhxMnjoF4pJpg2cGw3h823voCXLqZToSuh7ZpU9n60w07kA/rty3Cc7QcDv2im80rm/4jtXlpdRjAJAkS+pW/VQCX4iW3lM5A8dm3zRm5ZEOB+BhEPBRj84qw1fnV0JNYNOmNzt8+OrOc+gPs3JJN6z44+Px9+LKfZvhCA8zVkjim40bVv99fGelTMcugCQZt2jeGzYdTwAYcqF4t68XfVWzUrpE8KWEYUQWOmF3wIfs6wngldZBVLrtmFYQ+9+i1a/he3va8MMDbRfHEFB6EGHtg6Z+9snElD/YiTn7NsOuBWJlkxL4StMGbu6TS9gCkES1Kx94FFJEXSFQtzmxa9kTkGPVFwBA2uxAnis79w2QJoRuQDVNOLQAQnYPDLst7gWYqjx2LK8qwPwSNyrcdrhUgY6gjrPeMLa3DWJPdwAm+5HTh4yM6o9U+hzYF4/innOYdfhVqEbMrisphPiTHesa2OefY7KwVrDWkhX1L0shb42W3j5lId6bej3GdLS+qkLmeYAEmr3TlmFA6CacWhDlrYdRdWoXbOEP3myO3lCPnvJJ2XGvFGFKIByOrNrHt/24jTt/BNNO7ICIHcQaUuKzTRtW/8rq8tLY41/JJKu96/5qqMp+ROkKAID9NZ+Czz7GW8oqSiQIGIMpiUllGFAME6qpo6C3DWUth1DeejTmR9694ymEHI44L0BpyzSBYPjCOv2s+OMmJaacfgcTzu0dLqcBiM80rm94Np7TUvZhAJACNXWrviCAn0ZL1+1OvLv0cZhj3a8sBOBxQdrTcTc7CRgSwjAgpITd0JHfdx7lLQdR2n4qoSbfs1ffgZbJc62+IRopw4hU/Br3XEiUME3MPPY6yjpODpc1KCEfalq/5kWry0zWYQCQGmJJ3apNErgjWoauiVfixIyllhROupyAa2wGIw7JlBCmARgmFAA2Q4OnvwNFne+h7Pzx4XYkG9bxGx9FV/E46+6PRkRoGmQoDMER/SNi08O44uAWFPYPu1lfL4R5b+O6F7ZZXWayFoeIp4YUEF+QkPsBFA6VobzlCDomzMWAu3TMCycuTJuSHldqdiyUAKQBYcjIwC0AimnCpofh9vagoKcFhd1nUdDflvTBXIYrD72s/DPHhZ35ENYi+1pYXZ4M5fb3YfbBl+EK9A+TU54TwJ071r1w0Ooyk/X4+5ZCS+oe+KSE+E20dFO1YfeSx6Ar9kgPpzTHtqtTEYDbDRlrqqCUFyr0SNmElBdWWJMABBREKnfV1GELBeAI9MPp74fb24P8/vPI60/xjoiXGJi2CMcW3AqN/cXpT9eBkMZm/iSIjPR/Daox7NbGB22K7c5tLz0/BhuUUCZgAJBiS1au+qWUeDze/JrTjbCzAGF3PsKOPOhOD3S7C4bNDlOxQbc7IKFe/N4UCkxVhbxkEUIpBKQY+s1eMU28H2Uo0oQwDUinC6quA8KELRyCMCVs2iCEIWHTgrCHg7CFfXAEfXCEBuH0D8KmBeO5nRRT0D9jEdpnLEa/uwg6p+ylt/en8YW1SD8/jY6UmNC8D1Peezue3E26zah7a+3abquLTemDAUCKLbztsbx8Z2AXgNlWlyUbTL62FtcuvwktcOPHx3s5Tz8TGGZkGl9o2DdUipNiGphxbFs8g/0gBNaaTvFIU0NDII5TUw5hADAGlqx84FopxQ4AnJuWoClXX4dFy2/GlZOrUF3sgePCNEbdNLFs/RF4dQYAaUnKyA6V4TCX6U0yZ8iLWYdeQf5g17B5pZDfb7pmwV/i6ae5chJdhgHAGKldWf9FSPnvVpcjnU2onoYrlnwc02fNwOSKElTmOWGLMUhxw3s9+Kt3z1tdbLqE0HXIsBap/Nk6k3Ql3Wcw4+jrsOnDtqaEAPGHjesbfmF1mSl9MQAYQ7UrVv0nBD5rdTmsZrM7MGPuPFxxQw2mVk/FhJJ8FLvsUBOckaCZJpasP4IAWwGsZRhAWI+s1MdKPyWElJh4djcmnXk3nuytiiLv3/7Smp1Wl5vSG6cBjiGHN/+PwoXeRZBYbHVZUq2wuBCTp89C1Zz5qKyeinElRSjLc6HQYYPLpiRlbwK7ouCvF1Tim7uHnfdMySZNiLDOAX1jwBH2Y9ah36NgIK6f890KxL3bX1p91upyU/pjC8AYu7GufpoO+TaAslGfbIwVFRehYuZsFI8bj8LxE1FcWoriwjwUul3Id9rhsavw2CIVvDJGa/Hrhonlm45xq96xYJqRJn5Ng9A+mE1CqVPU24yZR16DXQvFkVs+6xgseHLr1l+kwxQdygAMACxQU1f/cQG5BVEGBXry8vDIH34RZePGQZdAyDChmRJB3YQhgaCuQzclQtrlO3z5ExhprdpUONUPdoRWFAG33QanqsKhCuTZVdhVAYcQKLArcDjs8LjdsNvSaxfp11v68NSbLVYXIzuZMrJCn6ZD6Proz0dxUaSBKafewvjWQ/F0q+gS+Kum9at/YHW5KbMwALBIbV39pwH539HSXW43Hv3jP8W08eVWF/UyDocDeW4XbGkSCJiQuHfLCbw3yGlmSXGh0kdYBwxW+mPN4+/FjCNbkeeNa8p+h6nIR958ac0rVpebMk96/AXPQeeOHdoz+Yq5HggsGSpd13Xsf/stVF65ABWFeVYX90MMw0AwFEJY06AIAZuanD79kRIQuKrEjYbTfVY/mgwlI3P1QxpEMAQRDEZW6pOcOTampMT41kOYdfhVOOPaD0O8phniE29tWL3P6qJTZmIAYKFzD3/y95PbOuYBGHLrOtMwcHjX26iYswDj0iwIAADTlAiFNYRCYZgSUFUFikWBQIXbjiO9AZz2shUgLqYZmaoXDEMEQhChMIRhcBS/RRxhP2YfegWV5w9HltuOzZACTzctnv/51p/9+6DVZafMxS4Ai82rr3cUBeV6ALdFy2O323HPH38FV0+qsLq4w7LZVLgcTjidjjEbCPi+vpCGmzYdh26yEhuSYQCaHqn4OXI/PUiJ8o6TmHqqCba4BvqhE8CjjetXb7G66JT52AJgsc5Dh4wJM65epyjGHQCqhspjmiYO72yCrJ6D6eWFCV5hbJmmRFjTEAyGoJs6pJRQFBViDFoGXDYVRTaBN9pHt51w1jDMSF9+KAThD0CEtchWu3zLTwvO4CBmH3kVVc37oZhxBWS/1wzxiZ0bV++1uuyUHdgCkCauX/lQpSq17QBmRssjhMA1j3we919zhdXFTZjdboPTbofDYYeqpi7uNKTEit8dR7MvB3eZMwwI3YA0DK7El+bGnT+C6lM7oRpx/ZwGIfCNxmvm/4hL+lIyMQBIIzfe8+BkzdRfF8C0WPmuvP8xPLJkoWX97aOlKArsNhvsdhscdlvSA4JjfQE88Oopq28ztaQJoZsfVPamyQo/A7j9fZh+bBsKBjri/IQ4AAOPNW5q2GN12Sn7sAsgjZw5emBg6ux5ayXkfYAojpav6/A+HEcerpo+GWoGBgFSShiGgbCmIRAMIRgMQ9d1GKaERGQ9gtF0GZS57PCFdeztzZL1UKSE0I3IPPxwODJSPxACNDbpZwpFGph4dg9mHt0KV9Abz0dMAD8u0n31r21+iYtcUEpkXu2RA2rvur8aqvI6gOpY+fI/dhO+cN8dKHVlXxynqArsqgqbzQabqkJVFaiKGvdPrG6YuGPLCbT7M6grQMrI6Hwz8mYP3eTI/CxQ3HMW0040whlfxQ9AnoaQTzSue2Gb1WWn7MYAIE0tvetTV5iq/gogJsfMOH0+Pv3og5hV7LK6yKknBFRFgU1VoKgqbBeCAkURUFUFH/1xPtEXwH3p2BVgSgjTAEwJqRsXKn0j8s7H5XWzhiswgGknGlHU2xzvRyQgf+ZwKf9na0NDvNEC0YgxAEhjS+vqp5iQrwCYFTNjUTlWPPkUaqryrS6ypSJdB8rF9QiEouKbu9vwStsYzQowZaS5XpqRr00T8uJbvbz4hk/ZTTF0TDy7B1UtcY/uByBPmgr+kCv60VhiAJDmrl/5UKVNalsksDBWPmmz4+rPfRmrZlfyH/USvSEDX3j9NLpDBiAAiQurFgokvnrh+03xUkKYAHDJwDuuPUAAyttPYMp7b8ER9sf7EQ3ADx2D+U9zEx8aa6wrMsB1991XZtPVTQCuGy5v0YrH8MWl81HgyL5xASN1sCeAr7xxBjrraEqRwr5WVJ/aGe/6/e9rgmk82bhx7QGry0+5ibVEBmg5ciQwbvaM52zStgACs2PlDR3bh9e7dUydVo1Sp83qoqeFcW47nKqCXZ1cIIiSy+Prxcyjr2PymV1whANxfUYCPgF8a6JLfP53L65pt/oeKHcxAMgQ548d025YNK9hUEc5gI/Fyqu0ncZbew8hMPlKXFnitrroaWFemRtdAR3H+9nKSqPnCnox9WQTpp7YAVdgIN6PSQDPQ4qVTRtWbz506BDbpMhS7ALIQEtW1P+5FPIfACix8klFwfgHPo8nr5sBl6rEefbspZkSX91xFge643tTI/ooR9iPCef2Ytz5IwkM8AMgsMuE+advrnthh9X3QPQ+tgBkoHPHDjVOmT33bQArAESd/yekhO/QLrzeHkDVlGpUuO1WF91SqhCoGV+AN1oH4dU4Gp/iZ9NDmHRmN2YeeQ0FA+3x7Nj3vm4pxF9Pcoont6xdc8bq+yC6FFsAMlhkrQDjJQBXDpc3WFCGWQ98Gp+bPx72Md6lL920+ML48htn0RPUrS4KpTlHOICq5n2obD2U2Bt/ZHT/T0Iu8a1dDQ39Vt8H0VByuybIAjW315cKh/w1YmwnfCl5wx347O3LMLPIaXXRLXWqP4Sv7DiLwTC3xaXLOYODqGo5kHhTPyAB8ZIhza/t3LDmuNX3QRQLA4DsIGrrVn0NwHcQR7eOXlSGxQ9+DvdfMQ62HP4J2NcdwF82nkPIYHcARXh8PZjQvB9lHScSaeYHAAiIHTDlX+3YuPoNq++DKB45/Oc/+yxdsWq5KfAcgKp48ivX3YYHP7EM88pyd6bAOx0+fGtnC4OAXCaBor4WTGjeh6LeEe27s18K/F3TutUNVt8KUSIYAGSZZfffX2VoyrMAboknv+YqQNW9j+Mzi6ag2JmbY0L3dQfw143nEGAQkFMUQ0dF+3GMbz0It79vBGeQhwF8s3H9mhfATRwoA+XmX/wsdvbwYe+5hz/5P5NbOwcg8HEAMVcDUvUw/AfexmvHziJQORVXFLtHtRVvJqr02DG/3I03WgehcUnfrOcM+TDx3F7MPLoVZV3vwa4lujaEPAkpvjrRrfzh79auPmj1/RCNVG79pc8xy+6pn2uY8n8AXB3vZzw1d+Dem5fkZLfAwZ4AvvFmMwY4MDD7XGjmH996CCXdI56Nd1BK/JPT2/Xc1q1bOYWEMh4DgCx35513Ovtted8C8OcA4loIQAoV7ts/hUdumIfphbk1W6DVF8ZfNjajxRe2uiiUBPZwEBXtR1HZehjO0Eh32BVvS5jfbVq/5iWwqZ+yCAOAHFFzT/0CYeI/AfmxeD+jOz2YVPcQHl48C2U5tK9AT1DHXzc1c9ngTCWBwv5WjG89jJLuM5HtmUdAQOwQ0vzH7RvWbAArfspCDAByyPLly23hwvKvQOLbADxxfzC/BHMfeBh3z5mC4hzZZdCvm/juO61oahvpWyONtTxfDyrajqKs4xTs2oiXe9Yh8KIU+FHTS6sbrb4nolRiAJCDalbUTxTC/B4gHkvkc2Z+IaaseAgPzJ+GcZ7sbxGQAH5zvBs/P9QFmeCccBobjrAf5e3HUdF+FG5/3JvyDGUAwC9gmD9s3PQCl+ylnMAAIIfV1tXfLCF/LIC5iXzOcBdg0l2fRN2iGajOd1h9Gyn3essA/undNgQ5TTAt2LUgyjpPoqzjJAoGOkZ7uuNSiH/zBV0/37flWe4XTTmFAUCOm1df7ygK4CkI+Q0AJQl9WFEx4ZaV+Ph1V2N+Wfw9Cpno9EAIf/t2K84MhqwuSk5yaAGUdr6H0s6TKBzoAEbXImMA+C2Af2lcv/plsH+fchQDAAIALL374RJTCf8FgD9FjB0Go1HmLMaiG2/GbdPKUZil4wTChsTPDnbihVM9VhclJ7gD/SjrOIWS7tPI83Yn45QtAP7HVG0/ffPF509bfX9EVmMAQB+y9O4HppsKngbEwxjBQlFmYTmqP7ESN8+dhitKsnMtgd83D+BHe9rg19klkEyKNFHY24rS7tMo6mkexbS9DwlJ4CVFiJ/vuGbeq3j6af6jEV3AAICGVFP3wJVCim9D4JMAlIRPIATy5y7G3NobUTN1HMa5s2vQYLtfww92t+HdTnYbj4Yz5EdJ1ymU9JxDQX9bojvvxXJQQP6nHY5nt67/dZfV90mUjhgAUEy1d983H4ryDUCswgiXjjYVFc6P3YJrFl+NpZNKUOrKjmBAAth0ug8/PdDB1oA42bUQinrPobi3BQV9rXCGkhpAnQHwvCKNX2/fsHav1fdKlO4YAFBcbqyrn6ZDfhnA5wGMuG3fcLpRcd1yLFy0EIsnZEcwcN6v4YdsDRiSTQ+jsK8VxT3NKOxvhSswqql6Q+kB5EZTwa/efGnNq+CAPqK4MQCghFy/8qFKVYb/GBBPAqgYzblMRYVr7rWYds31mD+xDAvLPLApmfsj+WabF/+8tw0dgRxdJl4CrrAXhT3NKBxoh2ewCx5/byqu1CuBdTDlr52+7le5Lj/RyGTuX1uy1J133unss+etFBJ/BqBmtOeTQkCrnIyJV9VgzqzpuKqyEJWeuLYuSCs+zcR/H+nES6f6YGb54kF2LYj8wU7k97ehYKATed4OqEbK6uIzgPydIrGh16387mBDAzdrIBolBgA0ajX3rKoVBj4HgVUACpNxTlNRoUy5EuULFmPa5AmYXZaPWcUu2DLkJ/ZEfwg/PdCB3VnRLSDhDPuRN9CJgoF25A12w+Prhk1P6ZoIEhC7BfCSNLCucVPDHqufAlG2yZA/p5QJFtfVeVzSeZ8UeALALRjJ7IEoDNWOUGkVSudeg8nVUzBrXDGqC12YkGeHItL3x3hnuxf/caAzMxYQkoBDD8Dt60X+QCc8vm64Av1w+/uSOTo/ln4h8HsJ8bJNqBu2vfT8OasfCVE2S9+/nJTRlqx8cIIJo15IfAaQi1JxDd3mQrBiEtyz5qOyagImlRSiusiN6gJHWnUfGFJi85l+/OpwF7pDFndXS8BuhuAIeOH298Lj64Y7MABnYBCuQP9YVfQXHw0E9kDiFVORrww6lG1s2icaOwwAKOWW3vPA9YaBR4UQKwFMSeW1pFAQcBfCLB+P/MmzkFc+DmXFxSjLd2K8x44Klx2VHjuKnWO/WmHIMLHhdD+eP96NnmBqAgEBCbsehD3khzPohdvXA1fAC0fYB0dwEK7g4Ii3x00CKYHDAvJ1KZWXw278fldDQ79VhSHKdQwAaEwtqXtgnoRYISDqJGQtxvBn0LDZEXLkQ3PmwSgqR/74iXAXl8KZl498twsFLhvy7XYUOlUU2lUUOBQUOlQUOmywCcChCjjV0fdqhHQT68/04/ljXegNxXjjloACE6qpQzF0qHoYNi0AZ9gPR9ALR8gLezgAmxaEXQtGvk5tv3yidAjshcQOKbDdKe2vcVEeovTBAIAss2TlgxMkjBWQciWAmzGK9QWSyVRs0O0O6KoTut0B88L/DZsTms0FoShwu53QVTtcTgcUoUB1uWBTI60KipQQpgkh36/cJRQj8rVq6FBMHaoRhhYOo6O9E0KaUA0dwtShGlqkotfDUI2Maw3vAPC2ENgBA9vtvvy3t279RdDqQhHR0BgAUFpYXFfncUvHLaaC5ZBiKYBrAGT+KkHZq0MCu4TALinlLrti38VBe0SZhQEApaXl9fX5Wgg1pjSXCoiPA7gOadJCkGN0ACcBcUBAHjIh32VlT5QdGABQRphXX+8oCBkfU6SyVACLJbAQwEyMcH8CuowO4AQgDgrIQ5DioKni0IADRzkynyg7MQCgjLX4ySftrvPdV5hSLBYCcwHMA/AxAJVWly1NBQG0CilOSWGeAsQpKXBKNcQpw4NDTQ0NAasLSERjhwEAZZ2aFfUTFQVzpWlOhRBTBeRUQKmWkNMAVCE7f+57AbQCaJHAeQG0AGiTUjSrqtlqMx0nOQKfiC6VjX8IiaK68847nYOisNpUjamQsloqYrwwZRkESgGlDEApIC/8H2UWFLEfQAiAFwK9kOgG0C0EeiDRYwrRLSR6INAjpNEtVXuntJutfHsnokQxACCKTiyve6gsrJpFimYWA4BUDLuhiHwAsBlwG4pwAYAwkQ9F2AFASBimkB/a91Y1ZVBXEQAAxVRMxUS/sCEgdTMIOHsDymBo1/r1fqtvmIiIiIiIiIiIiIiIiIiIiIiIiIiIiIiIiIiIiIiIiIiIiIiIiIiIiIiIiIiIiIiIiIiIiIiIiIiIiIiIiIiIiIiIiIiIiIiIiIiIiIiIiIiIiIiIiIiIiIiIiIiIiIiIiIiIiIiIiIiIiIiIiIiIiIiIiIiIiIiIiIiIiIiIiIiIiIiIiIiIiIiIiIiIiIiIiIiIiIiIiIiIiIiIiIiIiIiIiIiIiIiIiIiIiIiIiIiIiIiIiIiIiIiIiIiIiIiIiIiIiIiIiIiIiIiIiIiIiIiIiIiIiIiIiIiIiIiIiIiIiIiIiIiIiIiIiIiIiIiIiIiIiIiIiIiIiIiIiIiIiIiIiIiIiIiIiIiIiIiIiIiIiIiIiIiIiIiIiIiIiIiIiIiIiIiIiIiIiIiIiIiIiIiIiIiIiIiIiIiIiIiIiIiIiIiIiIiIiIiIiIiIiIiIiIiIiIiIiIiIiIiIiIiIiIiIiIiIiIiIiIiIiIiIiIiIiIiIiIiIiIiIiIiIiIiIiIiIiIiIiIiIiIiIiIiIiIiIiIiIiIiIiIiIiIiIiIiIiIiIiIiIiIiIiIiIiIiIiIiIiIiIiIiIiIiIiIiIiIiIiFLk/wfaS7ECW/01FAAAAABJRU5ErkJggg==;" vertex="1" parent="1">
          <mxGeometry x="775" y="185" width="35" height="35" as="geometry" />
        </mxCell>
        <mxCell id="33ZxRu888jDNc-60NQ5n-48" value="" style="shape=image;verticalLabelPosition=bottom;labelBackgroundColor=default;verticalAlign=top;aspect=fixed;imageAspect=0;image=data:image/png,iVBORw0KGgoAAAANSUhEUgAAAgAAAAIACAYAAAD0eNT6AABSoklEQVR42u3dd3hc1Z0//ve5d7p6syw3uWLcARNAsk1MCdUyzUropGzIJsvuZvPNZksaW5LsbvJNvrvZ3WRJdjcJ+yNkZWNwTQwEY2wJA8a9F1wkWb1Ov+X8/hhjDNaMZqQZ3Snv1/PwIN1z5t5zryWdzz0VICIiIiIiIiIiIiIiIiIiIiIiIiIiIiIiIiIiIiIiIiIiIiIiIiIiIiIiIiIiIiIiIiIiIiIiIiIiIiIiIiIiIiIiIiIiIiIiIiIiIiIiIiIiIiIiIiIiIiIiIiIiIiIiIiIiIiIiIiIiIiIiIiIiIiIiIiIiIiIiIiIiIiIiIiIiIiIiIiIiIiIiIiIiIiIiIiIiIiIiIiIiIiIiIiIiIiIiIiIiIiIiIiIiIiIiIiIiIiIiIiIiIiIiIiIiIiIiIiIiIiIiIiIiIiIiIiIiIiIiIiIiIiIiIiIiIiIiIiIiIiIiIiIiIiIiIiIiIiIiIiIiIiIiIiIiIiIiIiIiIiIiIiIiIiIiIiIiIiIiIiIiIiIiIiIiIiIiIiIiIiIiIiIiIiIiIiIiIiIiIiIiIiIiIiIiIiIiIiIiIiIiIiIiIiIiIiIiIiIiIiIiIiIiIiIiIiIiIiIiIiIiIiIiIiIiIiIiIiIiIiIiIiIiIiIiIiIiIiIiIiIiIiIiIiIiIiIiIiIiIiIiIiIiIiIiIiIiIiIiIiIiIiIiIiIiIiIiIiIiIiIiIiIiIiIiIiIiIiIiIiIiIiIiIiIiIiIiIqIxJawuABGNTm3dqmchMMfqciSbaaiPvbnxN4etLgdRtrJZXQAiGiWBOZBYbHUxks0G02N1GYiymWJ1AYiIiGjsMQAgIiLKQQwAiIiIchADACIiohzEAICIiCgHcRYAURaTdgf0siqrixGVve2M1UUgylkMAIiymF5WhZ7Hvm51MaKq/P6TVheBKGexC4CIiCgHMQAgIiLKQewCIMohlza5dz/+deiV1VGPu/e+gcItzwIAtPHVF7sSknWciKzFFgAiIqIcxACAiIgoBzEAICIiykEMAIiIiHIQAwAiIqIcxACAiIgoBzEAICIiykEMAIiIiHIQAwAiIqIcxACAiIgoBzEAICIiykEMAIiIiHIQAwAiIqIcxACAiIgoBzEAICIiykEMAIiIiHIQAwAiIqIcxACAiIgoBzEAICIiykEMAIiIiHIQAwAiIqIcxACAiIgoBzEAICIiykEMAIiIiHIQAwAiIqIcxACAiIgoBzEAICIiykEMAIiIiHIQAwAiIqIcxACAiIgoBzEAICIiykE2qwtARGNn4LbHLn5tFpbFPK5NnnXxuOnOv5ierONEZC0GAEQ5JLBoWdzH9dLx0EvHp+w4EVmLAQClTG1d/dcBc4rV5ch6EtVWF4GIMg8DAEodIe+DFIutLgYRpZfaez81Q+rG58ITSr+965lnNKvLk6sYABBlMXvbGVR+/0mri0F0Uc3t9aUwjI1CYLbzfM+yZfff/8k3XnjhvNXlykWcBUBERGNi8ZNP2oVD/i+A2RcOLTU0Zc+SlfffZHXZchEDACIiGhOO8z0/A3DLRw6Pk1LZUlu36i+sLl+uYQBAREQpV7ti1TcE8ESUZBuAf1iyctUvly//tMvqsuYKBgBERJRSNXUPPASBvx0un5R4PFzgffm6++4ri+e8NDoMAIiIKGVuqLv/GgHxcwAizo8stenqW0tW1s+OMz+NEGcBkCVO1qxA+xXpOUOw8tguzGjacNnxwKJlH1oxL53Y2s+g7Fffuey4t6wK+1ak7yyA2l/+jdVFoBRadv/9VYamrAPgSfCj06WUO5bW1d+7fX3DdqvvI1uxBYCIiFJBmJryXwAmjvDzZSbkK7UrH3jU6hvJVgwAiIgo6WrrVj0lgTtGeRonpPjVkpX1T1l9P9mIXQCUFhZueObi18eX3Y9AUTlKzxzBpP3bAACBonIcX3Y/ACR8fNYbL8Dd3wUAaF5wI3qqr4x5PB62njYUbvzPi9/3PPb1ER3Pa9oE54ndAIDQzKvhq7lrRMdH85xT/fyjHafsVXvX/dUA/iFWHj2vBKbTDUdP63CnE1LKf6mtWyUa16/+sdX3lk0YAFBayO/+YCEwRY+sDGoP+T50/H2JHnf3d108bg/5hj0eFy0Ee9uZUR9XB7svHtcrp4z4+Giec6qff7TjlMVsyg8gY/f7d97zp7AVlcP1yi9QcPyd4c4oAPxzzcp6pWldwz9bfXvZgl0ARESUNEtXrFoOiVWx8nTe8mk4SyqhKipCn/gsej62Ip5TCyHlj2rqVn3Z6nvMFgwAiIgoaUwhYk7t8FUvgDL7+ovfK0IA192Njts/H8/phQB+tGTlqr+y+j6zAQMAIiJKipoVq24B5I2x8gzc9AjEECsC2GZeg7ZP/hXiqZakxHdr6lZ9wer7zXQMAIiIKCmEQMz1/HuvuR3OvKKo6Y6KKTj/8LcgbfbhrwX8uLau/mar7zmTMQAgIqJRu+HuT80BcGu0dFOxIXzt8LMCnSWVaH/wm5DqsEGAHZBra+6pX2D1vWcqBgBERDRqimI8hRjL/fbecA/s9vj2+XEUVaDtkb+B4Rg2fyFM+VLtffeNs/r+MxEDACIiGpV59fUOAA/GyqPNqU3onM6CEnQ8+K1hgwABTIOublxcV5focsM5jwEAERGNSnFIrgBQGi3dO2MxHK7E62dnQQk6H/xmPGMCrnXC+XOrn0OmYQBARESjIoGHYqUPXnf3iM/tKChF2/1fiyfrQ0tWPPCHVj+LTMIAgIiIRmz58uU2SHwiWrrpyoO9ZPyoruGsmIS2uj8ZNp8U4v/dUHf/NVY/k0zBAICIiEZML6i4AUDUuX29i26JLPYzSo4pc9C1tH64bE4F4n+X19fnW/1cMgEDACIiGjEJeVus9PCM5L2Qi4U3Y2B2zXC5ZoSD8rtWP5dMwACAiIhGzASiBgDS5oStqCJp1xICCN38CMKlE4bL+tQN9zxwazznzGUMAIiIaESW3v1wiQCujZbeP+cGqEpyqxlVUdF9z59imOpLKKb4+cLbHsuz+hmlMwYAREQ0IlLVlgFQo6WHpsxPyXWdnkK01/3RcNmq8xyBr1v3dNIfAwAiIhoZiatiJZsVk1N2afuUueifuyRmHiHwf5bdUz/XkmeTARgAEBHRiJiQi6KmKTbYPQUpvX5o2YPQ3TGv4dBN+QOLHk/aYwBAREQjImIEAP5p86GI1FYxNpsNXXd/aZgy4s4lK+s/EecpcwoDACIiSlhkrr2YFi09NOGKMSmHo3IqBobZZ0BC/hOefpr13UfwgRARUcJCYbkQMeoQrXTimJXFv7QeMasziauWvHvg3rF7OpmBAQARESVMkXJWrHRZWDZmZXE4XOj8eMzNCCGBbyLGdsW5iAEAERElzJRKVax0xT22U/Dl3CXQPUUxMuCqmrpVI9+VKAsxACAiooQJyOjL8SkKbDbXmJbHpijouunRYcqMPxvTQqU5BgBERDQCImoAoOcVIwn7/yRMrZ4L3VMYK8vNNffULxj7kqUnBgBERJQ4KaN2AWgFY9f/fylVKOhe/kjMPMI0v2hJ4dIQAwAiIkqciN4FoBWUW1YspXo+DEes7gfx8PLlnx7b/ok0xQCAiIhGQERta9cLSiwrlaoo6Ft8V6wsReGCQQ4GBAMAIiIaAQk4o6a58y0tW3hOTcx0IcQjcZ4qqzEAICKihAnAES3NTPESwMNxuvPhmxJ9DyApcSe3CmYAQEREiYosq2uPmm5xAAAAg4tujZXsKnAFb7G6jFazWV0AIgBov+Kai1/rLg8AIFBUcfF4KK/4Ynqix3umzIGvrOpinuGOx0O6CxBYtGzUx8OTZiXl69E851Q//2jHKXPVHDzojJnBijmAHy1C1fSY6VKadwNYZ3U5rcQAgNLCyZq6y44NVE7BQOWUUR9vXnh5xRvreDyMwlIM3PbYqI8H596A4NwbRn08XkM952jHk/X8ox2nzGV6HXbVFoqeIQ0CALvdCf+EGfC0noyW5U6ry2g1BgAZonblqnesLkPCJOZYXQTKXKZiPlu7cpXf6nIkQpriO00bGtZaXY5U0yfnBdTzMQIA07S6iAAA74KbYgQAYvLSuvop29c3nLW6nFZhAJApJBZbXQSisSXmQFpdhgRLrCCxvqQMteuZZ7TaulUhRJkJoIR8VhcRAGCMmxoz3RSyFgADAKKxNGnfG6g8tsvqYgzJHhz6pdN5bDdK29Pzb4UID/025unvwsINz1hdPMpOg4gSANj8gzCsLh0AW35x7AwStQCet7qcVmEAQJZw+vrh9PVbXYyEKAEvlIDX6mIkVmZdQ373eauLQVlJegEx5JJ/qq8/LQIAVVERrJwGV/t7UXKIRfGea9n991dpOqarpjJVCjEVkOMAVACohEARJBwAhppa2C+BfgH0A+iRkOeEUFqElOeEKY9WeZQzDQ0NljwuBgBERDQCYjBaiurrtbpwF/mmLYoRAMjLFwt4+mllya79cwBRIyGvAcQCAAsMDUUKACkAfLRvapiuKvGhrwUgJSQAqQi0BGWotq7+iBByr2nKt4SQb4WqyvfseuYZLdXPhgEAERElTALd0cb62we6ELC6gBfopVWxkstr77tvnGrayk3TvF1CuRW7DtRKiOJI8pjMZnACcpGUWCSEeBwQcJzv8dXW1b8uYL6iKMrv3nip4VAqLswAgIiIEiYEWqK9+dr8AzBME6pi/YJAZv4w+xLo6iEDsixS2afHqFMB5AHyLglxl2FK1NatOgLINYo0G7ZvWLs3WddhAJAFNKcHofwiq4sxJFXX4O7vuuy4UVgK01NgdfGGpPgHoQ70XHY8E5+ztDugl1WN4Ixjw952Zsjj3jQus6e/C4qe8tbZ9GeiJdYLshEOQHVZv9qu8BQOl8WavYsTcyUgvm4K9es1dasOCeBXus34+Vtr13aP5qQMALJAT/WVURd4sVpe93ksGmIUuu+Gu4dcGS8duPe+gcItz152PBOfs15WhZ7Hvm518aKq/P6TQx7ft+LJBM80dhZueIYDKwFAyJZYTeTS1w+kQwDgcFtdhOTeDzAXwD/YdPVbNSse+C+7UH64bX3DeyM5l/XtM0RElHEExPFY6cpAV7ynSiklDbohUsQjhHhKhzxWW7fquaV3feqKRE+QtU+GiIhSRxpmzIFp9o4z8Z4qteUc642JhIDucEMfu5YHG4CHTNU4WFv3wH8sWfnghEQ+SFnko03BjU98GwAwo2k9Ko+9CyCy8cv7TdmpPh6vS5uCux//OvTK6g81xWvjqy82ZSd6vPTZ71zsax647bGLXQ/Rjo/mOSd6PB2ec6qff7Tj8bq0yf1kzQq0X7E4ac8/0eP0gcZNL5ytrVs1CGDIwTz5x96G93rru8ySsS2BVBQEC8rgLxqHUH4xQnklCOWXIOwqgO5wwXB6oDtcQwYbiq5B1cOwhfxwBAbh8PXDGeiHa6AHnr7z8PS1QzH0ZNyqDRBPSqk/Wrty1feLNN/3Nm/eHBrmA0RERAmTEjgkgOuHSnQMdELTwrDbHZYWUiQ6lU8IBArLMVhejYHKKfCVTECgaBxMdWTVpWmzw7TZobnyhtx1VEgTroFuFHaeQWH7KRSdPwlHYHAEV7rIA4lv99s8n6xZseqPmzasfjVaRgYAREQ0IgLYiSgBAACY/Z1A+URLyyjjmNoXdhegb8Is9E24Av1VM6E5PXGcOUnlEwoCRRWRbbNnXgsAcPd3ouzMAZSf2QdPX/sIzyzmCIFXautWbVAg/mioTY8YABAR0YgIyB0S4k+ipdvPn7A8ADCMoadshj2F6K5egK7q+Rgsn5IWWxi/L1BUgeaFN6F54U1w93di3Kl3UXn8bdhCI9occ4UJuXzJyvpHdqxrWHdpAgMAIiIaGWHfDhm9/zr/cBP8Cz5uaRGl9kEAIBUVPZPnoH3mx9A3YSbGaKW/UQkUVeDM1bfj3MKbUXFqL6qO7BhJq4BHGvqpjx5kAEBERCOyY93zrbV1q04BmD5UuqvzDPqCPjisXA9AC0HLK0HnnBq0TLsKmivfurKMgqna0T7rWrTPXIzyMwcwZc8WuAbjXgfoN40b1x746EFOAyQiotHYGCtRPXfY0sKpeUXofPRvcHbusoyt/D9ECHRNXYDd9/wZ3rtuJUzbsIMsTZjGd4dKYABAREQjZipyXaz0gt0vW1o+oShoDfphyvRY5z9ZpFAwUDF52GWpBeTzQ739AwwAiIhoFLTKstcB9EVLd3WeRTjgs6x8rQE/wqZp2fVTRkpMf2sDhtnAyDBM299HS2QAQEREI3Zh3/oNsfLYTrxtSdk6Qn74snTjpvLT+1DQGXu1RQH5mzc3/iZqHwwDACIiGhUp8YtY6WWNa6EnZ7W7uA1oYfSEQqM/URpS9DCq3/3tcNnCusTTMc9j9Y0QEVFma9qw+veAPBktXehh4PSBRE45KkHTQJuF3Q6pNvXd38Lp74+ZR0D+cOeGNbE3bLL6RoiIKONJSPFsrAyl256HKVPfF6+bEi1+L7Kw1x8AUNx6DOOP7RwuW7uuu743XCYGAERENGqGYv8pgEC0dJu/H3rLiZSWQUKiJeCFlo2D/gDYg17M2rE6sgtD7AfxVzs3/38Dw52PAQAREY3aznW/bpcCv4yVp+J3z6R0LEB7IIDAGI81GDsSMxtXwx70DpNPvNl47fxfxnNGBgBERJQUdin+CUDUGlgN+qDuSc26AL1aCH1adg76A4Bpb29EScuxmHkk4FMM5Qk8/XRcTSAMAIiIKCm2rW94Twg8FytP2ZvrEPb2x3vKuPh0HR2BwOhPlKYmHN6OqiONw+ZTgC9v3/SbY3Gc8v38REREyWGa4q8lEHMIftGr/520lfmChoEWvzeubX8zUdnZg5j6zuZ4sr60Y/3qnydybgYARESUNE0bGloUiH+KlcfdfBTy4BujvpZummgJeGFmaeVf0nwEs7b/Bhj2/uQ5B+x/kOj5GQAQEVFSmS58H8DZWHkqXv81Qt2tI78GJM5l8Yj/ivd248rX/wfK8IMaBxVp1m1d/+uuRK/BAICIiJKqqaEhIIT4Awzz6jq+4R8Q9g+O6Bqtfh9ChmH1rabE+GM7MWv7aojhgxtDCPHo9g1r947kOgwAiIgo6Xasa3hZCPx7rDzC0FC25h8RDgcTOndb0A9vFq7xL6SJaW9vwPSdL2H4Zn8AwJ/tWNewLp6MQ2EAQEREKRGUoa8BOBorj32gG6W/+S60OKfw9YSC6Atn33Q/h38A83/3s7hG+1/w3cb1q388mmsyACAiopRwwj4PwLBt/I6BTpQ+93cIDbPIzaCmoSOUfdP9is+fwKKN/zrs7n7vk5B/27h+9ddHe12b1TdORETZpfau+6uhir8DxKMARDyfsXu7UfTbnyNwz5chhvhEwNDRGhhuFbzMYgsFMPXdTRh38t3hl/e9QEB8u3H96r9NyvWtfgBERJQdrl/xwCxF4C8A8TgAeyKf7Z+/HOEb66EOUfmHTQPNfm9WTfYraT6CGTtfhMM/7JL97zMh8LUd6xr+b7LKwACAiIhG5fqVDyxUJb4KiIeQYL1iKjZ03PkF2KfOgzpEY4Fmmjjn98JI0sJBVivsOIMpu7egsOO9RD42KCEfb1q35sVkloUBABERJWzxk0/aHW0990LiS0Ji+UjOEaycir4VT8Hhyhsy3ZDZM9c/r6cFU/a8POx6/kM4bprqPW9u/M3hZJeJAQAREcXthnsfnCoM7TPifM/nAVSN6CRCQcfNj0GZfT0cYughAiaAZv8gwhk911+itPkIxh/dieLzx+Pu5//g02K9atqfaNz4XG8qSscAgIiIYlpcX1/kCMh7FIjHpKHfAoi4BvYNxTvjKniXPwaHyxM1jwTQ4vcikKGVvz3oxbiTu1F57E24vCOquwcgxJ83rWv4GeJcEGAkGAAQEdFllt79wHRDVeoUEytkUC6DgHM0G+5oRRXo/sRn4aicCscweVv9XvgybKEfW8iPkpajKDtzACUtRyHkyLotBMQOU+DTTesaTqS8zGP+lIiIKO0svfvhEkMN3ypM3AGBO0xggpAScsTv+hG6uwDdNz0Kdep8OMTwS8+0Bf0YzIDKX5gGCjrPoajtJIraT6Kg4+yIK30AEEAbgG/uWN/wn0jhW/+lGABkmXB+EU7WrLjseOf0RfCWTQAABIoqxux4vAZue+zi12ZhGQBAmzzr4nHTnX8xPdHjvuvvgnJh/rA2edawx0fznBM9ng7POdXPP9rxeDUvuBH2UGR32YHK6qQ+/0SPZ42nn1Zqdu2/AlJcB8iPCSGuMxFeLOSQA/FHxLS70fnxT0HMuhZ2RY3rM52hQJqu8ifhGuhGXu955PWcR353Mwo7z0LRw8k4eVBK/Ego4e/tWLduZBsjjFCS/qkp1WrrVkWNCNuvuAYna+qsLuKQ8rrPY9GGZy47PnDbYwgsWmZ18Ybk3vsGCrc8e9nxTHzO2vhq9Dw26gXDUqby+08OebzxiW9bXbSoFm54Bvnd54dOFOILjesanknsjKlVX1+vtmjKVKmbCyOVPa4HsBhAUSqup+WVoHtpPdTpC6HGWfEDQG84hPagP+HrlZ09AFO1Q3d6oLnyobnyYNiG62T4MFUPwxYOQA0F4AgMwOXthdPXB6e3F05vLzx97VCTU9l/6FEJgV8biu3bb774/OlknzwebAG4xLI76yukgilWl2Mo2brfNRGNzuL6+iK7ppbYpFZpmpgkISYDmKIITDUlZrcE5UzAcIx82F58/FUzMVBzH2zjpyHRi/WHwyOq/N39nZj9+nOXJwgB3e6CFAKGwwUpFBh2J1Q9DGF+MLBQ1UKwhQKjarofyaOSUv6XMOUPdmx6Ib61f1OEAcAlDBueBOTfW10OIspQUv517cpVT47+RNHODxcA94XvCgGUIChVQId5oUH3/apXyrFo4lXQv/Am+Bcuh7OofNjBfUMZ1DScD/pGdPXK429HeU4StnBkzwB7KPHAIjXkOQn8t7CZ/9a0dm2H1aUB2AXwIbV1D/wHIFL3y0tElAV8U+ZicOEtUCZeAZtt5O+Rg5qG1oAPI5ldIEwD1675B9hHGDyMkRCAl6XAr5wDXWu3bt2qW12gS7EF4BISYjIjIiKiywUrp2HgqlsgJ8+B3ekZ0dv+pQb1kVf+QKTvP00rfy8gfieEuV4YznXbU7SITzIwAPiwaqsLQESULnxTF8A7dynkhFlwON1JqzAG9TBaA/4RV/5AjOb/sWcCOCgEtkFio30w/7WtW38RtLpQ8WAAcAmB9BwASEQ0FrSiCgxcWYPw1IWwlVRCVW2JbekXB6+mjbrydw90o6g9oc10kqkDwH4B+bYUynbFsDem81t+LAwALqi5vb4UkIlPUiYiylCB8dPhn341tIlXQJRUwm53QgBwpuh6Xl1DS2D02/pWHn8r4XX1EyGANgk0C4Fz0pRnIXBKSnFQ2I39jWkygC8ZGABcoNr1ySbin7NKRJQpDIcHgclXIFQ5DVrFVMiSStg8BVCFAgGMuj8/Hr4kVf7CNFBx6t3hsm0QML9jKCJfmMIFAbeQIg/StEtF9F2aUYHoM030q6bSp9mU/lKtr2/z5s3puBpR0jEAuMAUtrIxWn2RiChpDIcHWmEZjPxi6IUV0IrHwSgsh5lXBLgLoLryYFMjf+rHqrL/KJ+hodk/+sofAMrOHhp+8J8wv79j3QtvWnCrGYUBwAVCyOJYLUrnFt2K3omzR3WN0opJsNlT1bhGRNlOKAqEUC9+rQjlsn35lAv/pQu/oaPFl5zKHwCqjjQO95QONK574Q2r7zsTMAC4QJooirUqgrdsIrxlE0d1jXJ3ARwquxmIKDf4dR3NAS+Stc5efncLCjpjL54nIP8ZbM6NCwOAC4SQxTJGBKC58pJwDavvkohobFwc8JfEqnjCoW3DZekNIvRcPOciBgAXSSGKYsWMmisJEwQYkxJRDhjQwjgf9Ce18nf4B1B25mDsTBI/27Vhfbqs/Zv2GAC8z5TFsV7RdYc7gZNFwRYAIspyfeEQ2kawsc9wqo40Drdpj2ET4qdW338mYQDwPhF9a8z3d5Ia/SWIiLJXrzayLX2Ho+gaKk8Mt/KfWL9tfYNlqwNlIgYAFynF0drozQT3liYiyjXdoSA6Q4GUnLvyxDuwDX/uH1v9DDINA4CLpCdaimFnAEBEFE1nKIDuUKqWv5cYf7QpZg4B7NuxvuE1q59Dpkmn6aKWElJEfRaGLTmrYZscBEhEWaYj6E9h5Q+UnjsM90BXzDwmxD+Cw6wTxhaAC6SQUbvok9UFYPLnk4iyyPmgD/3hcEqvMWn/1pjpEnjPOdj5v1Y/i0zEAOAioUQLIKVIzuI9Zgo3ryAiGisSQGvAi0FNS+l1SlqOIb+7OWYeAfxg69atutXPJBMxALhAQkadBBijdyDBaxARZTZDSrT4vfAbqa9zJx4Ytlu/Q7rEf1v9TDIVA4ALRIwWgGQt4ccWACLKZLpp4pzfi5BppPxaRW0nUNgxzLK/Av+vsaEhNVMPckDaDAJcfu+9xdfdd1+ZZQWIMQYgWS0ApkzWithERGMrZBo44x8ck8ofACbvHfbtf8Cu6D+x+rnE47r77iuztH6LIm0CgAq7fdCmqeuW3v1wiRXXjzULACI5b+4GGwCIKAMFDB1nfV5o5ti8xBS2v4fCjmHX9PnJ1hdf7LP62Qzn+jsfKbTp6qagLz91UyVGKG0CgIaGBkMKqKYIb1h+773FVpfnUsJITsSrj9EvD1nD1nwY7t0vW12MrOPavQW21uNWFyNnDWphnPUNwhjDFszJ+38/XJagajf/2dIHE4eldz9coqqhzQAm7tvyrM/q8nxU2gQAACCAAQjUhg37G9ffef+ksby2hIy6fqWSpCYvnV0AWUsYGjw7XoC7aS2ch4fbr5zi5Ty4HZ6mF+FpXAuMUdMzfaA3HERLwDemA5gLus6i6PzJ2Jmk/I83XnjhvKUPZxjX33n/JFPRtkGgFpCpnS4xQmkVAEDiwp67cr5qV5pqVtRfN3aXxmC0NJG0AIB9ANlISBOeV34JW1czICXyfv8/cO3jomSj5drzKvJefw6QErb295C37XkkdXs5iqkrFER7cOzH103ZE7sVTQI+Q3F8z6rnEo+aFfXXqXalCZDzI0dEpdVlGko6BQACAtMuficxSQj5xpKV9U+NzcXlQLQ0JUnTXVLWBWDq8Lz5IpTBntScn6ISWgj5m34K54ldlxyV8Lzxv/A0rh1u9zIagpAmPDvWwLNj9YcqfOfB7cj7/bNsCUgxCYnzAT+6Lll73zXYg+p3f5u0v4XRFLceG/btX4H88c51v263+jlFs2Rl/VNCyDcgcWkrtntpXf0Uq8v2UWkzDbBmRf3HAFn1kcMOKeWPa+tW3S6l+MOmDQ0tqSuBiNoCoGqhpFzBSEFDmuLtRf5vfw5b+ynYzx5E/31/DnDvgjFhaz+FvFd+BbVv6L9Frt1bYOs8C+9tn4XpLrC6uBlB+AeRv+U/YW85OmS680gT1N42+G59AkZxWr5UZTRDmmjx+z40x1/VQrjytV/B09+BoraTOHbjQwjml6bg6hLVu7cMl6nfDCvft/o5DWXJygcnmNL4qZSybqh0A/KTAH5gdTkvlZwl7pJgyuw53wLE4ijJVwiBz06+cl7vuYc+uRtbtya9Jp08e84SQNw4VJqQJpoX3JSU6xTbXVCSsa6AacB5aAcKfvdzqP2RCkjxD8DWehza9KuAJO1fQJdTgj64m9bCs/V5KEFv7LwDXXAcfQtmcQWMkvFWFz2t2U/tQeHGf4fa0xozn+Lrg/PQDggA+rhqQEmbP2MZLWwYOPuROf72oBdzX/1v5PW2AQAcgUGMO/kupKrCWzYxsoBqklSc2oPxx3bGzCMgvte4qeG3Vj+rD3n6aWVJQfnnJMwXBbAoRs5JMyeMe+b06dNp0yyYFr85N9Tdf42A8hPE7pJwAaibfL7z3olz5pxoPnr4VDLLMHn2vI8BuHWotEgAsDwpP+wFdjvsyujO4zhzEPmb/wPOI00Q+ofX4Va9vXCcPgBt8hxIV14yH1HOE0Ev3LtfQf6Wn8PeegIizhYdoYXgOP4O1L4O6OOnQzpcVt9KWlF8fcjb+j/w7FwPEWdrm5Am7C1H4TzyJmBzwCibwEBgFHy6huaA90PjlPJ6z2PuK/8FT3/Hh/Iqpo7i1uOoOL0XmqsA/qJxo14sTZgGZm97DrZwzDEH3YbufKjlxP7kNMkmQW1d/c2T2zrWAHgSkToq+j0CFYbLM3Du6KGm+M6eeslZ4m4Ult79cImpaNs+GCwRd9Ffk1J+p2nD6leTUY7aulVfAvBv0dLf/uQ3oDk9CZxxaOPdHhTbnYl/0DTgPLUHzn2vwTbcCFkA0u6Av/Z+hObdmLSVDHOV2tMK1/5tcB5pAvTRbXwi7U4Er7kdwatvhVRzvJVGC8O9+2W49myB0Eb3XE13AULzP47QvCUw84qtvrOM0hcOoT0UgLxQ+QvTxMSDWzF532txDYD2lVSh7coadE5bBHOEP9NVh3dg2jsbY+YRUnxtx4aGtGj+X7pi1XJT4JsAbk7kcxLwQchlTevW7Lb6HgCLA4CFtz2Wl+8IbIlMkxixtwDxr47BvIatW38x4oUWalc+8CikeDZa+u6Vf4ZAUcWo77nU6cI4pzvu/Iq/H45DO+A6sA2Krz/h6+mV0+CvvQ/6hFmjLnsuUYI+OE7sguNIE2ztp5N+fukpQOCqTyA0/0bIkQSEGUxoQTj3vw7XnlehBAZHf8JLSKFAnzIXoTm10KbOZ5A1jM5Q4IOtfKVE6bnDqN7zO7j7OxM+l+50o2PGtWi74joEC+Jf9E7Vgli89gewhaLOxIYA2oIIzdi1fr0/7hMn2bz6ekdh0HxAQPwxgJpRnKpDCHHjjnUNR0dxjqSwLAC4sa5+mi7kC5C4Kkmn7JLAs4qQz+1Yt+adRD9cs7L+DiHl5mjpBz/xB+gfP33Uhcy32THJkx8zj+Lrg+PkHjhOvgtb6wkkYxshbcpcBBfdAm3yHLYIRKEM9sB+9iCcJ3bD1npsTEabS1c+QnOXIDj/RpgFqRhYlT7U/i44Dm6D63AjRDD1a6JIuxNa9QKEZ14NbeJsdoldwoREq98Hr65BSBNlZw5gwuHtyO9qHv3JAfhKJ6K7eh66pyxAoDB2MDBl9xZMOrA1Zh4h5Rd3bFjzUyueVe1d9VcJVT4igccBjEvSadslxKea1je8bsU9vc+SmqBm5ap6IfETAKlZG1nIYxJ4SUjxSgih7fFEjcvuqZ9rmPJgtPRjyx5E19SFoy6aQ1EwPb/ow8U1dKjtp2FrPQbHmYOwtb2HVO0daBRXIjRvGcIzr4GZb8mqy2lDCfpgbz4CW/MR2M4dgTrQZVlZLr65zr4e2vRF2fPmqofhOLUXjmM74ThzCNbtiSmgj5sCfdKV0CbNhj5hZvY84wRppolmvxdqTyvKz+zDuOPvwJHklphL+Ysr0TvpSvRXTsNgRTWMS1q8nL4+XL3u/0GJ0bUmgUPOwa5FY7Xl7/Lln3aF8r1LANwCgXsEMDdFl9Ih8HXHQNcPrdrOeEwDgNp7PzUDhvkvgLxrDC8bAkQjgFcFjFcL9cDuzZs3XzaIZHl9fX44KKP+Frx37d04P2dJUgo0RxWwdbfC1n4KtpbjsLWfgtDH+t9fQJ8wA6HpV0OfPBdGaXaPUBfShNLbBlvXOdg6zsLWegxqZwvScZNmaXdBq54PrXouwlPmQXoKrS5SQhR/P+xnD8N+9gDspw9CaGm3BDqkzQZ9/AzoE2bCqJgCvXxy1gfEQprQ204hfHIvSs4cgKevbczLIBUFvtIJGBg3DQMV1Rh/4i0UtxyL/RlT3tG0cc3vUlWmefX1jhI/FpiqvAUStwJYCiD+ftpRE3sh8cXGDQ1jPjhwTAKAG+59cKowtG8IiMcBWB126wBOQmA/TBwAxEEpzAO+kOdcvjPQDKB4qA+1zFuGM9fcGfdFVC0Ep78fDl8fnL5+ePra4OlrR17vedhC6bd7pVlQGnkzqpwOvWo6zJLxSdsFcczpYai9bbB1NcPWeQ5q59nIKn2jHMBnCSFglE+ENmUetMlzoVdOh7SlzfIdkSLqOmztJ2E/exi2swdh627JyBX7THf+hWBgSuT/FZMi3TIZOrtA6DrUrrOwtb0HW9tJ2JqPQEnDvz3D2Ni4fvWKZJyopr7ejRAmQprzBZR5gLkAUOYBcjasr5ckJNYrUvzt9o0Nu0Z/uvikMgAQtXX1NwH4EiDvQRotOhSNFDCFHHoqYqBwHDqnLYJUI8nClFC1EFQtCNUIQ9E02LQA7AEvnL5+qGn41pPQs7C7YJSOh1FUCbOkEmbxOOhFlTBKxgE26xcaUgKDUAa6oPR3QRnohNrfBaW/I/J/f+KDJTOGosIoroQxbgr0skkwKiZBL58MmYQZKvEQIT9sXeegdjZH/t/VDLW3LXtX51NUGPklMIvHwSysgFFUAbOoHEZhOYzCirRYdEsEvVD7OqD2dUDpbYfa3x75vrcdMC1pWU7q3QHytATaBEQfhPRBSh8gegWEX0KGAEAAqgQuNpVJKfOEUKoAWQmgAsAEABmxGpeQ4hUo8if2ga51qe4aSHoAUHvvp2YIw3xECvMRSHFFKgtP1jDzS2AWlMJ05kG68yFd+TDd+ZDuAkinB6Y7H1BskKoK2D7o75M2O+QlCxSJcADClEDYDyEv/N+UEFoQQgtBCXgh/P2R/wcGIfwDkYo/4M3eCmeETE8RzIISyLziSIWVXwIzvxgyvxRStUPaHIBqg3S4IBUF0hFp4Yz8G5gQ4SBg6JF1JfQwFG8vVF8fhLcXqrcXwtcHZbA3u4OrkbA5YHgKIN1FMD0XfhfyCiHdhTBd+YBqg+l0QQgV0u6KtN6ojui/C+/TLnyvh6AEvRABL5SAD0pwECLoi/wXGIQ60DUmAyrJEi1SyOcA/DpV0wZHHwA8/bRSu2vfYgmxQghxNySuScp5iYiICACOAtgAiE39Lmw/2NCQlP7MEVXUNbfXlwqHeROkuAsCdwPgotxERESpNyiBlxVgs4DYsn19w9mRniiuAGDJypUFhrBfr5jiVgjcComrkV47CRIREeWi8wLYLoV4RUhzx471a+KebztkAHD9nY8UCkfwOlb4REREGaVdANtMIXaoBrZv/9i83Xj66SE3ILosAFh422N5Hqdvts1Uc68f36bapGm8ISGHnBJyct4tCDiSN5BU5udxtAQRjZowDCAQBmTabDQ3pDxvN6Yd344YL6gvKab4O6vLmVUUdEbrJmD18xG1dfV7ADnklo7vzV2O9vKZybuYxw3psHr6KRFlMhEKA4EQ0nFRq0sppoEF766B2z8QLUu3A/Yrt67/tXVLcuYYNut/hBByb7S0os7TSb2WHPPV/4goa0gT8PqBQBDpXvkDwMRzu2NV/pASX2HlP7bSfnGesSaBfdHSinqSs1HG+4SuQ0KCDTFElBDdhPD7ATO9m/zf5/H1YMLZfbGyvN60YfWz8Z6PkoMtAB9hxmgBUA0dqkhipG1KwMiMX2AiSg8iHIbw+TKm8hfSxPRj2yCij08Im6b6RWRCM0aWYQDwEfawsjdWuiOU5FW3wuwGIKI4mBLwBgB/MKP2Wph0ZjfyB2O07At8782NvzlsdTlzEQOAj3hjc0MngPPR0gsHkruDltA0q2+ZiNKc0HUIrxdCz6y/F3neLkw4F+udShwo0nzfs7qcuYoBwBAkEHVbxvKWI8m9mGkCBte1J6IoAsHIm7+ZOW/9QGTU/4yjMZv+dSHMzwy1PTuNDQYAQ1CEeC1aWkF/G0Syx+yxG4CIPsowIAa9kWl+Gdg9Pvn0O/D4eqJnkPj7HevWvGN1OXMZA4ChSPO1WMl2PbkBqwhn4D71RJQyIqxBeP0ZO0i4sL8NVc37Y2XZHZpQ+l2ry5nrGAAM4cJayu3R0ov6zydwtjhICaGxFYAo510c6BfIqIF+l7LpIcw4sjVWlpBUxBO7nnkmswY0ZCEGAEOTEng9WuK45gPJvyBbAYhyWqYO9PuoGce2wRnyxrhRfKvppYb98Z+RUoUBQBRCiK3R0gr62qAkeRyA0PS0X8ebiFIkEIys6pdhA/0+qrL1EEq6zsTIId6c6BT/1+pyUgQDgCjkMOMA3MH+5F80lNmRPxElSDcvGeiX2Ty+HlSf2hk1XQI+xVCeaGho4LSnNMEAIIqm9WuOAGiNll7edjzp1xShcMb2+xFRYkQoDOH1ZuxAv0spho5Zh38PxYxetytC/tH2Tb85ZnVZ6QMMAGKSW6KljGs+iKTPB+RgQKLsd2F6X2QTn+ww7UQT3P6+GDnkszvWrfml1eWkD2MAEJN4MVqKamhwaoHkXzJD5/wS0XAkEAxCDPqy4q3/feXtx1HRfjRWlhNCaH9kdTnpcgwAYpAusUUCURf/H9ee/G4AGAaExi4yoqxiGBADPohg5vf1XyrP243px7fHyhKSQn5yx7p1g1aXlS7HACCGpoaGgIB4OVp61XvvJr8bAACCmbG/NxENRwKBC2/9GbJ7X7xsehCzDr0Ss98fwFea1q3ZbXVZaWgMAIYjzDXRkhRTg0vzJ/+ahsmxAESZTjcgBvxZMcL/o4SUmHV4K1zBWC/2Yk3j+tX/bnVZKToGAMNwOJUXAUSt5ce3HEzNhYPcH4MoY/mDEF4fYGZnd96U995GUW9z1HQJvOdQtT+wupwUGwOAYWxtaPBCYl209Mqz+yBECh6jYXKPAKIMIzQdYsCb1b+7ZZ2nUNUScyG/gGqK+q0vvthndVkpNpvVBcgEQhG/llI+OGSaNFHg68SApyz5Fw6EALs9NeMMCBM8dtw0oQDzStwod9nhUgW6gjrOesPY3ubFu91+mFyXgeJhSiAQALK86y5/sAvTj22LtV6JhMBnt29s2GV1WWl4rFniMK++3lEUlOcAjBsq3Vc4DvuvugepGLgnXU7A5bT6EWSVWUUufHn+ONw4viBmvvN+Df9+uAPrzvRl+gqtlEIiGAJCoawft+sI+TF/z4twhKKPe5JCfr9p3ZqvWV1Wio9qdQEyQeehQ8akK+eMExBLhkp3hHxom7IIZgq6AoRuAg62AiRL/bQS/LhmCqYVDB9UFdhV3DyhENdX5GNbuxcBPbtGcdPoCM2A8Puz/q0fAFRdw9z9G+EKRB/0J6R4ZaJLfObQoUNZHgplDwYAcZo6Y+EZqcinEK3VxO5Af2Flai5uXAgCaFT+fNF4/Mm8SiiXBFP9/X14Z+db2PX229j11ts4fuwEdF1D5fjxF/NUeey4ZUIhftc8gEAWLeBCIyQvTO0LBnNi6W4hJWYd+T0K+9tiPZTTDmG/fdPa3/jiPjFZjq+VCaitq38dkDcOmSgE3vr4H8BMVVuxxw3JIGDEPjm9BN+8esLF770Dg1jzv2vQtH37h/r5VVXFV/7iq5g1+4rLzrGn24/PvXEGYQYBOUuEwpEZOjlQ8b9v6olGjG89FDVdAj4oooZb/GYezgJIgJCIPqdVSpT2nk3dxQO58baRCuPcdvz5wqqL33e0d+C7f/cd7HjjjcsG+V17/XVDVv4AcFWZB4/OKLX6dsgKhhFZzCfHfg+rmvfHrPwRGfT3GVb+mYkBQALs3s41AKLW8lMPvQ4oKWpUudDsSIn70twKuNTIv0swGMS//uhf0NXROWTe6qlTYp7rc7PLUWBnz1nOMGVkTv+gDzCyc05/NGUdJ2Nu7wsAEPjLpnWrG6wuK40MA4AEbN26VYfAv0VLt2lBFPp6U3Z9EdYgNM3qx5BRHKqCOyYVXfx+y6bfou38+aj5m881xzxfoUPFLRNjzx6gLCBlZLveweye0x9NYV8LZh59PXYmiZ81rlv9T1aXlUaOAUCCHIr+DABvtPTpB18GUrEw0Pv8QUCyDzpe11d4kGeL/HuYhoHXXv19zPw7G9/EqZMnP3QsHA5j/959F7//+HgGANlLQoS0D7brzaHm/vcVDHZg9sGXIWL+nRGbHN6uL1ldVhodtmUm6PSRI8HJV8yphBA3DJVu00Loq5qBsJq6uftCNzg1ME63TChETWU+AODUqVN47ZXYAYCUEjsbd8I0DUACRw8fwS9+9l/oaO/A9TWRf3JFAX59ssfqW6MkE7oB4QsA4XDWz+mPxuPvxZz9m2HTY7Q0CuxyuMSKrZs2sU8yw3ElwBEwDPkD1Sa+CMAxVPrM/S9jz7WrUvf2YBiRhUdcLqsfRdord3/wI97V0RXXZzQtjPVrP7z6s9vtvvj1OBdnY2QVw4z8PoVzu3vNGfTiyv2/hU2LtQ+JPK3pyorGdQ3euE9MaYtdACOwc/MLzRLy2WjpLl8v8sIDKS2DCIa5Y2AcPhSDjaLFxH7JFEx2wGSJiwP8vBA5Xvk7wj7M2b8JjlDMafz9MM26tzc1tMV7XkpvDABGyJT4RwBRhwXP2vPbSFtxKvkDOTcyOVFdgQ+CpPKKke/XUFb+wWc7A7ldWWS8HB/g91H2cABz9m2GKxD9pUUCPlOYdzduXHvA6vJS8jAAGKGdG9YcB+TqaOmuQD+KvJ2JnDJxUkb6LHNwoFK8Tg5+0E05bdo05OXnjeg88xcs+OCcA9yqOVOJcDgn5/NHY9eCmLNvI9z+vljZwgpQ/+a6F3ZYXV5KLgYAo6BI83uIMVxo1t7NEEqKx1maJoTXn7ODloazs9MP34U1/BVVxU233pzwOcrKy7Domqsufv/a+cGEz0HWEmENYsAbmUVjshMHAOxaAHP2boQnduVvQIpHdqxfvdnq8lLyMQAYhe0b1u4FsClauk0LorTvXOoLYhiA3z/682ShsGFi87n+i9/fftedqJpQFffnFSHw8OOPwm6PjAHoDxt4rZUBQGaQl1T8AVb8l4i8+W+Gxx9z3RJTQjzeuKFhdbznpczCAGCUBMy/j5U+Y98WCDX1j1loOuALgE0Bl/vJoU4EjchzcTqdeOrP/hQV4yqG/ZyiqnjoicewYNHCi8d+fqQLgxrHXaQ7oekQg35W/EOI9PlvgscXcyqrlMCXmtY3PGd1eSl1uA7AKJ07drh50uy5ywUwdah0IU0Y7nx480Y+AC1ewjQj9b+dszsv5dNN9IV0fLwqsoBPXl4erq+9AX6fH+fOnRuyL7h62lQ8+cUv4Jprr7l47N0uP76z5zxStd8TjZ7QdAh/AAiF2cc/BGfIi7nD9/lDQP6fxvVr/tXq8lJqcSWZJFh6zwPXm6ZoRIwWlbeX/wHGahM56XQAbq4R8FFfXTgeT8z6cCA2MDCA/Xv2oqO9A6FwGKUlJbhyzhxMnjoF4pJpg2cGw3h823voCXLqZToSuh7ZpU9n60w07kA/rty3Cc7QcDv2im80rm/4jtXlpdRjAJAkS+pW/VQCX4iW3lM5A8dm3zRm5ZEOB+BhEPBRj84qw1fnV0JNYNOmNzt8+OrOc+gPs3JJN6z44+Px9+LKfZvhCA8zVkjim40bVv99fGelTMcugCQZt2jeGzYdTwAYcqF4t68XfVWzUrpE8KWEYUQWOmF3wIfs6wngldZBVLrtmFYQ+9+i1a/he3va8MMDbRfHEFB6EGHtg6Z+9snElD/YiTn7NsOuBWJlkxL4StMGbu6TS9gCkES1Kx94FFJEXSFQtzmxa9kTkGPVFwBA2uxAnis79w2QJoRuQDVNOLQAQnYPDLst7gWYqjx2LK8qwPwSNyrcdrhUgY6gjrPeMLa3DWJPdwAm+5HTh4yM6o9U+hzYF4/innOYdfhVqEbMrisphPiTHesa2OefY7KwVrDWkhX1L0shb42W3j5lId6bej3GdLS+qkLmeYAEmr3TlmFA6CacWhDlrYdRdWoXbOEP3myO3lCPnvJJ2XGvFGFKIByOrNrHt/24jTt/BNNO7ICIHcQaUuKzTRtW/8rq8tLY41/JJKu96/5qqMp+ROkKAID9NZ+Czz7GW8oqSiQIGIMpiUllGFAME6qpo6C3DWUth1DeejTmR9694ymEHI44L0BpyzSBYPjCOv2s+OMmJaacfgcTzu0dLqcBiM80rm94Np7TUvZhAJACNXWrviCAn0ZL1+1OvLv0cZhj3a8sBOBxQdrTcTc7CRgSwjAgpITd0JHfdx7lLQdR2n4qoSbfs1ffgZbJc62+IRopw4hU/Br3XEiUME3MPPY6yjpODpc1KCEfalq/5kWry0zWYQCQGmJJ3apNErgjWoauiVfixIyllhROupyAa2wGIw7JlBCmARgmFAA2Q4OnvwNFne+h7Pzx4XYkG9bxGx9FV/E46+6PRkRoGmQoDMER/SNi08O44uAWFPYPu1lfL4R5b+O6F7ZZXWayFoeIp4YUEF+QkPsBFA6VobzlCDomzMWAu3TMCycuTJuSHldqdiyUAKQBYcjIwC0AimnCpofh9vagoKcFhd1nUdDflvTBXIYrD72s/DPHhZ35ENYi+1pYXZ4M5fb3YfbBl+EK9A+TU54TwJ071r1w0Ooyk/X4+5ZCS+oe+KSE+E20dFO1YfeSx6Ar9kgPpzTHtqtTEYDbDRlrqqCUFyr0SNmElBdWWJMABBREKnfV1GELBeAI9MPp74fb24P8/vPI60/xjoiXGJi2CMcW3AqN/cXpT9eBkMZm/iSIjPR/Daox7NbGB22K7c5tLz0/BhuUUCZgAJBiS1au+qWUeDze/JrTjbCzAGF3PsKOPOhOD3S7C4bNDlOxQbc7IKFe/N4UCkxVhbxkEUIpBKQY+s1eMU28H2Uo0oQwDUinC6quA8KELRyCMCVs2iCEIWHTgrCHg7CFfXAEfXCEBuH0D8KmBeO5nRRT0D9jEdpnLEa/uwg6p+ylt/en8YW1SD8/jY6UmNC8D1Peezue3E26zah7a+3abquLTemDAUCKLbztsbx8Z2AXgNlWlyUbTL62FtcuvwktcOPHx3s5Tz8TGGZkGl9o2DdUipNiGphxbFs8g/0gBNaaTvFIU0NDII5TUw5hADAGlqx84FopxQ4AnJuWoClXX4dFy2/GlZOrUF3sgePCNEbdNLFs/RF4dQYAaUnKyA6V4TCX6U0yZ8iLWYdeQf5g17B5pZDfb7pmwV/i6ae5chJdhgHAGKldWf9FSPnvVpcjnU2onoYrlnwc02fNwOSKElTmOWGLMUhxw3s9+Kt3z1tdbLqE0HXIsBap/Nk6k3Ql3Wcw4+jrsOnDtqaEAPGHjesbfmF1mSl9MQAYQ7UrVv0nBD5rdTmsZrM7MGPuPFxxQw2mVk/FhJJ8FLvsUBOckaCZJpasP4IAWwGsZRhAWI+s1MdKPyWElJh4djcmnXk3nuytiiLv3/7Smp1Wl5vSG6cBjiGHN/+PwoXeRZBYbHVZUq2wuBCTp89C1Zz5qKyeinElRSjLc6HQYYPLpiRlbwK7ouCvF1Tim7uHnfdMySZNiLDOAX1jwBH2Y9ah36NgIK6f890KxL3bX1p91upyU/pjC8AYu7GufpoO+TaAslGfbIwVFRehYuZsFI8bj8LxE1FcWoriwjwUul3Id9rhsavw2CIVvDJGa/Hrhonlm45xq96xYJqRJn5Ng9A+mE1CqVPU24yZR16DXQvFkVs+6xgseHLr1l+kwxQdygAMACxQU1f/cQG5BVEGBXry8vDIH34RZePGQZdAyDChmRJB3YQhgaCuQzclQtrlO3z5ExhprdpUONUPdoRWFAG33QanqsKhCuTZVdhVAYcQKLArcDjs8LjdsNvSaxfp11v68NSbLVYXIzuZMrJCn6ZD6Proz0dxUaSBKafewvjWQ/F0q+gS+Kum9at/YHW5KbMwALBIbV39pwH539HSXW43Hv3jP8W08eVWF/UyDocDeW4XbGkSCJiQuHfLCbw3yGlmSXGh0kdYBwxW+mPN4+/FjCNbkeeNa8p+h6nIR958ac0rVpebMk96/AXPQeeOHdoz+Yq5HggsGSpd13Xsf/stVF65ABWFeVYX90MMw0AwFEJY06AIAZuanD79kRIQuKrEjYbTfVY/mgwlI3P1QxpEMAQRDEZW6pOcOTampMT41kOYdfhVOOPaD0O8phniE29tWL3P6qJTZmIAYKFzD3/y95PbOuYBGHLrOtMwcHjX26iYswDj0iwIAADTlAiFNYRCYZgSUFUFikWBQIXbjiO9AZz2shUgLqYZmaoXDEMEQhChMIRhcBS/RRxhP2YfegWV5w9HltuOzZACTzctnv/51p/9+6DVZafMxS4Ai82rr3cUBeV6ALdFy2O323HPH38FV0+qsLq4w7LZVLgcTjidjjEbCPi+vpCGmzYdh26yEhuSYQCaHqn4OXI/PUiJ8o6TmHqqCba4BvqhE8CjjetXb7G66JT52AJgsc5Dh4wJM65epyjGHQCqhspjmiYO72yCrJ6D6eWFCV5hbJmmRFjTEAyGoJs6pJRQFBViDFoGXDYVRTaBN9pHt51w1jDMSF9+KAThD0CEtchWu3zLTwvO4CBmH3kVVc37oZhxBWS/1wzxiZ0bV++1uuyUHdgCkCauX/lQpSq17QBmRssjhMA1j3we919zhdXFTZjdboPTbofDYYeqpi7uNKTEit8dR7MvB3eZMwwI3YA0DK7El+bGnT+C6lM7oRpx/ZwGIfCNxmvm/4hL+lIyMQBIIzfe8+BkzdRfF8C0WPmuvP8xPLJkoWX97aOlKArsNhvsdhscdlvSA4JjfQE88Oopq28ztaQJoZsfVPamyQo/A7j9fZh+bBsKBjri/IQ4AAOPNW5q2GN12Sn7sAsgjZw5emBg6ux5ayXkfYAojpav6/A+HEcerpo+GWoGBgFSShiGgbCmIRAMIRgMQ9d1GKaERGQ9gtF0GZS57PCFdeztzZL1UKSE0I3IPPxwODJSPxACNDbpZwpFGph4dg9mHt0KV9Abz0dMAD8u0n31r21+iYtcUEpkXu2RA2rvur8aqvI6gOpY+fI/dhO+cN8dKHVlXxynqArsqgqbzQabqkJVFaiKGvdPrG6YuGPLCbT7M6grQMrI6Hwz8mYP3eTI/CxQ3HMW0040whlfxQ9AnoaQTzSue2Gb1WWn7MYAIE0tvetTV5iq/gogJsfMOH0+Pv3og5hV7LK6yKknBFRFgU1VoKgqbBeCAkURUFUFH/1xPtEXwH3p2BVgSgjTAEwJqRsXKn0j8s7H5XWzhiswgGknGlHU2xzvRyQgf+ZwKf9na0NDvNEC0YgxAEhjS+vqp5iQrwCYFTNjUTlWPPkUaqryrS6ypSJdB8rF9QiEouKbu9vwStsYzQowZaS5XpqRr00T8uJbvbz4hk/ZTTF0TDy7B1UtcY/uByBPmgr+kCv60VhiAJDmrl/5UKVNalsksDBWPmmz4+rPfRmrZlfyH/USvSEDX3j9NLpDBiAAiQurFgokvnrh+03xUkKYAHDJwDuuPUAAyttPYMp7b8ER9sf7EQ3ADx2D+U9zEx8aa6wrMsB1991XZtPVTQCuGy5v0YrH8MWl81HgyL5xASN1sCeAr7xxBjrraEqRwr5WVJ/aGe/6/e9rgmk82bhx7QGry0+5ibVEBmg5ciQwbvaM52zStgACs2PlDR3bh9e7dUydVo1Sp83qoqeFcW47nKqCXZ1cIIiSy+Prxcyjr2PymV1whANxfUYCPgF8a6JLfP53L65pt/oeKHcxAMgQ548d025YNK9hUEc5gI/Fyqu0ncZbew8hMPlKXFnitrroaWFemRtdAR3H+9nKSqPnCnox9WQTpp7YAVdgIN6PSQDPQ4qVTRtWbz506BDbpMhS7ALIQEtW1P+5FPIfACix8klFwfgHPo8nr5sBl6rEefbspZkSX91xFge643tTI/ooR9iPCef2Ytz5IwkM8AMgsMuE+advrnthh9X3QPQ+tgBkoHPHDjVOmT33bQArAESd/yekhO/QLrzeHkDVlGpUuO1WF91SqhCoGV+AN1oH4dU4Gp/iZ9NDmHRmN2YeeQ0FA+3x7Nj3vm4pxF9Pcoont6xdc8bq+yC6FFsAMlhkrQDjJQBXDpc3WFCGWQ98Gp+bPx72Md6lL920+ML48htn0RPUrS4KpTlHOICq5n2obD2U2Bt/ZHT/T0Iu8a1dDQ39Vt8H0VByuybIAjW315cKh/w1YmwnfCl5wx347O3LMLPIaXXRLXWqP4Sv7DiLwTC3xaXLOYODqGo5kHhTPyAB8ZIhza/t3LDmuNX3QRQLA4DsIGrrVn0NwHcQR7eOXlSGxQ9+DvdfMQ62HP4J2NcdwF82nkPIYHcARXh8PZjQvB9lHScSaeYHAAiIHTDlX+3YuPoNq++DKB45/Oc/+yxdsWq5KfAcgKp48ivX3YYHP7EM88pyd6bAOx0+fGtnC4OAXCaBor4WTGjeh6LeEe27s18K/F3TutUNVt8KUSIYAGSZZfffX2VoyrMAboknv+YqQNW9j+Mzi6ag2JmbY0L3dQfw143nEGAQkFMUQ0dF+3GMbz0It79vBGeQhwF8s3H9mhfATRwoA+XmX/wsdvbwYe+5hz/5P5NbOwcg8HEAMVcDUvUw/AfexmvHziJQORVXFLtHtRVvJqr02DG/3I03WgehcUnfrOcM+TDx3F7MPLoVZV3vwa4lujaEPAkpvjrRrfzh79auPmj1/RCNVG79pc8xy+6pn2uY8n8AXB3vZzw1d+Dem5fkZLfAwZ4AvvFmMwY4MDD7XGjmH996CCXdI56Nd1BK/JPT2/Xc1q1bOYWEMh4DgCx35513Ovtted8C8OcA4loIQAoV7ts/hUdumIfphbk1W6DVF8ZfNjajxRe2uiiUBPZwEBXtR1HZehjO0Eh32BVvS5jfbVq/5iWwqZ+yCAOAHFFzT/0CYeI/AfmxeD+jOz2YVPcQHl48C2U5tK9AT1DHXzc1c9ngTCWBwv5WjG89jJLuM5HtmUdAQOwQ0vzH7RvWbAArfspCDAByyPLly23hwvKvQOLbADxxfzC/BHMfeBh3z5mC4hzZZdCvm/juO61oahvpWyONtTxfDyrajqKs4xTs2oiXe9Yh8KIU+FHTS6sbrb4nolRiAJCDalbUTxTC/B4gHkvkc2Z+IaaseAgPzJ+GcZ7sbxGQAH5zvBs/P9QFmeCccBobjrAf5e3HUdF+FG5/3JvyDGUAwC9gmD9s3PQCl+ylnMAAIIfV1tXfLCF/LIC5iXzOcBdg0l2fRN2iGajOd1h9Gyn3essA/undNgQ5TTAt2LUgyjpPoqzjJAoGOkZ7uuNSiH/zBV0/37flWe4XTTmFAUCOm1df7ygK4CkI+Q0AJQl9WFEx4ZaV+Ph1V2N+Wfw9Cpno9EAIf/t2K84MhqwuSk5yaAGUdr6H0s6TKBzoAEbXImMA+C2Af2lcv/plsH+fchQDAAIALL374RJTCf8FgD9FjB0Go1HmLMaiG2/GbdPKUZil4wTChsTPDnbihVM9VhclJ7gD/SjrOIWS7tPI83Yn45QtAP7HVG0/ffPF509bfX9EVmMAQB+y9O4HppsKngbEwxjBQlFmYTmqP7ESN8+dhitKsnMtgd83D+BHe9rg19klkEyKNFHY24rS7tMo6mkexbS9DwlJ4CVFiJ/vuGbeq3j6af6jEV3AAICGVFP3wJVCim9D4JMAlIRPIATy5y7G3NobUTN1HMa5s2vQYLtfww92t+HdTnYbj4Yz5EdJ1ymU9JxDQX9bojvvxXJQQP6nHY5nt67/dZfV90mUjhgAUEy1d983H4ryDUCswgiXjjYVFc6P3YJrFl+NpZNKUOrKjmBAAth0ug8/PdDB1oA42bUQinrPobi3BQV9rXCGkhpAnQHwvCKNX2/fsHav1fdKlO4YAFBcbqyrn6ZDfhnA5wGMuG3fcLpRcd1yLFy0EIsnZEcwcN6v4YdsDRiSTQ+jsK8VxT3NKOxvhSswqql6Q+kB5EZTwa/efGnNq+CAPqK4MQCghFy/8qFKVYb/GBBPAqgYzblMRYVr7rWYds31mD+xDAvLPLApmfsj+WabF/+8tw0dgRxdJl4CrrAXhT3NKBxoh2ewCx5/byqu1CuBdTDlr52+7le5Lj/RyGTuX1uy1J133unss+etFBJ/BqBmtOeTQkCrnIyJV9VgzqzpuKqyEJWeuLYuSCs+zcR/H+nES6f6YGb54kF2LYj8wU7k97ehYKATed4OqEbK6uIzgPydIrGh16387mBDAzdrIBolBgA0ajX3rKoVBj4HgVUACpNxTlNRoUy5EuULFmPa5AmYXZaPWcUu2DLkJ/ZEfwg/PdCB3VnRLSDhDPuRN9CJgoF25A12w+Prhk1P6ZoIEhC7BfCSNLCucVPDHqufAlG2yZA/p5QJFtfVeVzSeZ8UeALALRjJ7IEoDNWOUGkVSudeg8nVUzBrXDGqC12YkGeHItL3x3hnuxf/caAzMxYQkoBDD8Dt60X+QCc8vm64Av1w+/uSOTo/ln4h8HsJ8bJNqBu2vfT8OasfCVE2S9+/nJTRlqx8cIIJo15IfAaQi1JxDd3mQrBiEtyz5qOyagImlRSiusiN6gJHWnUfGFJi85l+/OpwF7pDFndXS8BuhuAIeOH298Lj64Y7MABnYBCuQP9YVfQXHw0E9kDiFVORrww6lG1s2icaOwwAKOWW3vPA9YaBR4UQKwFMSeW1pFAQcBfCLB+P/MmzkFc+DmXFxSjLd2K8x44Klx2VHjuKnWO/WmHIMLHhdD+eP96NnmBqAgEBCbsehD3khzPohdvXA1fAC0fYB0dwEK7g4Ii3x00CKYHDAvJ1KZWXw278fldDQ79VhSHKdQwAaEwtqXtgnoRYISDqJGQtxvBn0LDZEXLkQ3PmwSgqR/74iXAXl8KZl498twsFLhvy7XYUOlUU2lUUOBQUOlQUOmywCcChCjjV0fdqhHQT68/04/ljXegNxXjjloACE6qpQzF0qHoYNi0AZ9gPR9ALR8gLezgAmxaEXQtGvk5tv3yidAjshcQOKbDdKe2vcVEeovTBAIAss2TlgxMkjBWQciWAmzGK9QWSyVRs0O0O6KoTut0B88L/DZsTms0FoShwu53QVTtcTgcUoUB1uWBTI60KipQQpgkh36/cJRQj8rVq6FBMHaoRhhYOo6O9E0KaUA0dwtShGlqkotfDUI2Maw3vAPC2ENgBA9vtvvy3t279RdDqQhHR0BgAUFpYXFfncUvHLaaC5ZBiKYBrAGT+KkHZq0MCu4TALinlLrti38VBe0SZhQEApaXl9fX5Wgg1pjSXCoiPA7gOadJCkGN0ACcBcUBAHjIh32VlT5QdGABQRphXX+8oCBkfU6SyVACLJbAQwEyMcH8CuowO4AQgDgrIQ5DioKni0IADRzkynyg7MQCgjLX4ySftrvPdV5hSLBYCcwHMA/AxAJVWly1NBQG0CilOSWGeAsQpKXBKNcQpw4NDTQ0NAasLSERjhwEAZZ2aFfUTFQVzpWlOhRBTBeRUQKmWkNMAVCE7f+57AbQCaJHAeQG0AGiTUjSrqtlqMx0nOQKfiC6VjX8IiaK68847nYOisNpUjamQsloqYrwwZRkESgGlDEApIC/8H2UWFLEfQAiAFwK9kOgG0C0EeiDRYwrRLSR6INAjpNEtVXuntJutfHsnokQxACCKTiyve6gsrJpFimYWA4BUDLuhiHwAsBlwG4pwAYAwkQ9F2AFASBimkB/a91Y1ZVBXEQAAxVRMxUS/sCEgdTMIOHsDymBo1/r1fqtvmIiIiIiIiIiIiIiIiIiIiIiIiIiIiIiIiIiIiIiIiIiIiIiIiIiIiIiIiIiIiIiIiIiIiIiIiIiIiIiIiIiIiIiIiIiIiIiIiIiIiIiIiIiIiIiIiIiIiIiIiIiIiIiIiIiIiIiIiIiIiIiIiIiIiIiIiIiIiIiIiIiIiIiIiIiIiIiIiIiIiIiIiIiIiIiIiIiIiIiIiIiIiIiIiIiIiIiIiIiIiIiIiIiIiIiIiIiIiIiIiIiIiIiIiIiIiIiIiIiIiIiIiIiIiIiIiIiIiIiIiIiIiIiIiIiIiIiIiIiIiIiIiIiIiIiIiIiIiIiIiIiIiIiIiIiIiIiIiIiIiIiIiIiIiIiIiIiIiIiIiIiIiIiIiIiIiIiIiIiIiIiIiIiIiIiIiIiIiIiIiIiIiIiIiIiIiIiIiIiIiIiIiIiIiIiIiIiIiIiIiIiIiIiIiIiIiIiIiIiIiIiIiIiIiIiIiIiIiIiIiIiIiIiIiIiIiIiIiIiIiIiIiIiIiIiIiIiIiIiIiIiIiIiIiIiIiIiIiIiIiIiIiIiIiIiIiIiIiIiIiIiIiIiIiIiIiIiIiIiIiIiIiIiIiIiIiIiIiIiIiFLk/wfaS7ECW/01FAAAAABJRU5ErkJggg==;" vertex="1" parent="1">
          <mxGeometry x="435" y="480" width="35" height="35" as="geometry" />
        </mxCell>
        <mxCell id="33ZxRu888jDNc-60NQ5n-49" value="" style="shape=image;verticalLabelPosition=bottom;labelBackgroundColor=default;verticalAlign=top;aspect=fixed;imageAspect=0;image=data:image/png,iVBORw0KGgoAAAANSUhEUgAAAgAAAAIACAYAAAD0eNT6AABSoklEQVR42u3dd3hc1Z0//ve5d7p6syw3uWLcARNAsk1MCdUyzUropGzIJsvuZvPNZksaW5LsbvJNvrvZ3WRJdjcJ+yNkZWNwTQwEY2wJA8a9F1wkWb1Ov+X8/hhjDNaMZqQZ3Snv1/PwIN1z5t5zryWdzz0VICIiIiIiIiIiIiIiIiIiIiIiIiIiIiIiIiIiIiIiIiIiIiIiIiIiIiIiIiIiIiIiIiIiIiIiIiIiIiIiIiIiIiIiIiIiIiIiIiIiIiIiIiIiIiIiIiIiIiIiIiIiIiIiIiIiIiIiIiIiIiIiIiIiIiIiIiIiIiIiIiIiIiIiIiIiIiIiIiIiIiIiIiIiIiIiIiIiIiIiIiIiIiIiIiIiIiIiIiIiIiIiIiIiIiIiIiIiIiIiIiIiIiIiIiIiIiIiIiIiIiIiIiIiIiIiIiIiIiIiIiIiIiIiIiIiIiIiIiIiIiIiIiIiIiIiIiIiIiIiIiIiIiIiIiIiIiIiIiIiIiIiIiIiIiIiIiIiIiIiIiIiIiIiIiIiIiIiIiIiIiIiIiIiIiIiIiIiIiIiIiIiIiIiIiIiIiIiIiIiIiIiIiIiIiIiIiIiIiIiIiIiIiIiIiIiIiIiIiIiIiIiIiIiIiIiIiIiIiIiIiIiIiIiIiIiIiIiIiIiIiIiIiIiIiIiIiIiIiIiIiIiIiIiIiIiIiIiIiIiIiIiIiIiIiIiIiIiIiIiIiIiIiIiIiIiIiIiIiIiIiIiIiIiIiIiIiIiIqIxJawuABGNTm3dqmchMMfqciSbaaiPvbnxN4etLgdRtrJZXQAiGiWBOZBYbHUxks0G02N1GYiymWJ1AYiIiGjsMQAgIiLKQQwAiIiIchADACIiohzEAICIiCgHcRYAURaTdgf0siqrixGVve2M1UUgylkMAIiymF5WhZ7Hvm51MaKq/P6TVheBKGexC4CIiCgHMQAgIiLKQewCIMohlza5dz/+deiV1VGPu/e+gcItzwIAtPHVF7sSknWciKzFFgAiIqIcxACAiIgoBzEAICIiykEMAIiIiHIQAwAiIqIcxACAiIgoBzEAICIiykEMAIiIiHIQAwAiIqIcxACAiIgoBzEAICIiykEMAIiIiHIQAwAiIqIcxACAiIgoBzEAICIiykEMAIiIiHIQAwAiIqIcxACAiIgoBzEAICIiykEMAIiIiHIQAwAiIqIcxACAiIgoBzEAICIiykEMAIiIiHIQAwAiIqIcxACAiIgoBzEAICIiykEMAIiIiHIQAwAiIqIcxACAiIgoBzEAICIiykE2qwtARGNn4LbHLn5tFpbFPK5NnnXxuOnOv5ierONEZC0GAEQ5JLBoWdzH9dLx0EvHp+w4EVmLAQClTG1d/dcBc4rV5ch6EtVWF4GIMg8DAEodIe+DFIutLgYRpZfaez81Q+rG58ITSr+965lnNKvLk6sYABBlMXvbGVR+/0mri0F0Uc3t9aUwjI1CYLbzfM+yZfff/8k3XnjhvNXlykWcBUBERGNi8ZNP2oVD/i+A2RcOLTU0Zc+SlfffZHXZchEDACIiGhOO8z0/A3DLRw6Pk1LZUlu36i+sLl+uYQBAREQpV7ti1TcE8ESUZBuAf1iyctUvly//tMvqsuYKBgBERJRSNXUPPASBvx0un5R4PFzgffm6++4ri+e8NDoMAIiIKGVuqLv/GgHxcwAizo8stenqW0tW1s+OMz+NEGcBkCVO1qxA+xXpOUOw8tguzGjacNnxwKJlH1oxL53Y2s+g7Fffuey4t6wK+1ak7yyA2l/+jdVFoBRadv/9VYamrAPgSfCj06WUO5bW1d+7fX3DdqvvI1uxBYCIiFJBmJryXwAmjvDzZSbkK7UrH3jU6hvJVgwAiIgo6WrrVj0lgTtGeRonpPjVkpX1T1l9P9mIXQCUFhZueObi18eX3Y9AUTlKzxzBpP3bAACBonIcX3Y/ACR8fNYbL8Dd3wUAaF5wI3qqr4x5PB62njYUbvzPi9/3PPb1ER3Pa9oE54ndAIDQzKvhq7lrRMdH85xT/fyjHafsVXvX/dUA/iFWHj2vBKbTDUdP63CnE1LKf6mtWyUa16/+sdX3lk0YAFBayO/+YCEwRY+sDGoP+T50/H2JHnf3d108bg/5hj0eFy0Ee9uZUR9XB7svHtcrp4z4+Giec6qff7TjlMVsyg8gY/f7d97zp7AVlcP1yi9QcPyd4c4oAPxzzcp6pWldwz9bfXvZgl0ARESUNEtXrFoOiVWx8nTe8mk4SyqhKipCn/gsej62Ip5TCyHlj2rqVn3Z6nvMFgwAiIgoaUwhYk7t8FUvgDL7+ovfK0IA192Njts/H8/phQB+tGTlqr+y+j6zAQMAIiJKipoVq24B5I2x8gzc9AjEECsC2GZeg7ZP/hXiqZakxHdr6lZ9wer7zXQMAIiIKCmEQMz1/HuvuR3OvKKo6Y6KKTj/8LcgbfbhrwX8uLau/mar7zmTMQAgIqJRu+HuT80BcGu0dFOxIXzt8LMCnSWVaH/wm5DqsEGAHZBra+6pX2D1vWcqBgBERDRqimI8hRjL/fbecA/s9vj2+XEUVaDtkb+B4Rg2fyFM+VLtffeNs/r+MxEDACIiGpV59fUOAA/GyqPNqU3onM6CEnQ8+K1hgwABTIOublxcV5focsM5jwEAERGNSnFIrgBQGi3dO2MxHK7E62dnQQk6H/xmPGMCrnXC+XOrn0OmYQBARESjIoGHYqUPXnf3iM/tKChF2/1fiyfrQ0tWPPCHVj+LTMIAgIiIRmz58uU2SHwiWrrpyoO9ZPyoruGsmIS2uj8ZNp8U4v/dUHf/NVY/k0zBAICIiEZML6i4AUDUuX29i26JLPYzSo4pc9C1tH64bE4F4n+X19fnW/1cMgEDACIiGjEJeVus9PCM5L2Qi4U3Y2B2zXC5ZoSD8rtWP5dMwACAiIhGzASiBgDS5oStqCJp1xICCN38CMKlE4bL+tQN9zxwazznzGUMAIiIaESW3v1wiQCujZbeP+cGqEpyqxlVUdF9z59imOpLKKb4+cLbHsuz+hmlMwYAREQ0IlLVlgFQo6WHpsxPyXWdnkK01/3RcNmq8xyBr1v3dNIfAwAiIhoZiatiJZsVk1N2afuUueifuyRmHiHwf5bdUz/XkmeTARgAEBHRiJiQi6KmKTbYPQUpvX5o2YPQ3TGv4dBN+QOLHk/aYwBAREQjImIEAP5p86GI1FYxNpsNXXd/aZgy4s4lK+s/EecpcwoDACIiSlhkrr2YFi09NOGKMSmHo3IqBobZZ0BC/hOefpr13UfwgRARUcJCYbkQMeoQrXTimJXFv7QeMasziauWvHvg3rF7OpmBAQARESVMkXJWrHRZWDZmZXE4XOj8eMzNCCGBbyLGdsW5iAEAERElzJRKVax0xT22U/Dl3CXQPUUxMuCqmrpVI9+VKAsxACAiooQJyOjL8SkKbDbXmJbHpijouunRYcqMPxvTQqU5BgBERDQCImoAoOcVIwn7/yRMrZ4L3VMYK8vNNffULxj7kqUnBgBERJQ4KaN2AWgFY9f/fylVKOhe/kjMPMI0v2hJ4dIQAwAiIkqciN4FoBWUW1YspXo+DEes7gfx8PLlnx7b/ok0xQCAiIhGQERta9cLSiwrlaoo6Ft8V6wsReGCQQ4GBAMAIiIaAQk4o6a58y0tW3hOTcx0IcQjcZ4qqzEAICKihAnAES3NTPESwMNxuvPhmxJ9DyApcSe3CmYAQEREiYosq2uPmm5xAAAAg4tujZXsKnAFb7G6jFazWV0AIgBov+Kai1/rLg8AIFBUcfF4KK/4Ynqix3umzIGvrOpinuGOx0O6CxBYtGzUx8OTZiXl69E851Q//2jHKXPVHDzojJnBijmAHy1C1fSY6VKadwNYZ3U5rcQAgNLCyZq6y44NVE7BQOWUUR9vXnh5xRvreDyMwlIM3PbYqI8H596A4NwbRn08XkM952jHk/X8ox2nzGV6HXbVFoqeIQ0CALvdCf+EGfC0noyW5U6ry2g1BgAZonblqnesLkPCJOZYXQTKXKZiPlu7cpXf6nIkQpriO00bGtZaXY5U0yfnBdTzMQIA07S6iAAA74KbYgQAYvLSuvop29c3nLW6nFZhAJApJBZbXQSisSXmQFpdhgRLrCCxvqQMteuZZ7TaulUhRJkJoIR8VhcRAGCMmxoz3RSyFgADAKKxNGnfG6g8tsvqYgzJHhz6pdN5bDdK29Pzb4UID/025unvwsINz1hdPMpOg4gSANj8gzCsLh0AW35x7AwStQCet7qcVmEAQJZw+vrh9PVbXYyEKAEvlIDX6mIkVmZdQ373eauLQVlJegEx5JJ/qq8/LQIAVVERrJwGV/t7UXKIRfGea9n991dpOqarpjJVCjEVkOMAVACohEARJBwAhppa2C+BfgH0A+iRkOeEUFqElOeEKY9WeZQzDQ0NljwuBgBERDQCYjBaiurrtbpwF/mmLYoRAMjLFwt4+mllya79cwBRIyGvAcQCAAsMDUUKACkAfLRvapiuKvGhrwUgJSQAqQi0BGWotq7+iBByr2nKt4SQb4WqyvfseuYZLdXPhgEAERElTALd0cb62we6ELC6gBfopVWxkstr77tvnGrayk3TvF1CuRW7DtRKiOJI8pjMZnACcpGUWCSEeBwQcJzv8dXW1b8uYL6iKMrv3nip4VAqLswAgIiIEiYEWqK9+dr8AzBME6pi/YJAZv4w+xLo6iEDsixS2afHqFMB5AHyLglxl2FK1NatOgLINYo0G7ZvWLs3WddhAJAFNKcHofwiq4sxJFXX4O7vuuy4UVgK01NgdfGGpPgHoQ70XHY8E5+ztDugl1WN4Ixjw952Zsjj3jQus6e/C4qe8tbZ9GeiJdYLshEOQHVZv9qu8BQOl8WavYsTcyUgvm4K9es1dasOCeBXus34+Vtr13aP5qQMALJAT/WVURd4sVpe93ksGmIUuu+Gu4dcGS8duPe+gcItz152PBOfs15WhZ7Hvm518aKq/P6TQx7ft+LJBM80dhZueIYDKwFAyJZYTeTS1w+kQwDgcFtdhOTeDzAXwD/YdPVbNSse+C+7UH64bX3DeyM5l/XtM0RElHEExPFY6cpAV7ynSiklDbohUsQjhHhKhzxWW7fquaV3feqKRE+QtU+GiIhSRxpmzIFp9o4z8Z4qteUc642JhIDucEMfu5YHG4CHTNU4WFv3wH8sWfnghEQ+SFnko03BjU98GwAwo2k9Ko+9CyCy8cv7TdmpPh6vS5uCux//OvTK6g81xWvjqy82ZSd6vPTZ71zsax647bGLXQ/Rjo/mOSd6PB2ec6qff7Tj8bq0yf1kzQq0X7E4ac8/0eP0gcZNL5ytrVs1CGDIwTz5x96G93rru8ySsS2BVBQEC8rgLxqHUH4xQnklCOWXIOwqgO5wwXB6oDtcQwYbiq5B1cOwhfxwBAbh8PXDGeiHa6AHnr7z8PS1QzH0ZNyqDRBPSqk/Wrty1feLNN/3Nm/eHBrmA0RERAmTEjgkgOuHSnQMdELTwrDbHZYWUiQ6lU8IBArLMVhejYHKKfCVTECgaBxMdWTVpWmzw7TZobnyhtx1VEgTroFuFHaeQWH7KRSdPwlHYHAEV7rIA4lv99s8n6xZseqPmzasfjVaRgYAREQ0IgLYiSgBAACY/Z1A+URLyyjjmNoXdhegb8Is9E24Av1VM6E5PXGcOUnlEwoCRRWRbbNnXgsAcPd3ouzMAZSf2QdPX/sIzyzmCIFXautWbVAg/mioTY8YABAR0YgIyB0S4k+ipdvPn7A8ADCMoadshj2F6K5egK7q+Rgsn5IWWxi/L1BUgeaFN6F54U1w93di3Kl3UXn8bdhCI9occ4UJuXzJyvpHdqxrWHdpAgMAIiIaGWHfDhm9/zr/cBP8Cz5uaRGl9kEAIBUVPZPnoH3mx9A3YSbGaKW/UQkUVeDM1bfj3MKbUXFqL6qO7BhJq4BHGvqpjx5kAEBERCOyY93zrbV1q04BmD5UuqvzDPqCPjisXA9AC0HLK0HnnBq0TLsKmivfurKMgqna0T7rWrTPXIzyMwcwZc8WuAbjXgfoN40b1x746EFOAyQiotHYGCtRPXfY0sKpeUXofPRvcHbusoyt/D9ECHRNXYDd9/wZ3rtuJUzbsIMsTZjGd4dKYABAREQjZipyXaz0gt0vW1o+oShoDfphyvRY5z9ZpFAwUDF52GWpBeTzQ739AwwAiIhoFLTKstcB9EVLd3WeRTjgs6x8rQE/wqZp2fVTRkpMf2sDhtnAyDBM299HS2QAQEREI3Zh3/oNsfLYTrxtSdk6Qn74snTjpvLT+1DQGXu1RQH5mzc3/iZqHwwDACIiGhUp8YtY6WWNa6EnZ7W7uA1oYfSEQqM/URpS9DCq3/3tcNnCusTTMc9j9Y0QEVFma9qw+veAPBktXehh4PSBRE45KkHTQJuF3Q6pNvXd38Lp74+ZR0D+cOeGNbE3bLL6RoiIKONJSPFsrAyl256HKVPfF6+bEi1+L7Kw1x8AUNx6DOOP7RwuW7uuu743XCYGAERENGqGYv8pgEC0dJu/H3rLiZSWQUKiJeCFlo2D/gDYg17M2rE6sgtD7AfxVzs3/38Dw52PAQAREY3aznW/bpcCv4yVp+J3z6R0LEB7IIDAGI81GDsSMxtXwx70DpNPvNl47fxfxnNGBgBERJQUdin+CUDUGlgN+qDuSc26AL1aCH1adg76A4Bpb29EScuxmHkk4FMM5Qk8/XRcTSAMAIiIKCm2rW94Twg8FytP2ZvrEPb2x3vKuPh0HR2BwOhPlKYmHN6OqiONw+ZTgC9v3/SbY3Gc8v38REREyWGa4q8lEHMIftGr/520lfmChoEWvzeubX8zUdnZg5j6zuZ4sr60Y/3qnydybgYARESUNE0bGloUiH+KlcfdfBTy4BujvpZummgJeGFmaeVf0nwEs7b/Bhj2/uQ5B+x/kOj5GQAQEVFSmS58H8DZWHkqXv81Qt2tI78GJM5l8Yj/ivd248rX/wfK8IMaBxVp1m1d/+uuRK/BAICIiJKqqaEhIIT4Awzz6jq+4R8Q9g+O6Bqtfh9ChmH1rabE+GM7MWv7aojhgxtDCPHo9g1r947kOgwAiIgo6Xasa3hZCPx7rDzC0FC25h8RDgcTOndb0A9vFq7xL6SJaW9vwPSdL2H4Zn8AwJ/tWNewLp6MQ2EAQEREKRGUoa8BOBorj32gG6W/+S60OKfw9YSC6Atn33Q/h38A83/3s7hG+1/w3cb1q388mmsyACAiopRwwj4PwLBt/I6BTpQ+93cIDbPIzaCmoSOUfdP9is+fwKKN/zrs7n7vk5B/27h+9ddHe12b1TdORETZpfau+6uhir8DxKMARDyfsXu7UfTbnyNwz5chhvhEwNDRGhhuFbzMYgsFMPXdTRh38t3hl/e9QEB8u3H96r9NyvWtfgBERJQdrl/xwCxF4C8A8TgAeyKf7Z+/HOEb66EOUfmHTQPNfm9WTfYraT6CGTtfhMM/7JL97zMh8LUd6xr+b7LKwACAiIhG5fqVDyxUJb4KiIeQYL1iKjZ03PkF2KfOgzpEY4Fmmjjn98JI0sJBVivsOIMpu7egsOO9RD42KCEfb1q35sVkloUBABERJWzxk0/aHW0990LiS0Ji+UjOEaycir4VT8Hhyhsy3ZDZM9c/r6cFU/a8POx6/kM4bprqPW9u/M3hZJeJAQAREcXthnsfnCoM7TPifM/nAVSN6CRCQcfNj0GZfT0cYughAiaAZv8gwhk911+itPkIxh/dieLzx+Pu5//g02K9atqfaNz4XG8qSscAgIiIYlpcX1/kCMh7FIjHpKHfAoi4BvYNxTvjKniXPwaHyxM1jwTQ4vcikKGVvz3oxbiTu1F57E24vCOquwcgxJ83rWv4GeJcEGAkGAAQEdFllt79wHRDVeoUEytkUC6DgHM0G+5oRRXo/sRn4aicCscweVv9XvgybKEfW8iPkpajKDtzACUtRyHkyLotBMQOU+DTTesaTqS8zGP+lIiIKO0svfvhEkMN3ypM3AGBO0xggpAScsTv+hG6uwDdNz0Kdep8OMTwS8+0Bf0YzIDKX5gGCjrPoajtJIraT6Kg4+yIK30AEEAbgG/uWN/wn0jhW/+lGABkmXB+EU7WrLjseOf0RfCWTQAABIoqxux4vAZue+zi12ZhGQBAmzzr4nHTnX8xPdHjvuvvgnJh/rA2edawx0fznBM9ng7POdXPP9rxeDUvuBH2UGR32YHK6qQ+/0SPZ42nn1Zqdu2/AlJcB8iPCSGuMxFeLOSQA/FHxLS70fnxT0HMuhZ2RY3rM52hQJqu8ifhGuhGXu955PWcR353Mwo7z0LRw8k4eVBK/Ego4e/tWLduZBsjjFCS/qkp1WrrVkWNCNuvuAYna+qsLuKQ8rrPY9GGZy47PnDbYwgsWmZ18Ybk3vsGCrc8e9nxTHzO2vhq9Dw26gXDUqby+08OebzxiW9bXbSoFm54Bvnd54dOFOILjesanknsjKlVX1+vtmjKVKmbCyOVPa4HsBhAUSqup+WVoHtpPdTpC6HGWfEDQG84hPagP+HrlZ09AFO1Q3d6oLnyobnyYNiG62T4MFUPwxYOQA0F4AgMwOXthdPXB6e3F05vLzx97VCTU9l/6FEJgV8biu3bb774/OlknzwebAG4xLI76yukgilWl2Mo2brfNRGNzuL6+iK7ppbYpFZpmpgkISYDmKIITDUlZrcE5UzAcIx82F58/FUzMVBzH2zjpyHRi/WHwyOq/N39nZj9+nOXJwgB3e6CFAKGwwUpFBh2J1Q9DGF+MLBQ1UKwhQKjarofyaOSUv6XMOUPdmx6Ib61f1OEAcAlDBueBOTfW10OIspQUv517cpVT47+RNHODxcA94XvCgGUIChVQId5oUH3/apXyrFo4lXQv/Am+Bcuh7OofNjBfUMZ1DScD/pGdPXK429HeU4StnBkzwB7KPHAIjXkOQn8t7CZ/9a0dm2H1aUB2AXwIbV1D/wHIFL3y0tElAV8U+ZicOEtUCZeAZtt5O+Rg5qG1oAPI5ldIEwD1675B9hHGDyMkRCAl6XAr5wDXWu3bt2qW12gS7EF4BISYjIjIiKiywUrp2HgqlsgJ8+B3ekZ0dv+pQb1kVf+QKTvP00rfy8gfieEuV4YznXbU7SITzIwAPiwaqsLQESULnxTF8A7dynkhFlwON1JqzAG9TBaA/4RV/5AjOb/sWcCOCgEtkFio30w/7WtW38RtLpQ8WAAcAmB9BwASEQ0FrSiCgxcWYPw1IWwlVRCVW2JbekXB6+mjbrydw90o6g9oc10kqkDwH4B+bYUynbFsDem81t+LAwALqi5vb4UkIlPUiYiylCB8dPhn341tIlXQJRUwm53QgBwpuh6Xl1DS2D02/pWHn8r4XX1EyGANgk0C4Fz0pRnIXBKSnFQ2I39jWkygC8ZGABcoNr1ySbin7NKRJQpDIcHgclXIFQ5DVrFVMiSStg8BVCFAgGMuj8/Hr4kVf7CNFBx6t3hsm0QML9jKCJfmMIFAbeQIg/StEtF9F2aUYHoM030q6bSp9mU/lKtr2/z5s3puBpR0jEAuMAUtrIxWn2RiChpDIcHWmEZjPxi6IUV0IrHwSgsh5lXBLgLoLryYFMjf+rHqrL/KJ+hodk/+sofAMrOHhp+8J8wv79j3QtvWnCrGYUBwAVCyOJYLUrnFt2K3omzR3WN0opJsNlT1bhGRNlOKAqEUC9+rQjlsn35lAv/pQu/oaPFl5zKHwCqjjQO95QONK574Q2r7zsTMAC4QJooirUqgrdsIrxlE0d1jXJ3ARwquxmIKDf4dR3NAS+Stc5efncLCjpjL54nIP8ZbM6NCwOAC4SQxTJGBKC58pJwDavvkohobFwc8JfEqnjCoW3DZekNIvRcPOciBgAXSSGKYsWMmisJEwQYkxJRDhjQwjgf9Ce18nf4B1B25mDsTBI/27Vhfbqs/Zv2GAC8z5TFsV7RdYc7gZNFwRYAIspyfeEQ2kawsc9wqo40Drdpj2ET4qdW338mYQDwPhF9a8z3d5Ia/SWIiLJXrzayLX2Ho+gaKk8Mt/KfWL9tfYNlqwNlIgYAFynF0drozQT3liYiyjXdoSA6Q4GUnLvyxDuwDX/uH1v9DDINA4CLpCdaimFnAEBEFE1nKIDuUKqWv5cYf7QpZg4B7NuxvuE1q59Dpkmn6aKWElJEfRaGLTmrYZscBEhEWaYj6E9h5Q+UnjsM90BXzDwmxD+Cw6wTxhaAC6SQUbvok9UFYPLnk4iyyPmgD/3hcEqvMWn/1pjpEnjPOdj5v1Y/i0zEAOAioUQLIKVIzuI9Zgo3ryAiGisSQGvAi0FNS+l1SlqOIb+7OWYeAfxg69atutXPJBMxALhAQkadBBijdyDBaxARZTZDSrT4vfAbqa9zJx4Ytlu/Q7rEf1v9TDIVA4ALRIwWgGQt4ccWACLKZLpp4pzfi5BppPxaRW0nUNgxzLK/Av+vsaEhNVMPckDaDAJcfu+9xdfdd1+ZZQWIMQYgWS0ApkzWithERGMrZBo44x8ck8ofACbvHfbtf8Cu6D+x+rnE47r77iuztH6LIm0CgAq7fdCmqeuW3v1wiRXXjzULACI5b+4GGwCIKAMFDB1nfV5o5ti8xBS2v4fCjmHX9PnJ1hdf7LP62Qzn+jsfKbTp6qagLz91UyVGKG0CgIaGBkMKqKYIb1h+773FVpfnUsJITsSrj9EvD1nD1nwY7t0vW12MrOPavQW21uNWFyNnDWphnPUNwhjDFszJ+38/XJagajf/2dIHE4eldz9coqqhzQAm7tvyrM/q8nxU2gQAACCAAQjUhg37G9ffef+ksby2hIy6fqWSpCYvnV0AWUsYGjw7XoC7aS2ch4fbr5zi5Ty4HZ6mF+FpXAuMUdMzfaA3HERLwDemA5gLus6i6PzJ2Jmk/I83XnjhvKUPZxjX33n/JFPRtkGgFpCpnS4xQmkVAEDiwp67cr5qV5pqVtRfN3aXxmC0NJG0AIB9ANlISBOeV34JW1czICXyfv8/cO3jomSj5drzKvJefw6QErb295C37XkkdXs5iqkrFER7cOzH103ZE7sVTQI+Q3F8z6rnEo+aFfXXqXalCZDzI0dEpdVlGko6BQACAtMuficxSQj5xpKV9U+NzcXlQLQ0JUnTXVLWBWDq8Lz5IpTBntScn6ISWgj5m34K54ldlxyV8Lzxv/A0rh1u9zIagpAmPDvWwLNj9YcqfOfB7cj7/bNsCUgxCYnzAT+6Lll73zXYg+p3f5u0v4XRFLceG/btX4H88c51v263+jlFs2Rl/VNCyDcgcWkrtntpXf0Uq8v2UWkzDbBmRf3HAFn1kcMOKeWPa+tW3S6l+MOmDQ0tqSuBiNoCoGqhpFzBSEFDmuLtRf5vfw5b+ynYzx5E/31/DnDvgjFhaz+FvFd+BbVv6L9Frt1bYOs8C+9tn4XpLrC6uBlB+AeRv+U/YW85OmS680gT1N42+G59AkZxWr5UZTRDmmjx+z40x1/VQrjytV/B09+BoraTOHbjQwjml6bg6hLVu7cMl6nfDCvft/o5DWXJygcnmNL4qZSybqh0A/KTAH5gdTkvlZwl7pJgyuw53wLE4ijJVwiBz06+cl7vuYc+uRtbtya9Jp08e84SQNw4VJqQJpoX3JSU6xTbXVCSsa6AacB5aAcKfvdzqP2RCkjxD8DWehza9KuAJO1fQJdTgj64m9bCs/V5KEFv7LwDXXAcfQtmcQWMkvFWFz2t2U/tQeHGf4fa0xozn+Lrg/PQDggA+rhqQEmbP2MZLWwYOPuROf72oBdzX/1v5PW2AQAcgUGMO/kupKrCWzYxsoBqklSc2oPxx3bGzCMgvte4qeG3Vj+rD3n6aWVJQfnnJMwXBbAoRs5JMyeMe+b06dNp0yyYFr85N9Tdf42A8hPE7pJwAaibfL7z3olz5pxoPnr4VDLLMHn2vI8BuHWotEgAsDwpP+wFdjvsyujO4zhzEPmb/wPOI00Q+ofX4Va9vXCcPgBt8hxIV14yH1HOE0Ev3LtfQf6Wn8PeegIizhYdoYXgOP4O1L4O6OOnQzpcVt9KWlF8fcjb+j/w7FwPEWdrm5Am7C1H4TzyJmBzwCibwEBgFHy6huaA90PjlPJ6z2PuK/8FT3/Hh/Iqpo7i1uOoOL0XmqsA/qJxo14sTZgGZm97DrZwzDEH3YbufKjlxP7kNMkmQW1d/c2T2zrWAHgSkToq+j0CFYbLM3Du6KGm+M6eeslZ4m4Ult79cImpaNs+GCwRd9Ffk1J+p2nD6leTUY7aulVfAvBv0dLf/uQ3oDk9CZxxaOPdHhTbnYl/0DTgPLUHzn2vwTbcCFkA0u6Av/Z+hObdmLSVDHOV2tMK1/5tcB5pAvTRbXwi7U4Er7kdwatvhVRzvJVGC8O9+2W49myB0Eb3XE13AULzP47QvCUw84qtvrOM0hcOoT0UgLxQ+QvTxMSDWzF532txDYD2lVSh7coadE5bBHOEP9NVh3dg2jsbY+YRUnxtx4aGtGj+X7pi1XJT4JsAbk7kcxLwQchlTevW7Lb6HgCLA4CFtz2Wl+8IbIlMkxixtwDxr47BvIatW38x4oUWalc+8CikeDZa+u6Vf4ZAUcWo77nU6cI4pzvu/Iq/H45DO+A6sA2Krz/h6+mV0+CvvQ/6hFmjLnsuUYI+OE7sguNIE2ztp5N+fukpQOCqTyA0/0bIkQSEGUxoQTj3vw7XnlehBAZHf8JLSKFAnzIXoTm10KbOZ5A1jM5Q4IOtfKVE6bnDqN7zO7j7OxM+l+50o2PGtWi74joEC+Jf9E7Vgli89gewhaLOxIYA2oIIzdi1fr0/7hMn2bz6ekdh0HxAQPwxgJpRnKpDCHHjjnUNR0dxjqSwLAC4sa5+mi7kC5C4Kkmn7JLAs4qQz+1Yt+adRD9cs7L+DiHl5mjpBz/xB+gfP33Uhcy32THJkx8zj+Lrg+PkHjhOvgtb6wkkYxshbcpcBBfdAm3yHLYIRKEM9sB+9iCcJ3bD1npsTEabS1c+QnOXIDj/RpgFqRhYlT7U/i44Dm6D63AjRDD1a6JIuxNa9QKEZ14NbeJsdoldwoREq98Hr65BSBNlZw5gwuHtyO9qHv3JAfhKJ6K7eh66pyxAoDB2MDBl9xZMOrA1Zh4h5Rd3bFjzUyueVe1d9VcJVT4igccBjEvSadslxKea1je8bsU9vc+SmqBm5ap6IfETAKlZG1nIYxJ4SUjxSgih7fFEjcvuqZ9rmPJgtPRjyx5E19SFoy6aQ1EwPb/ow8U1dKjtp2FrPQbHmYOwtb2HVO0daBRXIjRvGcIzr4GZb8mqy2lDCfpgbz4CW/MR2M4dgTrQZVlZLr65zr4e2vRF2fPmqofhOLUXjmM74ThzCNbtiSmgj5sCfdKV0CbNhj5hZvY84wRppolmvxdqTyvKz+zDuOPvwJHklphL+Ysr0TvpSvRXTsNgRTWMS1q8nL4+XL3u/0GJ0bUmgUPOwa5FY7Xl7/Lln3aF8r1LANwCgXsEMDdFl9Ih8HXHQNcPrdrOeEwDgNp7PzUDhvkvgLxrDC8bAkQjgFcFjFcL9cDuzZs3XzaIZHl9fX44KKP+Frx37d04P2dJUgo0RxWwdbfC1n4KtpbjsLWfgtDH+t9fQJ8wA6HpV0OfPBdGaXaPUBfShNLbBlvXOdg6zsLWegxqZwvScZNmaXdBq54PrXouwlPmQXoKrS5SQhR/P+xnD8N+9gDspw9CaGm3BDqkzQZ9/AzoE2bCqJgCvXxy1gfEQprQ204hfHIvSs4cgKevbczLIBUFvtIJGBg3DQMV1Rh/4i0UtxyL/RlT3tG0cc3vUlWmefX1jhI/FpiqvAUStwJYCiD+ftpRE3sh8cXGDQ1jPjhwTAKAG+59cKowtG8IiMcBWB126wBOQmA/TBwAxEEpzAO+kOdcvjPQDKB4qA+1zFuGM9fcGfdFVC0Ep78fDl8fnL5+ePra4OlrR17vedhC6bd7pVlQGnkzqpwOvWo6zJLxSdsFcczpYai9bbB1NcPWeQ5q59nIKn2jHMBnCSFglE+ENmUetMlzoVdOh7SlzfIdkSLqOmztJ2E/exi2swdh627JyBX7THf+hWBgSuT/FZMi3TIZOrtA6DrUrrOwtb0HW9tJ2JqPQEnDvz3D2Ni4fvWKZJyopr7ejRAmQprzBZR5gLkAUOYBcjasr5ckJNYrUvzt9o0Nu0Z/uvikMgAQtXX1NwH4EiDvQRotOhSNFDCFHHoqYqBwHDqnLYJUI8nClFC1EFQtCNUIQ9E02LQA7AEvnL5+qGn41pPQs7C7YJSOh1FUCbOkEmbxOOhFlTBKxgE26xcaUgKDUAa6oPR3QRnohNrfBaW/I/J/f+KDJTOGosIoroQxbgr0skkwKiZBL58MmYQZKvEQIT9sXeegdjZH/t/VDLW3LXtX51NUGPklMIvHwSysgFFUAbOoHEZhOYzCirRYdEsEvVD7OqD2dUDpbYfa3x75vrcdMC1pWU7q3QHytATaBEQfhPRBSh8gegWEX0KGAEAAqgQuNpVJKfOEUKoAWQmgAsAEABmxGpeQ4hUo8if2ga51qe4aSHoAUHvvp2YIw3xECvMRSHFFKgtP1jDzS2AWlMJ05kG68yFd+TDd+ZDuAkinB6Y7H1BskKoK2D7o75M2O+QlCxSJcADClEDYDyEv/N+UEFoQQgtBCXgh/P2R/wcGIfwDkYo/4M3eCmeETE8RzIISyLziSIWVXwIzvxgyvxRStUPaHIBqg3S4IBUF0hFp4Yz8G5gQ4SBg6JF1JfQwFG8vVF8fhLcXqrcXwtcHZbA3u4OrkbA5YHgKIN1FMD0XfhfyCiHdhTBd+YBqg+l0QQgV0u6KtN6ojui/C+/TLnyvh6AEvRABL5SAD0pwECLoi/wXGIQ60DUmAyrJEi1SyOcA/DpV0wZHHwA8/bRSu2vfYgmxQghxNySuScp5iYiICACOAtgAiE39Lmw/2NCQlP7MEVXUNbfXlwqHeROkuAsCdwPgotxERESpNyiBlxVgs4DYsn19w9mRniiuAGDJypUFhrBfr5jiVgjcComrkV47CRIREeWi8wLYLoV4RUhzx471a+KebztkAHD9nY8UCkfwOlb4REREGaVdANtMIXaoBrZv/9i83Xj66SE3ILosAFh422N5Hqdvts1Uc68f36bapGm8ISGHnBJyct4tCDiSN5BU5udxtAQRjZowDCAQBmTabDQ3pDxvN6Yd344YL6gvKab4O6vLmVUUdEbrJmD18xG1dfV7ADnklo7vzV2O9vKZybuYxw3psHr6KRFlMhEKA4EQ0nFRq0sppoEF766B2z8QLUu3A/Yrt67/tXVLcuYYNut/hBByb7S0os7TSb2WHPPV/4goa0gT8PqBQBDpXvkDwMRzu2NV/pASX2HlP7bSfnGesSaBfdHSinqSs1HG+4SuQ0KCDTFElBDdhPD7ATO9m/zf5/H1YMLZfbGyvN60YfWz8Z6PkoMtAB9hxmgBUA0dqkhipG1KwMiMX2AiSg8iHIbw+TKm8hfSxPRj2yCij08Im6b6RWRCM0aWYQDwEfawsjdWuiOU5FW3wuwGIKI4mBLwBgB/MKP2Wph0ZjfyB2O07At8782NvzlsdTlzEQOAj3hjc0MngPPR0gsHkruDltA0q2+ZiNKc0HUIrxdCz6y/F3neLkw4F+udShwo0nzfs7qcuYoBwBAkEHVbxvKWI8m9mGkCBte1J6IoAsHIm7+ZOW/9QGTU/4yjMZv+dSHMzwy1PTuNDQYAQ1CEeC1aWkF/G0Syx+yxG4CIPsowIAa9kWl+Gdg9Pvn0O/D4eqJnkPj7HevWvGN1OXMZA4ChSPO1WMl2PbkBqwhn4D71RJQyIqxBeP0ZO0i4sL8NVc37Y2XZHZpQ+l2ry5nrGAAM4cJayu3R0ov6zydwtjhICaGxFYAo510c6BfIqIF+l7LpIcw4sjVWlpBUxBO7nnkmswY0ZCEGAEOTEng9WuK45gPJvyBbAYhyWqYO9PuoGce2wRnyxrhRfKvppYb98Z+RUoUBQBRCiK3R0gr62qAkeRyA0PS0X8ebiFIkEIys6pdhA/0+qrL1EEq6zsTIId6c6BT/1+pyUgQDgCjkMOMA3MH+5F80lNmRPxElSDcvGeiX2Ty+HlSf2hk1XQI+xVCeaGho4LSnNMEAIIqm9WuOAGiNll7edjzp1xShcMb2+xFRYkQoDOH1ZuxAv0spho5Zh38PxYxetytC/tH2Tb85ZnVZ6QMMAGKSW6KljGs+iKTPB+RgQKLsd2F6X2QTn+ww7UQT3P6+GDnkszvWrfml1eWkD2MAEJN4MVqKamhwaoHkXzJD5/wS0XAkEAxCDPqy4q3/feXtx1HRfjRWlhNCaH9kdTnpcgwAYpAusUUCURf/H9ee/G4AGAaExi4yoqxiGBADPohg5vf1XyrP243px7fHyhKSQn5yx7p1g1aXlS7HACCGpoaGgIB4OVp61XvvJr8bAACCmbG/NxENRwKBC2/9GbJ7X7xsehCzDr0Ss98fwFea1q3ZbXVZaWgMAIYjzDXRkhRTg0vzJ/+ahsmxAESZTjcgBvxZMcL/o4SUmHV4K1zBWC/2Yk3j+tX/bnVZKToGAMNwOJUXAUSt5ce3HEzNhYPcH4MoY/mDEF4fYGZnd96U995GUW9z1HQJvOdQtT+wupwUGwOAYWxtaPBCYl209Mqz+yBECh6jYXKPAKIMIzQdYsCb1b+7ZZ2nUNUScyG/gGqK+q0vvthndVkpNpvVBcgEQhG/llI+OGSaNFHg68SApyz5Fw6EALs9NeMMCBM8dtw0oQDzStwod9nhUgW6gjrOesPY3ubFu91+mFyXgeJhSiAQALK86y5/sAvTj22LtV6JhMBnt29s2GV1WWl4rFniMK++3lEUlOcAjBsq3Vc4DvuvugepGLgnXU7A5bT6EWSVWUUufHn+ONw4viBmvvN+Df9+uAPrzvRl+gqtlEIiGAJCoawft+sI+TF/z4twhKKPe5JCfr9p3ZqvWV1Wio9qdQEyQeehQ8akK+eMExBLhkp3hHxom7IIZgq6AoRuAg62AiRL/bQS/LhmCqYVDB9UFdhV3DyhENdX5GNbuxcBPbtGcdPoCM2A8Puz/q0fAFRdw9z9G+EKRB/0J6R4ZaJLfObQoUNZHgplDwYAcZo6Y+EZqcinEK3VxO5Af2Flai5uXAgCaFT+fNF4/Mm8SiiXBFP9/X14Z+db2PX229j11ts4fuwEdF1D5fjxF/NUeey4ZUIhftc8gEAWLeBCIyQvTO0LBnNi6W4hJWYd+T0K+9tiPZTTDmG/fdPa3/jiPjFZjq+VCaitq38dkDcOmSgE3vr4H8BMVVuxxw3JIGDEPjm9BN+8esLF770Dg1jzv2vQtH37h/r5VVXFV/7iq5g1+4rLzrGn24/PvXEGYQYBOUuEwpEZOjlQ8b9v6olGjG89FDVdAj4oooZb/GYezgJIgJCIPqdVSpT2nk3dxQO58baRCuPcdvz5wqqL33e0d+C7f/cd7HjjjcsG+V17/XVDVv4AcFWZB4/OKLX6dsgKhhFZzCfHfg+rmvfHrPwRGfT3GVb+mYkBQALs3s41AKLW8lMPvQ4oKWpUudDsSIn70twKuNTIv0swGMS//uhf0NXROWTe6qlTYp7rc7PLUWBnz1nOMGVkTv+gDzCyc05/NGUdJ2Nu7wsAEPjLpnWrG6wuK40MA4AEbN26VYfAv0VLt2lBFPp6U3Z9EdYgNM3qx5BRHKqCOyYVXfx+y6bfou38+aj5m881xzxfoUPFLRNjzx6gLCBlZLveweye0x9NYV8LZh59PXYmiZ81rlv9T1aXlUaOAUCCHIr+DABvtPTpB18GUrEw0Pv8QUCyDzpe11d4kGeL/HuYhoHXXv19zPw7G9/EqZMnP3QsHA5j/959F7//+HgGANlLQoS0D7brzaHm/vcVDHZg9sGXIWL+nRGbHN6uL1ldVhodtmUm6PSRI8HJV8yphBA3DJVu00Loq5qBsJq6uftCNzg1ME63TChETWU+AODUqVN47ZXYAYCUEjsbd8I0DUACRw8fwS9+9l/oaO/A9TWRf3JFAX59ssfqW6MkE7oB4QsA4XDWz+mPxuPvxZz9m2HTY7Q0CuxyuMSKrZs2sU8yw3ElwBEwDPkD1Sa+CMAxVPrM/S9jz7WrUvf2YBiRhUdcLqsfRdord3/wI97V0RXXZzQtjPVrP7z6s9vtvvj1OBdnY2QVw4z8PoVzu3vNGfTiyv2/hU2LtQ+JPK3pyorGdQ3euE9MaYtdACOwc/MLzRLy2WjpLl8v8sIDKS2DCIa5Y2AcPhSDjaLFxH7JFEx2wGSJiwP8vBA5Xvk7wj7M2b8JjlDMafz9MM26tzc1tMV7XkpvDABGyJT4RwBRhwXP2vPbSFtxKvkDOTcyOVFdgQ+CpPKKke/XUFb+wWc7A7ldWWS8HB/g91H2cABz9m2GKxD9pUUCPlOYdzduXHvA6vJS8jAAGKGdG9YcB+TqaOmuQD+KvJ2JnDJxUkb6LHNwoFK8Tg5+0E05bdo05OXnjeg88xcs+OCcA9yqOVOJcDgn5/NHY9eCmLNvI9z+vljZwgpQ/+a6F3ZYXV5KLgYAo6BI83uIMVxo1t7NEEqKx1maJoTXn7ODloazs9MP34U1/BVVxU233pzwOcrKy7Domqsufv/a+cGEz0HWEmENYsAbmUVjshMHAOxaAHP2boQnduVvQIpHdqxfvdnq8lLyMQAYhe0b1u4FsClauk0LorTvXOoLYhiA3z/682ShsGFi87n+i9/fftedqJpQFffnFSHw8OOPwm6PjAHoDxt4rZUBQGaQl1T8AVb8l4i8+W+Gxx9z3RJTQjzeuKFhdbznpczCAGCUBMy/j5U+Y98WCDX1j1loOuALgE0Bl/vJoU4EjchzcTqdeOrP/hQV4yqG/ZyiqnjoicewYNHCi8d+fqQLgxrHXaQ7oekQg35W/EOI9PlvgscXcyqrlMCXmtY3PGd1eSl1uA7AKJ07drh50uy5ywUwdah0IU0Y7nx480Y+AC1ewjQj9b+dszsv5dNN9IV0fLwqsoBPXl4erq+9AX6fH+fOnRuyL7h62lQ8+cUv4Jprr7l47N0uP76z5zxStd8TjZ7QdAh/AAiF2cc/BGfIi7nD9/lDQP6fxvVr/tXq8lJqcSWZJFh6zwPXm6ZoRIwWlbeX/wHGahM56XQAbq4R8FFfXTgeT8z6cCA2MDCA/Xv2oqO9A6FwGKUlJbhyzhxMnjoF4pJpg2cGw3h823voCXLqZToSuh7ZpU9n60w07kA/rty3Cc7QcDv2im80rm/4jtXlpdRjAJAkS+pW/VQCX4iW3lM5A8dm3zRm5ZEOB+BhEPBRj84qw1fnV0JNYNOmNzt8+OrOc+gPs3JJN6z44+Px9+LKfZvhCA8zVkjim40bVv99fGelTMcugCQZt2jeGzYdTwAYcqF4t68XfVWzUrpE8KWEYUQWOmF3wIfs6wngldZBVLrtmFYQ+9+i1a/he3va8MMDbRfHEFB6EGHtg6Z+9snElD/YiTn7NsOuBWJlkxL4StMGbu6TS9gCkES1Kx94FFJEXSFQtzmxa9kTkGPVFwBA2uxAnis79w2QJoRuQDVNOLQAQnYPDLst7gWYqjx2LK8qwPwSNyrcdrhUgY6gjrPeMLa3DWJPdwAm+5HTh4yM6o9U+hzYF4/innOYdfhVqEbMrisphPiTHesa2OefY7KwVrDWkhX1L0shb42W3j5lId6bej3GdLS+qkLmeYAEmr3TlmFA6CacWhDlrYdRdWoXbOEP3myO3lCPnvJJ2XGvFGFKIByOrNrHt/24jTt/BNNO7ICIHcQaUuKzTRtW/8rq8tLY41/JJKu96/5qqMp+ROkKAID9NZ+Czz7GW8oqSiQIGIMpiUllGFAME6qpo6C3DWUth1DeejTmR9694ymEHI44L0BpyzSBYPjCOv2s+OMmJaacfgcTzu0dLqcBiM80rm94Np7TUvZhAJACNXWrviCAn0ZL1+1OvLv0cZhj3a8sBOBxQdrTcTc7CRgSwjAgpITd0JHfdx7lLQdR2n4qoSbfs1ffgZbJc62+IRopw4hU/Br3XEiUME3MPPY6yjpODpc1KCEfalq/5kWry0zWYQCQGmJJ3apNErgjWoauiVfixIyllhROupyAa2wGIw7JlBCmARgmFAA2Q4OnvwNFne+h7Pzx4XYkG9bxGx9FV/E46+6PRkRoGmQoDMER/SNi08O44uAWFPYPu1lfL4R5b+O6F7ZZXWayFoeIp4YUEF+QkPsBFA6VobzlCDomzMWAu3TMCycuTJuSHldqdiyUAKQBYcjIwC0AimnCpofh9vagoKcFhd1nUdDflvTBXIYrD72s/DPHhZ35ENYi+1pYXZ4M5fb3YfbBl+EK9A+TU54TwJ071r1w0Ooyk/X4+5ZCS+oe+KSE+E20dFO1YfeSx6Ar9kgPpzTHtqtTEYDbDRlrqqCUFyr0SNmElBdWWJMABBREKnfV1GELBeAI9MPp74fb24P8/vPI60/xjoiXGJi2CMcW3AqN/cXpT9eBkMZm/iSIjPR/Daox7NbGB22K7c5tLz0/BhuUUCZgAJBiS1au+qWUeDze/JrTjbCzAGF3PsKOPOhOD3S7C4bNDlOxQbc7IKFe/N4UCkxVhbxkEUIpBKQY+s1eMU28H2Uo0oQwDUinC6quA8KELRyCMCVs2iCEIWHTgrCHg7CFfXAEfXCEBuH0D8KmBeO5nRRT0D9jEdpnLEa/uwg6p+ylt/en8YW1SD8/jY6UmNC8D1Peezue3E26zah7a+3abquLTemDAUCKLbztsbx8Z2AXgNlWlyUbTL62FtcuvwktcOPHx3s5Tz8TGGZkGl9o2DdUipNiGphxbFs8g/0gBNaaTvFIU0NDII5TUw5hADAGlqx84FopxQ4AnJuWoClXX4dFy2/GlZOrUF3sgePCNEbdNLFs/RF4dQYAaUnKyA6V4TCX6U0yZ8iLWYdeQf5g17B5pZDfb7pmwV/i6ae5chJdhgHAGKldWf9FSPnvVpcjnU2onoYrlnwc02fNwOSKElTmOWGLMUhxw3s9+Kt3z1tdbLqE0HXIsBap/Nk6k3Ql3Wcw4+jrsOnDtqaEAPGHjesbfmF1mSl9MQAYQ7UrVv0nBD5rdTmsZrM7MGPuPFxxQw2mVk/FhJJ8FLvsUBOckaCZJpasP4IAWwGsZRhAWI+s1MdKPyWElJh4djcmnXk3nuytiiLv3/7Smp1Wl5vSG6cBjiGHN/+PwoXeRZBYbHVZUq2wuBCTp89C1Zz5qKyeinElRSjLc6HQYYPLpiRlbwK7ouCvF1Tim7uHnfdMySZNiLDOAX1jwBH2Y9ah36NgIK6f890KxL3bX1p91upyU/pjC8AYu7GufpoO+TaAslGfbIwVFRehYuZsFI8bj8LxE1FcWoriwjwUul3Id9rhsavw2CIVvDJGa/Hrhonlm45xq96xYJqRJn5Ng9A+mE1CqVPU24yZR16DXQvFkVs+6xgseHLr1l+kwxQdygAMACxQU1f/cQG5BVEGBXry8vDIH34RZePGQZdAyDChmRJB3YQhgaCuQzclQtrlO3z5ExhprdpUONUPdoRWFAG33QanqsKhCuTZVdhVAYcQKLArcDjs8LjdsNvSaxfp11v68NSbLVYXIzuZMrJCn6ZD6Proz0dxUaSBKafewvjWQ/F0q+gS+Kum9at/YHW5KbMwALBIbV39pwH539HSXW43Hv3jP8W08eVWF/UyDocDeW4XbGkSCJiQuHfLCbw3yGlmSXGh0kdYBwxW+mPN4+/FjCNbkeeNa8p+h6nIR958ac0rVpebMk96/AXPQeeOHdoz+Yq5HggsGSpd13Xsf/stVF65ABWFeVYX90MMw0AwFEJY06AIAZuanD79kRIQuKrEjYbTfVY/mgwlI3P1QxpEMAQRDEZW6pOcOTampMT41kOYdfhVOOPaD0O8phniE29tWL3P6qJTZmIAYKFzD3/y95PbOuYBGHLrOtMwcHjX26iYswDj0iwIAADTlAiFNYRCYZgSUFUFikWBQIXbjiO9AZz2shUgLqYZmaoXDEMEQhChMIRhcBS/RRxhP2YfegWV5w9HltuOzZACTzctnv/51p/9+6DVZafMxS4Ai82rr3cUBeV6ALdFy2O323HPH38FV0+qsLq4w7LZVLgcTjidjjEbCPi+vpCGmzYdh26yEhuSYQCaHqn4OXI/PUiJ8o6TmHqqCba4BvqhE8CjjetXb7G66JT52AJgsc5Dh4wJM65epyjGHQCqhspjmiYO72yCrJ6D6eWFCV5hbJmmRFjTEAyGoJs6pJRQFBViDFoGXDYVRTaBN9pHt51w1jDMSF9+KAThD0CEtchWu3zLTwvO4CBmH3kVVc37oZhxBWS/1wzxiZ0bV++1uuyUHdgCkCauX/lQpSq17QBmRssjhMA1j3we919zhdXFTZjdboPTbofDYYeqpi7uNKTEit8dR7MvB3eZMwwI3YA0DK7El+bGnT+C6lM7oRpx/ZwGIfCNxmvm/4hL+lIyMQBIIzfe8+BkzdRfF8C0WPmuvP8xPLJkoWX97aOlKArsNhvsdhscdlvSA4JjfQE88Oopq28ztaQJoZsfVPamyQo/A7j9fZh+bBsKBjri/IQ4AAOPNW5q2GN12Sn7sAsgjZw5emBg6ux5ayXkfYAojpav6/A+HEcerpo+GWoGBgFSShiGgbCmIRAMIRgMQ9d1GKaERGQ9gtF0GZS57PCFdeztzZL1UKSE0I3IPPxwODJSPxACNDbpZwpFGph4dg9mHt0KV9Abz0dMAD8u0n31r21+iYtcUEpkXu2RA2rvur8aqvI6gOpY+fI/dhO+cN8dKHVlXxynqArsqgqbzQabqkJVFaiKGvdPrG6YuGPLCbT7M6grQMrI6Hwz8mYP3eTI/CxQ3HMW0040whlfxQ9AnoaQTzSue2Gb1WWn7MYAIE0tvetTV5iq/gogJsfMOH0+Pv3og5hV7LK6yKknBFRFgU1VoKgqbBeCAkURUFUFH/1xPtEXwH3p2BVgSgjTAEwJqRsXKn0j8s7H5XWzhiswgGknGlHU2xzvRyQgf+ZwKf9na0NDvNEC0YgxAEhjS+vqp5iQrwCYFTNjUTlWPPkUaqryrS6ypSJdB8rF9QiEouKbu9vwStsYzQowZaS5XpqRr00T8uJbvbz4hk/ZTTF0TDy7B1UtcY/uByBPmgr+kCv60VhiAJDmrl/5UKVNalsksDBWPmmz4+rPfRmrZlfyH/USvSEDX3j9NLpDBiAAiQurFgokvnrh+03xUkKYAHDJwDuuPUAAyttPYMp7b8ER9sf7EQ3ADx2D+U9zEx8aa6wrMsB1991XZtPVTQCuGy5v0YrH8MWl81HgyL5xASN1sCeAr7xxBjrraEqRwr5WVJ/aGe/6/e9rgmk82bhx7QGry0+5ibVEBmg5ciQwbvaM52zStgACs2PlDR3bh9e7dUydVo1Sp83qoqeFcW47nKqCXZ1cIIiSy+Prxcyjr2PymV1whANxfUYCPgF8a6JLfP53L65pt/oeKHcxAMgQ548d025YNK9hUEc5gI/Fyqu0ncZbew8hMPlKXFnitrroaWFemRtdAR3H+9nKSqPnCnox9WQTpp7YAVdgIN6PSQDPQ4qVTRtWbz506BDbpMhS7ALIQEtW1P+5FPIfACix8klFwfgHPo8nr5sBl6rEefbspZkSX91xFge643tTI/ooR9iPCef2Ytz5IwkM8AMgsMuE+advrnthh9X3QPQ+tgBkoHPHDjVOmT33bQArAESd/yekhO/QLrzeHkDVlGpUuO1WF91SqhCoGV+AN1oH4dU4Gp/iZ9NDmHRmN2YeeQ0FA+3x7Nj3vm4pxF9Pcoont6xdc8bq+yC6FFsAMlhkrQDjJQBXDpc3WFCGWQ98Gp+bPx72Md6lL920+ML48htn0RPUrS4KpTlHOICq5n2obD2U2Bt/ZHT/T0Iu8a1dDQ39Vt8H0VByuybIAjW315cKh/w1YmwnfCl5wx347O3LMLPIaXXRLXWqP4Sv7DiLwTC3xaXLOYODqGo5kHhTPyAB8ZIhza/t3LDmuNX3QRQLA4DsIGrrVn0NwHcQR7eOXlSGxQ9+DvdfMQ62HP4J2NcdwF82nkPIYHcARXh8PZjQvB9lHScSaeYHAAiIHTDlX+3YuPoNq++DKB45/Oc/+yxdsWq5KfAcgKp48ivX3YYHP7EM88pyd6bAOx0+fGtnC4OAXCaBor4WTGjeh6LeEe27s18K/F3TutUNVt8KUSIYAGSZZfffX2VoyrMAboknv+YqQNW9j+Mzi6ag2JmbY0L3dQfw143nEGAQkFMUQ0dF+3GMbz0It79vBGeQhwF8s3H9mhfATRwoA+XmX/wsdvbwYe+5hz/5P5NbOwcg8HEAMVcDUvUw/AfexmvHziJQORVXFLtHtRVvJqr02DG/3I03WgehcUnfrOcM+TDx3F7MPLoVZV3vwa4lujaEPAkpvjrRrfzh79auPmj1/RCNVG79pc8xy+6pn2uY8n8AXB3vZzw1d+Dem5fkZLfAwZ4AvvFmMwY4MDD7XGjmH996CCXdI56Nd1BK/JPT2/Xc1q1bOYWEMh4DgCx35513Ovtted8C8OcA4loIQAoV7ts/hUdumIfphbk1W6DVF8ZfNjajxRe2uiiUBPZwEBXtR1HZehjO0Eh32BVvS5jfbVq/5iWwqZ+yCAOAHFFzT/0CYeI/AfmxeD+jOz2YVPcQHl48C2U5tK9AT1DHXzc1c9ngTCWBwv5WjG89jJLuM5HtmUdAQOwQ0vzH7RvWbAArfspCDAByyPLly23hwvKvQOLbADxxfzC/BHMfeBh3z5mC4hzZZdCvm/juO61oahvpWyONtTxfDyrajqKs4xTs2oiXe9Yh8KIU+FHTS6sbrb4nolRiAJCDalbUTxTC/B4gHkvkc2Z+IaaseAgPzJ+GcZ7sbxGQAH5zvBs/P9QFmeCccBobjrAf5e3HUdF+FG5/3JvyDGUAwC9gmD9s3PQCl+ylnMAAIIfV1tXfLCF/LIC5iXzOcBdg0l2fRN2iGajOd1h9Gyn3essA/undNgQ5TTAt2LUgyjpPoqzjJAoGOkZ7uuNSiH/zBV0/37flWe4XTTmFAUCOm1df7ygK4CkI+Q0AJQl9WFEx4ZaV+Ph1V2N+Wfw9Cpno9EAIf/t2K84MhqwuSk5yaAGUdr6H0s6TKBzoAEbXImMA+C2Af2lcv/plsH+fchQDAAIALL374RJTCf8FgD9FjB0Go1HmLMaiG2/GbdPKUZil4wTChsTPDnbihVM9VhclJ7gD/SjrOIWS7tPI83Yn45QtAP7HVG0/ffPF509bfX9EVmMAQB+y9O4HppsKngbEwxjBQlFmYTmqP7ESN8+dhitKsnMtgd83D+BHe9rg19klkEyKNFHY24rS7tMo6mkexbS9DwlJ4CVFiJ/vuGbeq3j6af6jEV3AAICGVFP3wJVCim9D4JMAlIRPIATy5y7G3NobUTN1HMa5s2vQYLtfww92t+HdTnYbj4Yz5EdJ1ymU9JxDQX9bojvvxXJQQP6nHY5nt67/dZfV90mUjhgAUEy1d983H4ryDUCswgiXjjYVFc6P3YJrFl+NpZNKUOrKjmBAAth0ug8/PdDB1oA42bUQinrPobi3BQV9rXCGkhpAnQHwvCKNX2/fsHav1fdKlO4YAFBcbqyrn6ZDfhnA5wGMuG3fcLpRcd1yLFy0EIsnZEcwcN6v4YdsDRiSTQ+jsK8VxT3NKOxvhSswqql6Q+kB5EZTwa/efGnNq+CAPqK4MQCghFy/8qFKVYb/GBBPAqgYzblMRYVr7rWYds31mD+xDAvLPLApmfsj+WabF/+8tw0dgRxdJl4CrrAXhT3NKBxoh2ewCx5/byqu1CuBdTDlr52+7le5Lj/RyGTuX1uy1J133unss+etFBJ/BqBmtOeTQkCrnIyJV9VgzqzpuKqyEJWeuLYuSCs+zcR/H+nES6f6YGb54kF2LYj8wU7k97ehYKATed4OqEbK6uIzgPydIrGh16387mBDAzdrIBolBgA0ajX3rKoVBj4HgVUACpNxTlNRoUy5EuULFmPa5AmYXZaPWcUu2DLkJ/ZEfwg/PdCB3VnRLSDhDPuRN9CJgoF25A12w+Prhk1P6ZoIEhC7BfCSNLCucVPDHqufAlG2yZA/p5QJFtfVeVzSeZ8UeALALRjJ7IEoDNWOUGkVSudeg8nVUzBrXDGqC12YkGeHItL3x3hnuxf/caAzMxYQkoBDD8Dt60X+QCc8vm64Av1w+/uSOTo/ln4h8HsJ8bJNqBu2vfT8OasfCVE2S9+/nJTRlqx8cIIJo15IfAaQi1JxDd3mQrBiEtyz5qOyagImlRSiusiN6gJHWnUfGFJi85l+/OpwF7pDFndXS8BuhuAIeOH298Lj64Y7MABnYBCuQP9YVfQXHw0E9kDiFVORrww6lG1s2icaOwwAKOWW3vPA9YaBR4UQKwFMSeW1pFAQcBfCLB+P/MmzkFc+DmXFxSjLd2K8x44Klx2VHjuKnWO/WmHIMLHhdD+eP96NnmBqAgEBCbsehD3khzPohdvXA1fAC0fYB0dwEK7g4Ii3x00CKYHDAvJ1KZWXw278fldDQ79VhSHKdQwAaEwtqXtgnoRYISDqJGQtxvBn0LDZEXLkQ3PmwSgqR/74iXAXl8KZl498twsFLhvy7XYUOlUU2lUUOBQUOlQUOmywCcChCjjV0fdqhHQT68/04/ljXegNxXjjloACE6qpQzF0qHoYNi0AZ9gPR9ALR8gLezgAmxaEXQtGvk5tv3yidAjshcQOKbDdKe2vcVEeovTBAIAss2TlgxMkjBWQciWAmzGK9QWSyVRs0O0O6KoTut0B88L/DZsTms0FoShwu53QVTtcTgcUoUB1uWBTI60KipQQpgkh36/cJRQj8rVq6FBMHaoRhhYOo6O9E0KaUA0dwtShGlqkotfDUI2Maw3vAPC2ENgBA9vtvvy3t279RdDqQhHR0BgAUFpYXFfncUvHLaaC5ZBiKYBrAGT+KkHZq0MCu4TALinlLrti38VBe0SZhQEApaXl9fX5Wgg1pjSXCoiPA7gOadJCkGN0ACcBcUBAHjIh32VlT5QdGABQRphXX+8oCBkfU6SyVACLJbAQwEyMcH8CuowO4AQgDgrIQ5DioKni0IADRzkynyg7MQCgjLX4ySftrvPdV5hSLBYCcwHMA/AxAJVWly1NBQG0CilOSWGeAsQpKXBKNcQpw4NDTQ0NAasLSERjhwEAZZ2aFfUTFQVzpWlOhRBTBeRUQKmWkNMAVCE7f+57AbQCaJHAeQG0AGiTUjSrqtlqMx0nOQKfiC6VjX8IiaK68847nYOisNpUjamQsloqYrwwZRkESgGlDEApIC/8H2UWFLEfQAiAFwK9kOgG0C0EeiDRYwrRLSR6INAjpNEtVXuntJutfHsnokQxACCKTiyve6gsrJpFimYWA4BUDLuhiHwAsBlwG4pwAYAwkQ9F2AFASBimkB/a91Y1ZVBXEQAAxVRMxUS/sCEgdTMIOHsDymBo1/r1fqtvmIiIiIiIiIiIiIiIiIiIiIiIiIiIiIiIiIiIiIiIiIiIiIiIiIiIiIiIiIiIiIiIiIiIiIiIiIiIiIiIiIiIiIiIiIiIiIiIiIiIiIiIiIiIiIiIiIiIiIiIiIiIiIiIiIiIiIiIiIiIiIiIiIiIiIiIiIiIiIiIiIiIiIiIiIiIiIiIiIiIiIiIiIiIiIiIiIiIiIiIiIiIiIiIiIiIiIiIiIiIiIiIiIiIiIiIiIiIiIiIiIiIiIiIiIiIiIiIiIiIiIiIiIiIiIiIiIiIiIiIiIiIiIiIiIiIiIiIiIiIiIiIiIiIiIiIiIiIiIiIiIiIiIiIiIiIiIiIiIiIiIiIiIiIiIiIiIiIiIiIiIiIiIiIiIiIiIiIiIiIiIiIiIiIiIiIiIiIiIiIiIiIiIiIiIiIiIiIiIiIiIiIiIiIiIiIiIiIiIiIiIiIiIiIiIiIiIiIiIiIiIiIiIiIiIiIiIiIiIiIiIiIiIiIiIiIiIiIiIiIiIiIiIiIiIiIiIiIiIiIiIiIiIiIiIiIiIiIiIiIiIiIiIiIiIiIiIiIiIiIiIiIiIiIiIiIiIiIiIiIiIiIiIiIiIiIiIiIiIiIiFLk/wfaS7ECW/01FAAAAABJRU5ErkJggg==;" vertex="1" parent="1">
          <mxGeometry x="770" y="340" width="35" height="35" as="geometry" />
        </mxCell>
        <mxCell id="33ZxRu888jDNc-60NQ5n-50" value="" style="shape=image;verticalLabelPosition=bottom;labelBackgroundColor=default;verticalAlign=top;aspect=fixed;imageAspect=0;image=data:image/png,iVBORw0KGgoAAAANSUhEUgAAAgAAAAIACAYAAAD0eNT6AABSoklEQVR42u3dd3hc1Z0//ve5d7p6syw3uWLcARNAsk1MCdUyzUropGzIJsvuZvPNZksaW5LsbvJNvrvZ3WRJdjcJ+yNkZWNwTQwEY2wJA8a9F1wkWb1Ov+X8/hhjDNaMZqQZ3Snv1/PwIN1z5t5zryWdzz0VICIiIiIiIiIiIiIiIiIiIiIiIiIiIiIiIiIiIiIiIiIiIiIiIiIiIiIiIiIiIiIiIiIiIiIiIiIiIiIiIiIiIiIiIiIiIiIiIiIiIiIiIiIiIiIiIiIiIiIiIiIiIiIiIiIiIiIiIiIiIiIiIiIiIiIiIiIiIiIiIiIiIiIiIiIiIiIiIiIiIiIiIiIiIiIiIiIiIiIiIiIiIiIiIiIiIiIiIiIiIiIiIiIiIiIiIiIiIiIiIiIiIiIiIiIiIiIiIiIiIiIiIiIiIiIiIiIiIiIiIiIiIiIiIiIiIiIiIiIiIiIiIiIiIiIiIiIiIiIiIiIiIiIiIiIiIiIiIiIiIiIiIiIiIiIiIiIiIiIiIiIiIiIiIiIiIiIiIiIiIiIiIiIiIiIiIiIiIiIiIiIiIiIiIiIiIiIiIiIiIiIiIiIiIiIiIiIiIiIiIiIiIiIiIiIiIiIiIiIiIiIiIiIiIiIiIiIiIiIiIiIiIiIiIiIiIiIiIiIiIiIiIiIiIiIiIiIiIiIiIiIiIiIiIiIiIiIiIiIiIiIiIiIiIiIiIiIiIiIiIiIiIiIiIiIiIiIiIiIiIiIiIiIiIiIiIiIiIqIxJawuABGNTm3dqmchMMfqciSbaaiPvbnxN4etLgdRtrJZXQAiGiWBOZBYbHUxks0G02N1GYiymWJ1AYiIiGjsMQAgIiLKQQwAiIiIchADACIiohzEAICIiCgHcRYAURaTdgf0siqrixGVve2M1UUgylkMAIiymF5WhZ7Hvm51MaKq/P6TVheBKGexC4CIiCgHMQAgIiLKQewCIMohlza5dz/+deiV1VGPu/e+gcItzwIAtPHVF7sSknWciKzFFgAiIqIcxACAiIgoBzEAICIiykEMAIiIiHIQAwAiIqIcxACAiIgoBzEAICIiykEMAIiIiHIQAwAiIqIcxACAiIgoBzEAICIiykEMAIiIiHIQAwAiIqIcxACAiIgoBzEAICIiykEMAIiIiHIQAwAiIqIcxACAiIgoBzEAICIiykEMAIiIiHIQAwAiIqIcxACAiIgoBzEAICIiykEMAIiIiHIQAwAiIqIcxACAiIgoBzEAICIiykEMAIiIiHIQAwAiIqIcxACAiIgoBzEAICIiykE2qwtARGNn4LbHLn5tFpbFPK5NnnXxuOnOv5ierONEZC0GAEQ5JLBoWdzH9dLx0EvHp+w4EVmLAQClTG1d/dcBc4rV5ch6EtVWF4GIMg8DAEodIe+DFIutLgYRpZfaez81Q+rG58ITSr+965lnNKvLk6sYABBlMXvbGVR+/0mri0F0Uc3t9aUwjI1CYLbzfM+yZfff/8k3XnjhvNXlykWcBUBERGNi8ZNP2oVD/i+A2RcOLTU0Zc+SlfffZHXZchEDACIiGhOO8z0/A3DLRw6Pk1LZUlu36i+sLl+uYQBAREQpV7ti1TcE8ESUZBuAf1iyctUvly//tMvqsuYKBgBERJRSNXUPPASBvx0un5R4PFzgffm6++4ri+e8NDoMAIiIKGVuqLv/GgHxcwAizo8stenqW0tW1s+OMz+NEGcBkCVO1qxA+xXpOUOw8tguzGjacNnxwKJlH1oxL53Y2s+g7Fffuey4t6wK+1ak7yyA2l/+jdVFoBRadv/9VYamrAPgSfCj06WUO5bW1d+7fX3DdqvvI1uxBYCIiFJBmJryXwAmjvDzZSbkK7UrH3jU6hvJVgwAiIgo6WrrVj0lgTtGeRonpPjVkpX1T1l9P9mIXQCUFhZueObi18eX3Y9AUTlKzxzBpP3bAACBonIcX3Y/ACR8fNYbL8Dd3wUAaF5wI3qqr4x5PB62njYUbvzPi9/3PPb1ER3Pa9oE54ndAIDQzKvhq7lrRMdH85xT/fyjHafsVXvX/dUA/iFWHj2vBKbTDUdP63CnE1LKf6mtWyUa16/+sdX3lk0YAFBayO/+YCEwRY+sDGoP+T50/H2JHnf3d108bg/5hj0eFy0Ee9uZUR9XB7svHtcrp4z4+Giec6qff7TjlMVsyg8gY/f7d97zp7AVlcP1yi9QcPyd4c4oAPxzzcp6pWldwz9bfXvZgl0ARESUNEtXrFoOiVWx8nTe8mk4SyqhKipCn/gsej62Ip5TCyHlj2rqVn3Z6nvMFgwAiIgoaUwhYk7t8FUvgDL7+ovfK0IA192Njts/H8/phQB+tGTlqr+y+j6zAQMAIiJKipoVq24B5I2x8gzc9AjEECsC2GZeg7ZP/hXiqZakxHdr6lZ9wer7zXQMAIiIKCmEQMz1/HuvuR3OvKKo6Y6KKTj/8LcgbfbhrwX8uLau/mar7zmTMQAgIqJRu+HuT80BcGu0dFOxIXzt8LMCnSWVaH/wm5DqsEGAHZBra+6pX2D1vWcqBgBERDRqimI8hRjL/fbecA/s9vj2+XEUVaDtkb+B4Rg2fyFM+VLtffeNs/r+MxEDACIiGpV59fUOAA/GyqPNqU3onM6CEnQ8+K1hgwABTIOublxcV5focsM5jwEAERGNSnFIrgBQGi3dO2MxHK7E62dnQQk6H/xmPGMCrnXC+XOrn0OmYQBARESjIoGHYqUPXnf3iM/tKChF2/1fiyfrQ0tWPPCHVj+LTMIAgIiIRmz58uU2SHwiWrrpyoO9ZPyoruGsmIS2uj8ZNp8U4v/dUHf/NVY/k0zBAICIiEZML6i4AUDUuX29i26JLPYzSo4pc9C1tH64bE4F4n+X19fnW/1cMgEDACIiGjEJeVus9PCM5L2Qi4U3Y2B2zXC5ZoSD8rtWP5dMwACAiIhGzASiBgDS5oStqCJp1xICCN38CMKlE4bL+tQN9zxwazznzGUMAIiIaESW3v1wiQCujZbeP+cGqEpyqxlVUdF9z59imOpLKKb4+cLbHsuz+hmlMwYAREQ0IlLVlgFQo6WHpsxPyXWdnkK01/3RcNmq8xyBr1v3dNIfAwAiIhoZiatiJZsVk1N2afuUueifuyRmHiHwf5bdUz/XkmeTARgAEBHRiJiQi6KmKTbYPQUpvX5o2YPQ3TGv4dBN+QOLHk/aYwBAREQjImIEAP5p86GI1FYxNpsNXXd/aZgy4s4lK+s/EecpcwoDACIiSlhkrr2YFi09NOGKMSmHo3IqBobZZ0BC/hOefpr13UfwgRARUcJCYbkQMeoQrXTimJXFv7QeMasziauWvHvg3rF7OpmBAQARESVMkXJWrHRZWDZmZXE4XOj8eMzNCCGBbyLGdsW5iAEAERElzJRKVax0xT22U/Dl3CXQPUUxMuCqmrpVI9+VKAsxACAiooQJyOjL8SkKbDbXmJbHpijouunRYcqMPxvTQqU5BgBERDQCImoAoOcVIwn7/yRMrZ4L3VMYK8vNNffULxj7kqUnBgBERJQ4KaN2AWgFY9f/fylVKOhe/kjMPMI0v2hJ4dIQAwAiIkqciN4FoBWUW1YspXo+DEes7gfx8PLlnx7b/ok0xQCAiIhGQERta9cLSiwrlaoo6Ft8V6wsReGCQQ4GBAMAIiIaAQk4o6a58y0tW3hOTcx0IcQjcZ4qqzEAICKihAnAES3NTPESwMNxuvPhmxJ9DyApcSe3CmYAQEREiYosq2uPmm5xAAAAg4tujZXsKnAFb7G6jFazWV0AIgBov+Kai1/rLg8AIFBUcfF4KK/4Ynqix3umzIGvrOpinuGOx0O6CxBYtGzUx8OTZiXl69E851Q//2jHKXPVHDzojJnBijmAHy1C1fSY6VKadwNYZ3U5rcQAgNLCyZq6y44NVE7BQOWUUR9vXnh5xRvreDyMwlIM3PbYqI8H596A4NwbRn08XkM952jHk/X8ox2nzGV6HXbVFoqeIQ0CALvdCf+EGfC0noyW5U6ry2g1BgAZonblqnesLkPCJOZYXQTKXKZiPlu7cpXf6nIkQpriO00bGtZaXY5U0yfnBdTzMQIA07S6iAAA74KbYgQAYvLSuvop29c3nLW6nFZhAJApJBZbXQSisSXmQFpdhgRLrCCxvqQMteuZZ7TaulUhRJkJoIR8VhcRAGCMmxoz3RSyFgADAKKxNGnfG6g8tsvqYgzJHhz6pdN5bDdK29Pzb4UID/025unvwsINz1hdPMpOg4gSANj8gzCsLh0AW35x7AwStQCet7qcVmEAQJZw+vrh9PVbXYyEKAEvlIDX6mIkVmZdQ373eauLQVlJegEx5JJ/qq8/LQIAVVERrJwGV/t7UXKIRfGea9n991dpOqarpjJVCjEVkOMAVACohEARJBwAhppa2C+BfgH0A+iRkOeEUFqElOeEKY9WeZQzDQ0NljwuBgBERDQCYjBaiurrtbpwF/mmLYoRAMjLFwt4+mllya79cwBRIyGvAcQCAAsMDUUKACkAfLRvapiuKvGhrwUgJSQAqQi0BGWotq7+iBByr2nKt4SQb4WqyvfseuYZLdXPhgEAERElTALd0cb62we6ELC6gBfopVWxkstr77tvnGrayk3TvF1CuRW7DtRKiOJI8pjMZnACcpGUWCSEeBwQcJzv8dXW1b8uYL6iKMrv3nip4VAqLswAgIiIEiYEWqK9+dr8AzBME6pi/YJAZv4w+xLo6iEDsixS2afHqFMB5AHyLglxl2FK1NatOgLINYo0G7ZvWLs3WddhAJAFNKcHofwiq4sxJFXX4O7vuuy4UVgK01NgdfGGpPgHoQ70XHY8E5+ztDugl1WN4Ixjw952Zsjj3jQus6e/C4qe8tbZ9GeiJdYLshEOQHVZv9qu8BQOl8WavYsTcyUgvm4K9es1dasOCeBXus34+Vtr13aP5qQMALJAT/WVURd4sVpe93ksGmIUuu+Gu4dcGS8duPe+gcItz152PBOfs15WhZ7Hvm518aKq/P6TQx7ft+LJBM80dhZueIYDKwFAyJZYTeTS1w+kQwDgcFtdhOTeDzAXwD/YdPVbNSse+C+7UH64bX3DeyM5l/XtM0RElHEExPFY6cpAV7ynSiklDbohUsQjhHhKhzxWW7fquaV3feqKRE+QtU+GiIhSRxpmzIFp9o4z8Z4qteUc642JhIDucEMfu5YHG4CHTNU4WFv3wH8sWfnghEQ+SFnko03BjU98GwAwo2k9Ko+9CyCy8cv7TdmpPh6vS5uCux//OvTK6g81xWvjqy82ZSd6vPTZ71zsax647bGLXQ/Rjo/mOSd6PB2ec6qff7Tj8bq0yf1kzQq0X7E4ac8/0eP0gcZNL5ytrVs1CGDIwTz5x96G93rru8ySsS2BVBQEC8rgLxqHUH4xQnklCOWXIOwqgO5wwXB6oDtcQwYbiq5B1cOwhfxwBAbh8PXDGeiHa6AHnr7z8PS1QzH0ZNyqDRBPSqk/Wrty1feLNN/3Nm/eHBrmA0RERAmTEjgkgOuHSnQMdELTwrDbHZYWUiQ6lU8IBArLMVhejYHKKfCVTECgaBxMdWTVpWmzw7TZobnyhtx1VEgTroFuFHaeQWH7KRSdPwlHYHAEV7rIA4lv99s8n6xZseqPmzasfjVaRgYAREQ0IgLYiSgBAACY/Z1A+URLyyjjmNoXdhegb8Is9E24Av1VM6E5PXGcOUnlEwoCRRWRbbNnXgsAcPd3ouzMAZSf2QdPX/sIzyzmCIFXautWbVAg/mioTY8YABAR0YgIyB0S4k+ipdvPn7A8ADCMoadshj2F6K5egK7q+Rgsn5IWWxi/L1BUgeaFN6F54U1w93di3Kl3UXn8bdhCI9occ4UJuXzJyvpHdqxrWHdpAgMAIiIaGWHfDhm9/zr/cBP8Cz5uaRGl9kEAIBUVPZPnoH3mx9A3YSbGaKW/UQkUVeDM1bfj3MKbUXFqL6qO7BhJq4BHGvqpjx5kAEBERCOyY93zrbV1q04BmD5UuqvzDPqCPjisXA9AC0HLK0HnnBq0TLsKmivfurKMgqna0T7rWrTPXIzyMwcwZc8WuAbjXgfoN40b1x746EFOAyQiotHYGCtRPXfY0sKpeUXofPRvcHbusoyt/D9ECHRNXYDd9/wZ3rtuJUzbsIMsTZjGd4dKYABAREQjZipyXaz0gt0vW1o+oShoDfphyvRY5z9ZpFAwUDF52GWpBeTzQ739AwwAiIhoFLTKstcB9EVLd3WeRTjgs6x8rQE/wqZp2fVTRkpMf2sDhtnAyDBM299HS2QAQEREI3Zh3/oNsfLYTrxtSdk6Qn74snTjpvLT+1DQGXu1RQH5mzc3/iZqHwwDACIiGhUp8YtY6WWNa6EnZ7W7uA1oYfSEQqM/URpS9DCq3/3tcNnCusTTMc9j9Y0QEVFma9qw+veAPBktXehh4PSBRE45KkHTQJuF3Q6pNvXd38Lp74+ZR0D+cOeGNbE3bLL6RoiIKONJSPFsrAyl256HKVPfF6+bEi1+L7Kw1x8AUNx6DOOP7RwuW7uuu743XCYGAERENGqGYv8pgEC0dJu/H3rLiZSWQUKiJeCFlo2D/gDYg17M2rE6sgtD7AfxVzs3/38Dw52PAQAREY3aznW/bpcCv4yVp+J3z6R0LEB7IIDAGI81GDsSMxtXwx70DpNPvNl47fxfxnNGBgBERJQUdin+CUDUGlgN+qDuSc26AL1aCH1adg76A4Bpb29EScuxmHkk4FMM5Qk8/XRcTSAMAIiIKCm2rW94Twg8FytP2ZvrEPb2x3vKuPh0HR2BwOhPlKYmHN6OqiONw+ZTgC9v3/SbY3Gc8v38REREyWGa4q8lEHMIftGr/520lfmChoEWvzeubX8zUdnZg5j6zuZ4sr60Y/3qnydybgYARESUNE0bGloUiH+KlcfdfBTy4BujvpZummgJeGFmaeVf0nwEs7b/Bhj2/uQ5B+x/kOj5GQAQEVFSmS58H8DZWHkqXv81Qt2tI78GJM5l8Yj/ivd248rX/wfK8IMaBxVp1m1d/+uuRK/BAICIiJKqqaEhIIT4Awzz6jq+4R8Q9g+O6Bqtfh9ChmH1rabE+GM7MWv7aojhgxtDCPHo9g1r947kOgwAiIgo6Xasa3hZCPx7rDzC0FC25h8RDgcTOndb0A9vFq7xL6SJaW9vwPSdL2H4Zn8AwJ/tWNewLp6MQ2EAQEREKRGUoa8BOBorj32gG6W/+S60OKfw9YSC6Atn33Q/h38A83/3s7hG+1/w3cb1q388mmsyACAiopRwwj4PwLBt/I6BTpQ+93cIDbPIzaCmoSOUfdP9is+fwKKN/zrs7n7vk5B/27h+9ddHe12b1TdORETZpfau+6uhir8DxKMARDyfsXu7UfTbnyNwz5chhvhEwNDRGhhuFbzMYgsFMPXdTRh38t3hl/e9QEB8u3H96r9NyvWtfgBERJQdrl/xwCxF4C8A8TgAeyKf7Z+/HOEb66EOUfmHTQPNfm9WTfYraT6CGTtfhMM/7JL97zMh8LUd6xr+b7LKwACAiIhG5fqVDyxUJb4KiIeQYL1iKjZ03PkF2KfOgzpEY4Fmmjjn98JI0sJBVivsOIMpu7egsOO9RD42KCEfb1q35sVkloUBABERJWzxk0/aHW0990LiS0Ji+UjOEaycir4VT8Hhyhsy3ZDZM9c/r6cFU/a8POx6/kM4bprqPW9u/M3hZJeJAQAREcXthnsfnCoM7TPifM/nAVSN6CRCQcfNj0GZfT0cYughAiaAZv8gwhk911+itPkIxh/dieLzx+Pu5//g02K9atqfaNz4XG8qSscAgIiIYlpcX1/kCMh7FIjHpKHfAoi4BvYNxTvjKniXPwaHyxM1jwTQ4vcikKGVvz3oxbiTu1F57E24vCOquwcgxJ83rWv4GeJcEGAkGAAQEdFllt79wHRDVeoUEytkUC6DgHM0G+5oRRXo/sRn4aicCscweVv9XvgybKEfW8iPkpajKDtzACUtRyHkyLotBMQOU+DTTesaTqS8zGP+lIiIKO0svfvhEkMN3ypM3AGBO0xggpAScsTv+hG6uwDdNz0Kdep8OMTwS8+0Bf0YzIDKX5gGCjrPoajtJIraT6Kg4+yIK30AEEAbgG/uWN/wn0jhW/+lGABkmXB+EU7WrLjseOf0RfCWTQAABIoqxux4vAZue+zi12ZhGQBAmzzr4nHTnX8xPdHjvuvvgnJh/rA2edawx0fznBM9ng7POdXPP9rxeDUvuBH2UGR32YHK6qQ+/0SPZ42nn1Zqdu2/AlJcB8iPCSGuMxFeLOSQA/FHxLS70fnxT0HMuhZ2RY3rM52hQJqu8ifhGuhGXu955PWcR353Mwo7z0LRw8k4eVBK/Ego4e/tWLduZBsjjFCS/qkp1WrrVkWNCNuvuAYna+qsLuKQ8rrPY9GGZy47PnDbYwgsWmZ18Ybk3vsGCrc8e9nxTHzO2vhq9Dw26gXDUqby+08OebzxiW9bXbSoFm54Bvnd54dOFOILjesanknsjKlVX1+vtmjKVKmbCyOVPa4HsBhAUSqup+WVoHtpPdTpC6HGWfEDQG84hPagP+HrlZ09AFO1Q3d6oLnyobnyYNiG62T4MFUPwxYOQA0F4AgMwOXthdPXB6e3F05vLzx97VCTU9l/6FEJgV8biu3bb774/OlknzwebAG4xLI76yukgilWl2Mo2brfNRGNzuL6+iK7ppbYpFZpmpgkISYDmKIITDUlZrcE5UzAcIx82F58/FUzMVBzH2zjpyHRi/WHwyOq/N39nZj9+nOXJwgB3e6CFAKGwwUpFBh2J1Q9DGF+MLBQ1UKwhQKjarofyaOSUv6XMOUPdmx6Ib61f1OEAcAlDBueBOTfW10OIspQUv517cpVT47+RNHODxcA94XvCgGUIChVQId5oUH3/apXyrFo4lXQv/Am+Bcuh7OofNjBfUMZ1DScD/pGdPXK429HeU4StnBkzwB7KPHAIjXkOQn8t7CZ/9a0dm2H1aUB2AXwIbV1D/wHIFL3y0tElAV8U+ZicOEtUCZeAZtt5O+Rg5qG1oAPI5ldIEwD1675B9hHGDyMkRCAl6XAr5wDXWu3bt2qW12gS7EF4BISYjIjIiKiywUrp2HgqlsgJ8+B3ekZ0dv+pQb1kVf+QKTvP00rfy8gfieEuV4YznXbU7SITzIwAPiwaqsLQESULnxTF8A7dynkhFlwON1JqzAG9TBaA/4RV/5AjOb/sWcCOCgEtkFio30w/7WtW38RtLpQ8WAAcAmB9BwASEQ0FrSiCgxcWYPw1IWwlVRCVW2JbekXB6+mjbrydw90o6g9oc10kqkDwH4B+bYUynbFsDem81t+LAwALqi5vb4UkIlPUiYiylCB8dPhn341tIlXQJRUwm53QgBwpuh6Xl1DS2D02/pWHn8r4XX1EyGANgk0C4Fz0pRnIXBKSnFQ2I39jWkygC8ZGABcoNr1ySbin7NKRJQpDIcHgclXIFQ5DVrFVMiSStg8BVCFAgGMuj8/Hr4kVf7CNFBx6t3hsm0QML9jKCJfmMIFAbeQIg/StEtF9F2aUYHoM030q6bSp9mU/lKtr2/z5s3puBpR0jEAuMAUtrIxWn2RiChpDIcHWmEZjPxi6IUV0IrHwSgsh5lXBLgLoLryYFMjf+rHqrL/KJ+hodk/+sofAMrOHhp+8J8wv79j3QtvWnCrGYUBwAVCyOJYLUrnFt2K3omzR3WN0opJsNlT1bhGRNlOKAqEUC9+rQjlsn35lAv/pQu/oaPFl5zKHwCqjjQO95QONK574Q2r7zsTMAC4QJooirUqgrdsIrxlE0d1jXJ3ARwquxmIKDf4dR3NAS+Stc5efncLCjpjL54nIP8ZbM6NCwOAC4SQxTJGBKC58pJwDavvkohobFwc8JfEqnjCoW3DZekNIvRcPOciBgAXSSGKYsWMmisJEwQYkxJRDhjQwjgf9Ce18nf4B1B25mDsTBI/27Vhfbqs/Zv2GAC8z5TFsV7RdYc7gZNFwRYAIspyfeEQ2kawsc9wqo40Drdpj2ET4qdW338mYQDwPhF9a8z3d5Ia/SWIiLJXrzayLX2Ho+gaKk8Mt/KfWL9tfYNlqwNlIgYAFynF0drozQT3liYiyjXdoSA6Q4GUnLvyxDuwDX/uH1v9DDINA4CLpCdaimFnAEBEFE1nKIDuUKqWv5cYf7QpZg4B7NuxvuE1q59Dpkmn6aKWElJEfRaGLTmrYZscBEhEWaYj6E9h5Q+UnjsM90BXzDwmxD+Cw6wTxhaAC6SQUbvok9UFYPLnk4iyyPmgD/3hcEqvMWn/1pjpEnjPOdj5v1Y/i0zEAOAioUQLIKVIzuI9Zgo3ryAiGisSQGvAi0FNS+l1SlqOIb+7OWYeAfxg69atutXPJBMxALhAQkadBBijdyDBaxARZTZDSrT4vfAbqa9zJx4Ytlu/Q7rEf1v9TDIVA4ALRIwWgGQt4ccWACLKZLpp4pzfi5BppPxaRW0nUNgxzLK/Av+vsaEhNVMPckDaDAJcfu+9xdfdd1+ZZQWIMQYgWS0ApkzWithERGMrZBo44x8ck8ofACbvHfbtf8Cu6D+x+rnE47r77iuztH6LIm0CgAq7fdCmqeuW3v1wiRXXjzULACI5b+4GGwCIKAMFDB1nfV5o5ti8xBS2v4fCjmHX9PnJ1hdf7LP62Qzn+jsfKbTp6qagLz91UyVGKG0CgIaGBkMKqKYIb1h+773FVpfnUsJITsSrj9EvD1nD1nwY7t0vW12MrOPavQW21uNWFyNnDWphnPUNwhjDFszJ+38/XJagajf/2dIHE4eldz9coqqhzQAm7tvyrM/q8nxU2gQAACCAAQjUhg37G9ffef+ksby2hIy6fqWSpCYvnV0AWUsYGjw7XoC7aS2ch4fbr5zi5Ty4HZ6mF+FpXAuMUdMzfaA3HERLwDemA5gLus6i6PzJ2Jmk/I83XnjhvKUPZxjX33n/JFPRtkGgFpCpnS4xQmkVAEDiwp67cr5qV5pqVtRfN3aXxmC0NJG0AIB9ANlISBOeV34JW1czICXyfv8/cO3jomSj5drzKvJefw6QErb295C37XkkdXs5iqkrFER7cOzH103ZE7sVTQI+Q3F8z6rnEo+aFfXXqXalCZDzI0dEpdVlGko6BQACAtMuficxSQj5xpKV9U+NzcXlQLQ0JUnTXVLWBWDq8Lz5IpTBntScn6ISWgj5m34K54ldlxyV8Lzxv/A0rh1u9zIagpAmPDvWwLNj9YcqfOfB7cj7/bNsCUgxCYnzAT+6Lll73zXYg+p3f5u0v4XRFLceG/btX4H88c51v263+jlFs2Rl/VNCyDcgcWkrtntpXf0Uq8v2UWkzDbBmRf3HAFn1kcMOKeWPa+tW3S6l+MOmDQ0tqSuBiNoCoGqhpFzBSEFDmuLtRf5vfw5b+ynYzx5E/31/DnDvgjFhaz+FvFd+BbVv6L9Frt1bYOs8C+9tn4XpLrC6uBlB+AeRv+U/YW85OmS680gT1N42+G59AkZxWr5UZTRDmmjx+z40x1/VQrjytV/B09+BoraTOHbjQwjml6bg6hLVu7cMl6nfDCvft/o5DWXJygcnmNL4qZSybqh0A/KTAH5gdTkvlZwl7pJgyuw53wLE4ijJVwiBz06+cl7vuYc+uRtbtya9Jp08e84SQNw4VJqQJpoX3JSU6xTbXVCSsa6AacB5aAcKfvdzqP2RCkjxD8DWehza9KuAJO1fQJdTgj64m9bCs/V5KEFv7LwDXXAcfQtmcQWMkvFWFz2t2U/tQeHGf4fa0xozn+Lrg/PQDggA+rhqQEmbP2MZLWwYOPuROf72oBdzX/1v5PW2AQAcgUGMO/kupKrCWzYxsoBqklSc2oPxx3bGzCMgvte4qeG3Vj+rD3n6aWVJQfnnJMwXBbAoRs5JMyeMe+b06dNp0yyYFr85N9Tdf42A8hPE7pJwAaibfL7z3olz5pxoPnr4VDLLMHn2vI8BuHWotEgAsDwpP+wFdjvsyujO4zhzEPmb/wPOI00Q+ofX4Va9vXCcPgBt8hxIV14yH1HOE0Ev3LtfQf6Wn8PeegIizhYdoYXgOP4O1L4O6OOnQzpcVt9KWlF8fcjb+j/w7FwPEWdrm5Am7C1H4TzyJmBzwCibwEBgFHy6huaA90PjlPJ6z2PuK/8FT3/Hh/Iqpo7i1uOoOL0XmqsA/qJxo14sTZgGZm97DrZwzDEH3YbufKjlxP7kNMkmQW1d/c2T2zrWAHgSkToq+j0CFYbLM3Du6KGm+M6eeslZ4m4Ult79cImpaNs+GCwRd9Ffk1J+p2nD6leTUY7aulVfAvBv0dLf/uQ3oDk9CZxxaOPdHhTbnYl/0DTgPLUHzn2vwTbcCFkA0u6Av/Z+hObdmLSVDHOV2tMK1/5tcB5pAvTRbXwi7U4Er7kdwatvhVRzvJVGC8O9+2W49myB0Eb3XE13AULzP47QvCUw84qtvrOM0hcOoT0UgLxQ+QvTxMSDWzF532txDYD2lVSh7coadE5bBHOEP9NVh3dg2jsbY+YRUnxtx4aGtGj+X7pi1XJT4JsAbk7kcxLwQchlTevW7Lb6HgCLA4CFtz2Wl+8IbIlMkxixtwDxr47BvIatW38x4oUWalc+8CikeDZa+u6Vf4ZAUcWo77nU6cI4pzvu/Iq/H45DO+A6sA2Krz/h6+mV0+CvvQ/6hFmjLnsuUYI+OE7sguNIE2ztp5N+fukpQOCqTyA0/0bIkQSEGUxoQTj3vw7XnlehBAZHf8JLSKFAnzIXoTm10KbOZ5A1jM5Q4IOtfKVE6bnDqN7zO7j7OxM+l+50o2PGtWi74joEC+Jf9E7Vgli89gewhaLOxIYA2oIIzdi1fr0/7hMn2bz6ekdh0HxAQPwxgJpRnKpDCHHjjnUNR0dxjqSwLAC4sa5+mi7kC5C4Kkmn7JLAs4qQz+1Yt+adRD9cs7L+DiHl5mjpBz/xB+gfP33Uhcy32THJkx8zj+Lrg+PkHjhOvgtb6wkkYxshbcpcBBfdAm3yHLYIRKEM9sB+9iCcJ3bD1npsTEabS1c+QnOXIDj/RpgFqRhYlT7U/i44Dm6D63AjRDD1a6JIuxNa9QKEZ14NbeJsdoldwoREq98Hr65BSBNlZw5gwuHtyO9qHv3JAfhKJ6K7eh66pyxAoDB2MDBl9xZMOrA1Zh4h5Rd3bFjzUyueVe1d9VcJVT4igccBjEvSadslxKea1je8bsU9vc+SmqBm5ap6IfETAKlZG1nIYxJ4SUjxSgih7fFEjcvuqZ9rmPJgtPRjyx5E19SFoy6aQ1EwPb/ow8U1dKjtp2FrPQbHmYOwtb2HVO0daBRXIjRvGcIzr4GZb8mqy2lDCfpgbz4CW/MR2M4dgTrQZVlZLr65zr4e2vRF2fPmqofhOLUXjmM74ThzCNbtiSmgj5sCfdKV0CbNhj5hZvY84wRppolmvxdqTyvKz+zDuOPvwJHklphL+Ysr0TvpSvRXTsNgRTWMS1q8nL4+XL3u/0GJ0bUmgUPOwa5FY7Xl7/Lln3aF8r1LANwCgXsEMDdFl9Ih8HXHQNcPrdrOeEwDgNp7PzUDhvkvgLxrDC8bAkQjgFcFjFcL9cDuzZs3XzaIZHl9fX44KKP+Frx37d04P2dJUgo0RxWwdbfC1n4KtpbjsLWfgtDH+t9fQJ8wA6HpV0OfPBdGaXaPUBfShNLbBlvXOdg6zsLWegxqZwvScZNmaXdBq54PrXouwlPmQXoKrS5SQhR/P+xnD8N+9gDspw9CaGm3BDqkzQZ9/AzoE2bCqJgCvXxy1gfEQprQ204hfHIvSs4cgKevbczLIBUFvtIJGBg3DQMV1Rh/4i0UtxyL/RlT3tG0cc3vUlWmefX1jhI/FpiqvAUStwJYCiD+ftpRE3sh8cXGDQ1jPjhwTAKAG+59cKowtG8IiMcBWB126wBOQmA/TBwAxEEpzAO+kOdcvjPQDKB4qA+1zFuGM9fcGfdFVC0Ep78fDl8fnL5+ePra4OlrR17vedhC6bd7pVlQGnkzqpwOvWo6zJLxSdsFcczpYai9bbB1NcPWeQ5q59nIKn2jHMBnCSFglE+ENmUetMlzoVdOh7SlzfIdkSLqOmztJ2E/exi2swdh627JyBX7THf+hWBgSuT/FZMi3TIZOrtA6DrUrrOwtb0HW9tJ2JqPQEnDvz3D2Ni4fvWKZJyopr7ejRAmQprzBZR5gLkAUOYBcjasr5ckJNYrUvzt9o0Nu0Z/uvikMgAQtXX1NwH4EiDvQRotOhSNFDCFHHoqYqBwHDqnLYJUI8nClFC1EFQtCNUIQ9E02LQA7AEvnL5+qGn41pPQs7C7YJSOh1FUCbOkEmbxOOhFlTBKxgE26xcaUgKDUAa6oPR3QRnohNrfBaW/I/J/f+KDJTOGosIoroQxbgr0skkwKiZBL58MmYQZKvEQIT9sXeegdjZH/t/VDLW3LXtX51NUGPklMIvHwSysgFFUAbOoHEZhOYzCirRYdEsEvVD7OqD2dUDpbYfa3x75vrcdMC1pWU7q3QHytATaBEQfhPRBSh8gegWEX0KGAEAAqgQuNpVJKfOEUKoAWQmgAsAEABmxGpeQ4hUo8if2ga51qe4aSHoAUHvvp2YIw3xECvMRSHFFKgtP1jDzS2AWlMJ05kG68yFd+TDd+ZDuAkinB6Y7H1BskKoK2D7o75M2O+QlCxSJcADClEDYDyEv/N+UEFoQQgtBCXgh/P2R/wcGIfwDkYo/4M3eCmeETE8RzIISyLziSIWVXwIzvxgyvxRStUPaHIBqg3S4IBUF0hFp4Yz8G5gQ4SBg6JF1JfQwFG8vVF8fhLcXqrcXwtcHZbA3u4OrkbA5YHgKIN1FMD0XfhfyCiHdhTBd+YBqg+l0QQgV0u6KtN6ojui/C+/TLnyvh6AEvRABL5SAD0pwECLoi/wXGIQ60DUmAyrJEi1SyOcA/DpV0wZHHwA8/bRSu2vfYgmxQghxNySuScp5iYiICACOAtgAiE39Lmw/2NCQlP7MEVXUNbfXlwqHeROkuAsCdwPgotxERESpNyiBlxVgs4DYsn19w9mRniiuAGDJypUFhrBfr5jiVgjcComrkV47CRIREeWi8wLYLoV4RUhzx471a+KebztkAHD9nY8UCkfwOlb4REREGaVdANtMIXaoBrZv/9i83Xj66SE3ILosAFh422N5Hqdvts1Uc68f36bapGm8ISGHnBJyct4tCDiSN5BU5udxtAQRjZowDCAQBmTabDQ3pDxvN6Yd344YL6gvKab4O6vLmVUUdEbrJmD18xG1dfV7ADnklo7vzV2O9vKZybuYxw3psHr6KRFlMhEKA4EQ0nFRq0sppoEF766B2z8QLUu3A/Yrt67/tXVLcuYYNut/hBByb7S0os7TSb2WHPPV/4goa0gT8PqBQBDpXvkDwMRzu2NV/pASX2HlP7bSfnGesSaBfdHSinqSs1HG+4SuQ0KCDTFElBDdhPD7ATO9m/zf5/H1YMLZfbGyvN60YfWz8Z6PkoMtAB9hxmgBUA0dqkhipG1KwMiMX2AiSg8iHIbw+TKm8hfSxPRj2yCij08Im6b6RWRCM0aWYQDwEfawsjdWuiOU5FW3wuwGIKI4mBLwBgB/MKP2Wph0ZjfyB2O07At8782NvzlsdTlzEQOAj3hjc0MngPPR0gsHkruDltA0q2+ZiNKc0HUIrxdCz6y/F3neLkw4F+udShwo0nzfs7qcuYoBwBAkEHVbxvKWI8m9mGkCBte1J6IoAsHIm7+ZOW/9QGTU/4yjMZv+dSHMzwy1PTuNDQYAQ1CEeC1aWkF/G0Syx+yxG4CIPsowIAa9kWl+Gdg9Pvn0O/D4eqJnkPj7HevWvGN1OXMZA4ChSPO1WMl2PbkBqwhn4D71RJQyIqxBeP0ZO0i4sL8NVc37Y2XZHZpQ+l2ry5nrGAAM4cJayu3R0ov6zydwtjhICaGxFYAo510c6BfIqIF+l7LpIcw4sjVWlpBUxBO7nnkmswY0ZCEGAEOTEng9WuK45gPJvyBbAYhyWqYO9PuoGce2wRnyxrhRfKvppYb98Z+RUoUBQBRCiK3R0gr62qAkeRyA0PS0X8ebiFIkEIys6pdhA/0+qrL1EEq6zsTIId6c6BT/1+pyUgQDgCjkMOMA3MH+5F80lNmRPxElSDcvGeiX2Ty+HlSf2hk1XQI+xVCeaGho4LSnNMEAIIqm9WuOAGiNll7edjzp1xShcMb2+xFRYkQoDOH1ZuxAv0spho5Zh38PxYxetytC/tH2Tb85ZnVZ6QMMAGKSW6KljGs+iKTPB+RgQKLsd2F6X2QTn+ww7UQT3P6+GDnkszvWrfml1eWkD2MAEJN4MVqKamhwaoHkXzJD5/wS0XAkEAxCDPqy4q3/feXtx1HRfjRWlhNCaH9kdTnpcgwAYpAusUUCURf/H9ee/G4AGAaExi4yoqxiGBADPohg5vf1XyrP243px7fHyhKSQn5yx7p1g1aXlS7HACCGpoaGgIB4OVp61XvvJr8bAACCmbG/NxENRwKBC2/9GbJ7X7xsehCzDr0Ss98fwFea1q3ZbXVZaWgMAIYjzDXRkhRTg0vzJ/+ahsmxAESZTjcgBvxZMcL/o4SUmHV4K1zBWC/2Yk3j+tX/bnVZKToGAMNwOJUXAUSt5ce3HEzNhYPcH4MoY/mDEF4fYGZnd96U995GUW9z1HQJvOdQtT+wupwUGwOAYWxtaPBCYl209Mqz+yBECh6jYXKPAKIMIzQdYsCb1b+7ZZ2nUNUScyG/gGqK+q0vvthndVkpNpvVBcgEQhG/llI+OGSaNFHg68SApyz5Fw6EALs9NeMMCBM8dtw0oQDzStwod9nhUgW6gjrOesPY3ubFu91+mFyXgeJhSiAQALK86y5/sAvTj22LtV6JhMBnt29s2GV1WWl4rFniMK++3lEUlOcAjBsq3Vc4DvuvugepGLgnXU7A5bT6EWSVWUUufHn+ONw4viBmvvN+Df9+uAPrzvRl+gqtlEIiGAJCoawft+sI+TF/z4twhKKPe5JCfr9p3ZqvWV1Wio9qdQEyQeehQ8akK+eMExBLhkp3hHxom7IIZgq6AoRuAg62AiRL/bQS/LhmCqYVDB9UFdhV3DyhENdX5GNbuxcBPbtGcdPoCM2A8Puz/q0fAFRdw9z9G+EKRB/0J6R4ZaJLfObQoUNZHgplDwYAcZo6Y+EZqcinEK3VxO5Af2Flai5uXAgCaFT+fNF4/Mm8SiiXBFP9/X14Z+db2PX229j11ts4fuwEdF1D5fjxF/NUeey4ZUIhftc8gEAWLeBCIyQvTO0LBnNi6W4hJWYd+T0K+9tiPZTTDmG/fdPa3/jiPjFZjq+VCaitq38dkDcOmSgE3vr4H8BMVVuxxw3JIGDEPjm9BN+8esLF770Dg1jzv2vQtH37h/r5VVXFV/7iq5g1+4rLzrGn24/PvXEGYQYBOUuEwpEZOjlQ8b9v6olGjG89FDVdAj4oooZb/GYezgJIgJCIPqdVSpT2nk3dxQO58baRCuPcdvz5wqqL33e0d+C7f/cd7HjjjcsG+V17/XVDVv4AcFWZB4/OKLX6dsgKhhFZzCfHfg+rmvfHrPwRGfT3GVb+mYkBQALs3s41AKLW8lMPvQ4oKWpUudDsSIn70twKuNTIv0swGMS//uhf0NXROWTe6qlTYp7rc7PLUWBnz1nOMGVkTv+gDzCyc05/NGUdJ2Nu7wsAEPjLpnWrG6wuK40MA4AEbN26VYfAv0VLt2lBFPp6U3Z9EdYgNM3qx5BRHKqCOyYVXfx+y6bfou38+aj5m881xzxfoUPFLRNjzx6gLCBlZLveweye0x9NYV8LZh59PXYmiZ81rlv9T1aXlUaOAUCCHIr+DABvtPTpB18GUrEw0Pv8QUCyDzpe11d4kGeL/HuYhoHXXv19zPw7G9/EqZMnP3QsHA5j/959F7//+HgGANlLQoS0D7brzaHm/vcVDHZg9sGXIWL+nRGbHN6uL1ldVhodtmUm6PSRI8HJV8yphBA3DJVu00Loq5qBsJq6uftCNzg1ME63TChETWU+AODUqVN47ZXYAYCUEjsbd8I0DUACRw8fwS9+9l/oaO/A9TWRf3JFAX59ssfqW6MkE7oB4QsA4XDWz+mPxuPvxZz9m2HTY7Q0CuxyuMSKrZs2sU8yw3ElwBEwDPkD1Sa+CMAxVPrM/S9jz7WrUvf2YBiRhUdcLqsfRdord3/wI97V0RXXZzQtjPVrP7z6s9vtvvj1OBdnY2QVw4z8PoVzu3vNGfTiyv2/hU2LtQ+JPK3pyorGdQ3euE9MaYtdACOwc/MLzRLy2WjpLl8v8sIDKS2DCIa5Y2AcPhSDjaLFxH7JFEx2wGSJiwP8vBA5Xvk7wj7M2b8JjlDMafz9MM26tzc1tMV7XkpvDABGyJT4RwBRhwXP2vPbSFtxKvkDOTcyOVFdgQ+CpPKKke/XUFb+wWc7A7ldWWS8HB/g91H2cABz9m2GKxD9pUUCPlOYdzduXHvA6vJS8jAAGKGdG9YcB+TqaOmuQD+KvJ2JnDJxUkb6LHNwoFK8Tg5+0E05bdo05OXnjeg88xcs+OCcA9yqOVOJcDgn5/NHY9eCmLNvI9z+vljZwgpQ/+a6F3ZYXV5KLgYAo6BI83uIMVxo1t7NEEqKx1maJoTXn7ODloazs9MP34U1/BVVxU233pzwOcrKy7Domqsufv/a+cGEz0HWEmENYsAbmUVjshMHAOxaAHP2boQnduVvQIpHdqxfvdnq8lLyMQAYhe0b1u4FsClauk0LorTvXOoLYhiA3z/682ShsGFi87n+i9/fftedqJpQFffnFSHw8OOPwm6PjAHoDxt4rZUBQGaQl1T8AVb8l4i8+W+Gxx9z3RJTQjzeuKFhdbznpczCAGCUBMy/j5U+Y98WCDX1j1loOuALgE0Bl/vJoU4EjchzcTqdeOrP/hQV4yqG/ZyiqnjoicewYNHCi8d+fqQLgxrHXaQ7oekQg35W/EOI9PlvgscXcyqrlMCXmtY3PGd1eSl1uA7AKJ07drh50uy5ywUwdah0IU0Y7nx480Y+AC1ewjQj9b+dszsv5dNN9IV0fLwqsoBPXl4erq+9AX6fH+fOnRuyL7h62lQ8+cUv4Jprr7l47N0uP76z5zxStd8TjZ7QdAh/AAiF2cc/BGfIi7nD9/lDQP6fxvVr/tXq8lJqcSWZJFh6zwPXm6ZoRIwWlbeX/wHGahM56XQAbq4R8FFfXTgeT8z6cCA2MDCA/Xv2oqO9A6FwGKUlJbhyzhxMnjoF4pJpg2cGw3h823voCXLqZToSuh7ZpU9n60w07kA/rty3Cc7QcDv2im80rm/4jtXlpdRjAJAkS+pW/VQCX4iW3lM5A8dm3zRm5ZEOB+BhEPBRj84qw1fnV0JNYNOmNzt8+OrOc+gPs3JJN6z44+Px9+LKfZvhCA8zVkjim40bVv99fGelTMcugCQZt2jeGzYdTwAYcqF4t68XfVWzUrpE8KWEYUQWOmF3wIfs6wngldZBVLrtmFYQ+9+i1a/he3va8MMDbRfHEFB6EGHtg6Z+9snElD/YiTn7NsOuBWJlkxL4StMGbu6TS9gCkES1Kx94FFJEXSFQtzmxa9kTkGPVFwBA2uxAnis79w2QJoRuQDVNOLQAQnYPDLst7gWYqjx2LK8qwPwSNyrcdrhUgY6gjrPeMLa3DWJPdwAm+5HTh4yM6o9U+hzYF4/innOYdfhVqEbMrisphPiTHesa2OefY7KwVrDWkhX1L0shb42W3j5lId6bej3GdLS+qkLmeYAEmr3TlmFA6CacWhDlrYdRdWoXbOEP3myO3lCPnvJJ2XGvFGFKIByOrNrHt/24jTt/BNNO7ICIHcQaUuKzTRtW/8rq8tLY41/JJKu96/5qqMp+ROkKAID9NZ+Czz7GW8oqSiQIGIMpiUllGFAME6qpo6C3DWUth1DeejTmR9694ymEHI44L0BpyzSBYPjCOv2s+OMmJaacfgcTzu0dLqcBiM80rm94Np7TUvZhAJACNXWrviCAn0ZL1+1OvLv0cZhj3a8sBOBxQdrTcTc7CRgSwjAgpITd0JHfdx7lLQdR2n4qoSbfs1ffgZbJc62+IRopw4hU/Br3XEiUME3MPPY6yjpODpc1KCEfalq/5kWry0zWYQCQGmJJ3apNErgjWoauiVfixIyllhROupyAa2wGIw7JlBCmARgmFAA2Q4OnvwNFne+h7Pzx4XYkG9bxGx9FV/E46+6PRkRoGmQoDMER/SNi08O44uAWFPYPu1lfL4R5b+O6F7ZZXWayFoeIp4YUEF+QkPsBFA6VobzlCDomzMWAu3TMCycuTJuSHldqdiyUAKQBYcjIwC0AimnCpofh9vagoKcFhd1nUdDflvTBXIYrD72s/DPHhZ35ENYi+1pYXZ4M5fb3YfbBl+EK9A+TU54TwJ071r1w0Ooyk/X4+5ZCS+oe+KSE+E20dFO1YfeSx6Ar9kgPpzTHtqtTEYDbDRlrqqCUFyr0SNmElBdWWJMABBREKnfV1GELBeAI9MPp74fb24P8/vPI60/xjoiXGJi2CMcW3AqN/cXpT9eBkMZm/iSIjPR/Daox7NbGB22K7c5tLz0/BhuUUCZgAJBiS1au+qWUeDze/JrTjbCzAGF3PsKOPOhOD3S7C4bNDlOxQbc7IKFe/N4UCkxVhbxkEUIpBKQY+s1eMU28H2Uo0oQwDUinC6quA8KELRyCMCVs2iCEIWHTgrCHg7CFfXAEfXCEBuH0D8KmBeO5nRRT0D9jEdpnLEa/uwg6p+ylt/en8YW1SD8/jY6UmNC8D1Peezue3E26zah7a+3abquLTemDAUCKLbztsbx8Z2AXgNlWlyUbTL62FtcuvwktcOPHx3s5Tz8TGGZkGl9o2DdUipNiGphxbFs8g/0gBNaaTvFIU0NDII5TUw5hADAGlqx84FopxQ4AnJuWoClXX4dFy2/GlZOrUF3sgePCNEbdNLFs/RF4dQYAaUnKyA6V4TCX6U0yZ8iLWYdeQf5g17B5pZDfb7pmwV/i6ae5chJdhgHAGKldWf9FSPnvVpcjnU2onoYrlnwc02fNwOSKElTmOWGLMUhxw3s9+Kt3z1tdbLqE0HXIsBap/Nk6k3Ql3Wcw4+jrsOnDtqaEAPGHjesbfmF1mSl9MQAYQ7UrVv0nBD5rdTmsZrM7MGPuPFxxQw2mVk/FhJJ8FLvsUBOckaCZJpasP4IAWwGsZRhAWI+s1MdKPyWElJh4djcmnXk3nuytiiLv3/7Smp1Wl5vSG6cBjiGHN/+PwoXeRZBYbHVZUq2wuBCTp89C1Zz5qKyeinElRSjLc6HQYYPLpiRlbwK7ouCvF1Tim7uHnfdMySZNiLDOAX1jwBH2Y9ah36NgIK6f890KxL3bX1p91upyU/pjC8AYu7GufpoO+TaAslGfbIwVFRehYuZsFI8bj8LxE1FcWoriwjwUul3Id9rhsavw2CIVvDJGa/Hrhonlm45xq96xYJqRJn5Ng9A+mE1CqVPU24yZR16DXQvFkVs+6xgseHLr1l+kwxQdygAMACxQU1f/cQG5BVEGBXry8vDIH34RZePGQZdAyDChmRJB3YQhgaCuQzclQtrlO3z5ExhprdpUONUPdoRWFAG33QanqsKhCuTZVdhVAYcQKLArcDjs8LjdsNvSaxfp11v68NSbLVYXIzuZMrJCn6ZD6Proz0dxUaSBKafewvjWQ/F0q+gS+Kum9at/YHW5KbMwALBIbV39pwH539HSXW43Hv3jP8W08eVWF/UyDocDeW4XbGkSCJiQuHfLCbw3yGlmSXGh0kdYBwxW+mPN4+/FjCNbkeeNa8p+h6nIR958ac0rVpebMk96/AXPQeeOHdoz+Yq5HggsGSpd13Xsf/stVF65ABWFeVYX90MMw0AwFEJY06AIAZuanD79kRIQuKrEjYbTfVY/mgwlI3P1QxpEMAQRDEZW6pOcOTampMT41kOYdfhVOOPaD0O8phniE29tWL3P6qJTZmIAYKFzD3/y95PbOuYBGHLrOtMwcHjX26iYswDj0iwIAADTlAiFNYRCYZgSUFUFikWBQIXbjiO9AZz2shUgLqYZmaoXDEMEQhChMIRhcBS/RRxhP2YfegWV5w9HltuOzZACTzctnv/51p/9+6DVZafMxS4Ai82rr3cUBeV6ALdFy2O323HPH38FV0+qsLq4w7LZVLgcTjidjjEbCPi+vpCGmzYdh26yEhuSYQCaHqn4OXI/PUiJ8o6TmHqqCba4BvqhE8CjjetXb7G66JT52AJgsc5Dh4wJM65epyjGHQCqhspjmiYO72yCrJ6D6eWFCV5hbJmmRFjTEAyGoJs6pJRQFBViDFoGXDYVRTaBN9pHt51w1jDMSF9+KAThD0CEtchWu3zLTwvO4CBmH3kVVc37oZhxBWS/1wzxiZ0bV++1uuyUHdgCkCauX/lQpSq17QBmRssjhMA1j3we919zhdXFTZjdboPTbofDYYeqpi7uNKTEit8dR7MvB3eZMwwI3YA0DK7El+bGnT+C6lM7oRpx/ZwGIfCNxmvm/4hL+lIyMQBIIzfe8+BkzdRfF8C0WPmuvP8xPLJkoWX97aOlKArsNhvsdhscdlvSA4JjfQE88Oopq28ztaQJoZsfVPamyQo/A7j9fZh+bBsKBjri/IQ4AAOPNW5q2GN12Sn7sAsgjZw5emBg6ux5ayXkfYAojpav6/A+HEcerpo+GWoGBgFSShiGgbCmIRAMIRgMQ9d1GKaERGQ9gtF0GZS57PCFdeztzZL1UKSE0I3IPPxwODJSPxACNDbpZwpFGph4dg9mHt0KV9Abz0dMAD8u0n31r21+iYtcUEpkXu2RA2rvur8aqvI6gOpY+fI/dhO+cN8dKHVlXxynqArsqgqbzQabqkJVFaiKGvdPrG6YuGPLCbT7M6grQMrI6Hwz8mYP3eTI/CxQ3HMW0040whlfxQ9AnoaQTzSue2Gb1WWn7MYAIE0tvetTV5iq/gogJsfMOH0+Pv3og5hV7LK6yKknBFRFgU1VoKgqbBeCAkURUFUFH/1xPtEXwH3p2BVgSgjTAEwJqRsXKn0j8s7H5XWzhiswgGknGlHU2xzvRyQgf+ZwKf9na0NDvNEC0YgxAEhjS+vqp5iQrwCYFTNjUTlWPPkUaqryrS6ypSJdB8rF9QiEouKbu9vwStsYzQowZaS5XpqRr00T8uJbvbz4hk/ZTTF0TDy7B1UtcY/uByBPmgr+kCv60VhiAJDmrl/5UKVNalsksDBWPmmz4+rPfRmrZlfyH/USvSEDX3j9NLpDBiAAiQurFgokvnrh+03xUkKYAHDJwDuuPUAAyttPYMp7b8ER9sf7EQ3ADx2D+U9zEx8aa6wrMsB1991XZtPVTQCuGy5v0YrH8MWl81HgyL5xASN1sCeAr7xxBjrraEqRwr5WVJ/aGe/6/e9rgmk82bhx7QGry0+5ibVEBmg5ciQwbvaM52zStgACs2PlDR3bh9e7dUydVo1Sp83qoqeFcW47nKqCXZ1cIIiSy+Prxcyjr2PymV1whANxfUYCPgF8a6JLfP53L65pt/oeKHcxAMgQ548d025YNK9hUEc5gI/Fyqu0ncZbew8hMPlKXFnitrroaWFemRtdAR3H+9nKSqPnCnox9WQTpp7YAVdgIN6PSQDPQ4qVTRtWbz506BDbpMhS7ALIQEtW1P+5FPIfACix8klFwfgHPo8nr5sBl6rEefbspZkSX91xFge643tTI/ooR9iPCef2Ytz5IwkM8AMgsMuE+advrnthh9X3QPQ+tgBkoHPHDjVOmT33bQArAESd/yekhO/QLrzeHkDVlGpUuO1WF91SqhCoGV+AN1oH4dU4Gp/iZ9NDmHRmN2YeeQ0FA+3x7Nj3vm4pxF9Pcoont6xdc8bq+yC6FFsAMlhkrQDjJQBXDpc3WFCGWQ98Gp+bPx72Md6lL920+ML48htn0RPUrS4KpTlHOICq5n2obD2U2Bt/ZHT/T0Iu8a1dDQ39Vt8H0VByuybIAjW315cKh/w1YmwnfCl5wx347O3LMLPIaXXRLXWqP4Sv7DiLwTC3xaXLOYODqGo5kHhTPyAB8ZIhza/t3LDmuNX3QRQLA4DsIGrrVn0NwHcQR7eOXlSGxQ9+DvdfMQ62HP4J2NcdwF82nkPIYHcARXh8PZjQvB9lHScSaeYHAAiIHTDlX+3YuPoNq++DKB45/Oc/+yxdsWq5KfAcgKp48ivX3YYHP7EM88pyd6bAOx0+fGtnC4OAXCaBor4WTGjeh6LeEe27s18K/F3TutUNVt8KUSIYAGSZZfffX2VoyrMAboknv+YqQNW9j+Mzi6ag2JmbY0L3dQfw143nEGAQkFMUQ0dF+3GMbz0It79vBGeQhwF8s3H9mhfATRwoA+XmX/wsdvbwYe+5hz/5P5NbOwcg8HEAMVcDUvUw/AfexmvHziJQORVXFLtHtRVvJqr02DG/3I03WgehcUnfrOcM+TDx3F7MPLoVZV3vwa4lujaEPAkpvjrRrfzh79auPmj1/RCNVG79pc8xy+6pn2uY8n8AXB3vZzw1d+Dem5fkZLfAwZ4AvvFmMwY4MDD7XGjmH996CCXdI56Nd1BK/JPT2/Xc1q1bOYWEMh4DgCx35513Ovtted8C8OcA4loIQAoV7ts/hUdumIfphbk1W6DVF8ZfNjajxRe2uiiUBPZwEBXtR1HZehjO0Eh32BVvS5jfbVq/5iWwqZ+yCAOAHFFzT/0CYeI/AfmxeD+jOz2YVPcQHl48C2U5tK9AT1DHXzc1c9ngTCWBwv5WjG89jJLuM5HtmUdAQOwQ0vzH7RvWbAArfspCDAByyPLly23hwvKvQOLbADxxfzC/BHMfeBh3z5mC4hzZZdCvm/juO61oahvpWyONtTxfDyrajqKs4xTs2oiXe9Yh8KIU+FHTS6sbrb4nolRiAJCDalbUTxTC/B4gHkvkc2Z+IaaseAgPzJ+GcZ7sbxGQAH5zvBs/P9QFmeCccBobjrAf5e3HUdF+FG5/3JvyDGUAwC9gmD9s3PQCl+ylnMAAIIfV1tXfLCF/LIC5iXzOcBdg0l2fRN2iGajOd1h9Gyn3essA/undNgQ5TTAt2LUgyjpPoqzjJAoGOkZ7uuNSiH/zBV0/37flWe4XTTmFAUCOm1df7ygK4CkI+Q0AJQl9WFEx4ZaV+Ph1V2N+Wfw9Cpno9EAIf/t2K84MhqwuSk5yaAGUdr6H0s6TKBzoAEbXImMA+C2Af2lcv/plsH+fchQDAAIALL374RJTCf8FgD9FjB0Go1HmLMaiG2/GbdPKUZil4wTChsTPDnbihVM9VhclJ7gD/SjrOIWS7tPI83Yn45QtAP7HVG0/ffPF509bfX9EVmMAQB+y9O4HppsKngbEwxjBQlFmYTmqP7ESN8+dhitKsnMtgd83D+BHe9rg19klkEyKNFHY24rS7tMo6mkexbS9DwlJ4CVFiJ/vuGbeq3j6af6jEV3AAICGVFP3wJVCim9D4JMAlIRPIATy5y7G3NobUTN1HMa5s2vQYLtfww92t+HdTnYbj4Yz5EdJ1ymU9JxDQX9bojvvxXJQQP6nHY5nt67/dZfV90mUjhgAUEy1d983H4ryDUCswgiXjjYVFc6P3YJrFl+NpZNKUOrKjmBAAth0ug8/PdDB1oA42bUQinrPobi3BQV9rXCGkhpAnQHwvCKNX2/fsHav1fdKlO4YAFBcbqyrn6ZDfhnA5wGMuG3fcLpRcd1yLFy0EIsnZEcwcN6v4YdsDRiSTQ+jsK8VxT3NKOxvhSswqql6Q+kB5EZTwa/efGnNq+CAPqK4MQCghFy/8qFKVYb/GBBPAqgYzblMRYVr7rWYds31mD+xDAvLPLApmfsj+WabF/+8tw0dgRxdJl4CrrAXhT3NKBxoh2ewCx5/byqu1CuBdTDlr52+7le5Lj/RyGTuX1uy1J133unss+etFBJ/BqBmtOeTQkCrnIyJV9VgzqzpuKqyEJWeuLYuSCs+zcR/H+nES6f6YGb54kF2LYj8wU7k97ehYKATed4OqEbK6uIzgPydIrGh16387mBDAzdrIBolBgA0ajX3rKoVBj4HgVUACpNxTlNRoUy5EuULFmPa5AmYXZaPWcUu2DLkJ/ZEfwg/PdCB3VnRLSDhDPuRN9CJgoF25A12w+Prhk1P6ZoIEhC7BfCSNLCucVPDHqufAlG2yZA/p5QJFtfVeVzSeZ8UeALALRjJ7IEoDNWOUGkVSudeg8nVUzBrXDGqC12YkGeHItL3x3hnuxf/caAzMxYQkoBDD8Dt60X+QCc8vm64Av1w+/uSOTo/ln4h8HsJ8bJNqBu2vfT8OasfCVE2S9+/nJTRlqx8cIIJo15IfAaQi1JxDd3mQrBiEtyz5qOyagImlRSiusiN6gJHWnUfGFJi85l+/OpwF7pDFndXS8BuhuAIeOH298Lj64Y7MABnYBCuQP9YVfQXHw0E9kDiFVORrww6lG1s2icaOwwAKOWW3vPA9YaBR4UQKwFMSeW1pFAQcBfCLB+P/MmzkFc+DmXFxSjLd2K8x44Klx2VHjuKnWO/WmHIMLHhdD+eP96NnmBqAgEBCbsehD3khzPohdvXA1fAC0fYB0dwEK7g4Ii3x00CKYHDAvJ1KZWXw278fldDQ79VhSHKdQwAaEwtqXtgnoRYISDqJGQtxvBn0LDZEXLkQ3PmwSgqR/74iXAXl8KZl498twsFLhvy7XYUOlUU2lUUOBQUOlQUOmywCcChCjjV0fdqhHQT68/04/ljXegNxXjjloACE6qpQzF0qHoYNi0AZ9gPR9ALR8gLezgAmxaEXQtGvk5tv3yidAjshcQOKbDdKe2vcVEeovTBAIAss2TlgxMkjBWQciWAmzGK9QWSyVRs0O0O6KoTut0B88L/DZsTms0FoShwu53QVTtcTgcUoUB1uWBTI60KipQQpgkh36/cJRQj8rVq6FBMHaoRhhYOo6O9E0KaUA0dwtShGlqkotfDUI2Maw3vAPC2ENgBA9vtvvy3t279RdDqQhHR0BgAUFpYXFfncUvHLaaC5ZBiKYBrAGT+KkHZq0MCu4TALinlLrti38VBe0SZhQEApaXl9fX5Wgg1pjSXCoiPA7gOadJCkGN0ACcBcUBAHjIh32VlT5QdGABQRphXX+8oCBkfU6SyVACLJbAQwEyMcH8CuowO4AQgDgrIQ5DioKni0IADRzkynyg7MQCgjLX4ySftrvPdV5hSLBYCcwHMA/AxAJVWly1NBQG0CilOSWGeAsQpKXBKNcQpw4NDTQ0NAasLSERjhwEAZZ2aFfUTFQVzpWlOhRBTBeRUQKmWkNMAVCE7f+57AbQCaJHAeQG0AGiTUjSrqtlqMx0nOQKfiC6VjX8IiaK68847nYOisNpUjamQsloqYrwwZRkESgGlDEApIC/8H2UWFLEfQAiAFwK9kOgG0C0EeiDRYwrRLSR6INAjpNEtVXuntJutfHsnokQxACCKTiyve6gsrJpFimYWA4BUDLuhiHwAsBlwG4pwAYAwkQ9F2AFASBimkB/a91Y1ZVBXEQAAxVRMxUS/sCEgdTMIOHsDymBo1/r1fqtvmIiIiIiIiIiIiIiIiIiIiIiIiIiIiIiIiIiIiIiIiIiIiIiIiIiIiIiIiIiIiIiIiIiIiIiIiIiIiIiIiIiIiIiIiIiIiIiIiIiIiIiIiIiIiIiIiIiIiIiIiIiIiIiIiIiIiIiIiIiIiIiIiIiIiIiIiIiIiIiIiIiIiIiIiIiIiIiIiIiIiIiIiIiIiIiIiIiIiIiIiIiIiIiIiIiIiIiIiIiIiIiIiIiIiIiIiIiIiIiIiIiIiIiIiIiIiIiIiIiIiIiIiIiIiIiIiIiIiIiIiIiIiIiIiIiIiIiIiIiIiIiIiIiIiIiIiIiIiIiIiIiIiIiIiIiIiIiIiIiIiIiIiIiIiIiIiIiIiIiIiIiIiIiIiIiIiIiIiIiIiIiIiIiIiIiIiIiIiIiIiIiIiIiIiIiIiIiIiIiIiIiIiIiIiIiIiIiIiIiIiIiIiIiIiIiIiIiIiIiIiIiIiIiIiIiIiIiIiIiIiIiIiIiIiIiIiIiIiIiIiIiIiIiIiIiIiIiIiIiIiIiIiIiIiIiIiIiIiIiIiIiIiIiIiIiIiIiIiIiIiIiIiIiIiIiIiIiIiIiIiIiIiIiIiIiIiIiIiIiIiFLk/wfaS7ECW/01FAAAAABJRU5ErkJggg==;" vertex="1" parent="1">
          <mxGeometry x="435" y="340" width="35" height="35" as="geometry" />
        </mxCell>
      </root>
    </mxGraphModel>
  </diagram>
</mxfile>
